  0
SECTION
  2
HEADER
  9
$ACADVER
  1
AC1024
  9
$ACADMAINTVER
 70
6
  9
$DWGCODEPAGE
  3
ANSI_1252
  9
$LASTSAVEDBY
  1
ezdxf
  9
$INSBASE
 10
0.0
 20
0.0
 30
0.0
  9
$EXTMIN
 10
1e+20
 20
1e+20
 30
1e+20
  9
$EXTMAX
 10
-1e+20
 20
-1e+20
 30
-1e+20
  9
$LIMMIN
 10
0.0
 20
0.0
  9
$LIMMAX
 10
420.0
 20
297.0
  9
$ORTHOMODE
 70
0
  9
$REGENMODE
 70
1
  9
$FILLMODE
 70
1
  9
$QTEXTMODE
 70
0
  9
$MIRRTEXT
 70
1
  9
$LTSCALE
 40
1.0
  9
$ATTMODE
 70
1
  9
$TEXTSIZE
 40
2.5
  9
$TRACEWID
 40
1.0
  9
$TEXTSTYLE
  7
Standard
  9
$CLAYER
  8
0
  9
$CELTYPE
  6
ByLayer
  9
$CECOLOR
 62
256
  9
$CELTSCALE
 40
1.0
  9
$DISPSILH
 70
0
  9
$DIMSCALE
 40
1.0
  9
$DIMASZ
 40
2.5
  9
$DIMEXO
 40
0.625
  9
$DIMDLI
 40
3.75
  9
$DIMRND
 40
0.0
  9
$DIMDLE
 40
0.0
  9
$DIMEXE
 40
1.25
  9
$DIMTP
 40
0.0
  9
$DIMTM
 40
0.0
  9
$DIMTXT
 40
2.5
  9
$DIMCEN
 40
2.5
  9
$DIMTSZ
 40
0.0
  9
$DIMTOL
 70
0
  9
$DIMLIM
 70
0
  9
$DIMTIH
 70
0
  9
$DIMTOH
 70
0
  9
$DIMSE1
 70
0
  9
$DIMSE2
 70
0
  9
$DIMTAD
 70
1
  9
$DIMZIN
 70
8
  9
$DIMBLK
  1

  9
$DIMASO
 70
1
  9
$DIMSHO
 70
1
  9
$DIMPOST
  1

  9
$DIMAPOST
  1

  9
$DIMALT
 70
0
  9
$DIMALTD
 70
3
  9
$DIMALTF
 40
0.03937007874
  9
$DIMLFAC
 40
1.0
  9
$DIMTOFL
 70
1
  9
$DIMTVP
 40
0.0
  9
$DIMTIX
 70
0
  9
$DIMSOXD
 70
0
  9
$DIMSAH
 70
0
  9
$DIMBLK1
  1

  9
$DIMBLK2
  1

  9
$DIMSTYLE
  2
ISO-25
  9
$DIMCLRD
 70
0
  9
$DIMCLRE
 70
0
  9
$DIMCLRT
 70
0
  9
$DIMTFAC
 40
1.0
  9
$DIMGAP
 40
0.625
  9
$DIMJUST
 70
0
  9
$DIMSD1
 70
0
  9
$DIMSD2
 70
0
  9
$DIMTOLJ
 70
0
  9
$DIMTZIN
 70
8
  9
$DIMALTZ
 70
0
  9
$DIMALTTZ
 70
0
  9
$DIMUPT
 70
0
  9
$DIMDEC
 70
2
  9
$DIMTDEC
 70
2
  9
$DIMALTU
 70
2
  9
$DIMALTTD
 70
3
  9
$DIMTXSTY
  7
Standard
  9
$DIMAUNIT
 70
0
  9
$DIMADEC
 70
0
  9
$DIMALTRND
 40
0.0
  9
$DIMAZIN
 70
0
  9
$DIMDSEP
 70
44
  9
$DIMATFIT
 70
3
  9
$DIMFRAC
 70
0
  9
$DIMLDRBLK
  1

  9
$DIMLUNIT
 70
2
  9
$DIMLWD
 70
-2
  9
$DIMLWE
 70
-2
  9
$DIMTMOVE
 70
0
  9
$DIMFXL
 40
1.0
  9
$DIMFXLON
 70
0
  9
$DIMJOGANG
 40
0.785398163397
  9
$DIMTFILL
 70
0
  9
$DIMTFILLCLR
 70
0
  9
$DIMARCSYM
 70
0
  9
$DIMLTYPE
  6

  9
$DIMLTEX1
  6

  9
$DIMLTEX2
  6

  9
$DIMTXTDIRECTION
 70
0
  9
$LUNITS
 70
2
  9
$LUPREC
 70
6
  9
$SKETCHINC
 40
1.0
  9
$FILLETRAD
 40
10.0
  9
$AUNITS
 70
0
  9
$AUPREC
 70
2
  9
$MENU
  1
.
  9
$ELEVATION
 40
0.0
  9
$PELEVATION
 40
0.0
  9
$THICKNESS
 40
0.0
  9
$LIMCHECK
 70
0
  9
$CHAMFERA
 40
0.0
  9
$CHAMFERB
 40
0.0
  9
$CHAMFERC
 40
0.0
  9
$CHAMFERD
 40
0.0
  9
$SKPOLY
 70
0
  9
$TDCREATE
 40
2461246.346030093
  9
$TDUCREATE
 40
2458532.153996898
  9
$TDUPDATE
 40
2461246.346030093
  9
$TDUUPDATE
 40
2458532.1544311
  9
$TDINDWG
 40
0.0
  9
$TDUSRTIMER
 40
0.0
  9
$USRTIMER
 70
1
  9
$ANGBASE
 50
0.0
  9
$ANGDIR
 70
0
  9
$PDMODE
 70
0
  9
$PDSIZE
 40
0.0
  9
$PLINEWID
 40
0.0
  9
$SPLFRAME
 70
0
  9
$SPLINETYPE
 70
6
  9
$SPLINESEGS
 70
8
  9
$HANDSEED
  5
104EC
  9
$SURFTAB1
 70
6
  9
$SURFTAB2
 70
6
  9
$SURFTYPE
 70
6
  9
$SURFU
 70
6
  9
$SURFV
 70
6
  9
$UCSBASE
  2

  9
$UCSNAME
  2

  9
$UCSORG
 10
0.0
 20
0.0
 30
0.0
  9
$UCSXDIR
 10
1.0
 20
0.0
 30
0.0
  9
$UCSYDIR
 10
0.0
 20
1.0
 30
0.0
  9
$UCSORTHOREF
  2

  9
$UCSORTHOVIEW
 70
0
  9
$UCSORGTOP
 10
0.0
 20
0.0
 30
0.0
  9
$UCSORGBOTTOM
 10
0.0
 20
0.0
 30
0.0
  9
$UCSORGLEFT
 10
0.0
 20
0.0
 30
0.0
  9
$UCSORGRIGHT
 10
0.0
 20
0.0
 30
0.0
  9
$UCSORGFRONT
 10
0.0
 20
0.0
 30
0.0
  9
$UCSORGBACK
 10
0.0
 20
0.0
 30
0.0
  9
$PUCSBASE
  2

  9
$PUCSNAME
  2

  9
$PUCSORG
 10
0.0
 20
0.0
 30
0.0
  9
$PUCSXDIR
 10
1.0
 20
0.0
 30
0.0
  9
$PUCSYDIR
 10
0.0
 20
1.0
 30
0.0
  9
$PUCSORTHOREF
  2

  9
$PUCSORTHOVIEW
 70
0
  9
$PUCSORGTOP
 10
0.0
 20
0.0
 30
0.0
  9
$PUCSORGBOTTOM
 10
0.0
 20
0.0
 30
0.0
  9
$PUCSORGLEFT
 10
0.0
 20
0.0
 30
0.0
  9
$PUCSORGRIGHT
 10
0.0
 20
0.0
 30
0.0
  9
$PUCSORGFRONT
 10
0.0
 20
0.0
 30
0.0
  9
$PUCSORGBACK
 10
0.0
 20
0.0
 30
0.0
  9
$USERI1
 70
0
  9
$USERI2
 70
0
  9
$USERI3
 70
0
  9
$USERI4
 70
0
  9
$USERI5
 70
0
  9
$USERR1
 40
0.0
  9
$USERR2
 40
0.0
  9
$USERR3
 40
0.0
  9
$USERR4
 40
0.0
  9
$USERR5
 40
0.0
  9
$WORLDVIEW
 70
1
  9
$SHADEDGE
 70
3
  9
$SHADEDIF
 70
70
  9
$TILEMODE
 70
1
  9
$MAXACTVP
 70
64
  9
$PINSBASE
 10
0.0
 20
0.0
 30
0.0
  9
$PLIMCHECK
 70
0
  9
$PEXTMIN
 10
1e+20
 20
1e+20
 30
1e+20
  9
$PEXTMAX
 10
-1e+20
 20
-1e+20
 30
-1e+20
  9
$PLIMMIN
 10
0.0
 20
0.0
  9
$PLIMMAX
 10
420.0
 20
297.0
  9
$UNITMODE
 70
0
  9
$VISRETAIN
 70
1
  9
$PLINEGEN
 70
0
  9
$PSLTSCALE
 70
1
  9
$TREEDEPTH
 70
3020
  9
$CMLSTYLE
  2
Standard
  9
$CMLJUST
 70
0
  9
$CMLSCALE
 40
20.0
  9
$PROXYGRAPHICS
 70
1
  9
$MEASUREMENT
 70
1
  9
$CELWEIGHT
370
-1
  9
$ENDCAPS
280
0
  9
$JOINSTYLE
280
0
  9
$LWDISPLAY
290
0
  9
$INSUNITS
 70
4
  9
$HYPERLINKBASE
  1

  9
$STYLESHEET
  1

  9
$XEDIT
290
1
  9
$CEPSNTYPE
380
0
  9
$PSTYLEMODE
290
1
  9
$FINGERPRINTGUID
  2
{4CCDD8B7-DD09-46B2-BB83-AECCB56A0F49}
  9
$VERSIONGUID
  2
{04DAC1E0-0086-4890-9512-8CD0EEA088B8}
  9
$EXTNAMES
290
1
  9
$PSVPSCALE
 40
0.0
  9
$OLESTARTUP
290
0
  9
$SORTENTS
280
127
  9
$INDEXCTL
280
0
  9
$HIDETEXT
280
1
  9
$XCLIPFRAME
280
1
  9
$HALOGAP
280
0
  9
$OBSCOLOR
 70
257
  9
$OBSLTYPE
280
0
  9
$INTERSECTIONDISPLAY
280
0
  9
$INTERSECTIONCOLOR
 70
257
  9
$DIMASSOC
280
2
  9
$PROJECTNAME
  1

  9
$CAMERADISPLAY
290
0
  9
$LENSLENGTH
 40
50.0
  9
$CAMERAHEIGHT
 40
0.0
  9
$STEPSPERSEC
 40
24.0
  9
$STEPSIZE
 40
100.0
  9
$3DDWFPREC
 40
2.0
  9
$PSOLWIDTH
 40
0.005
  9
$PSOLHEIGHT
 40
0.08
  9
$LOFTANG1
 40
1.570796326795
  9
$LOFTANG2
 40
1.570796326795
  9
$LOFTMAG1
 40
0.0
  9
$LOFTMAG2
 40
0.0
  9
$LOFTPARAM
 70
7
  9
$LOFTNORMALS
280
1
  9
$LATITUDE
 40
37.795
  9
$LONGITUDE
 40
-122.394
  9
$NORTHDIRECTION
 40
0.0
  9
$TIMEZONE
 70
-8000
  9
$LIGHTGLYPHDISPLAY
280
1
  9
$TILEMODELIGHTSYNCH
280
1
  9
$CMATERIAL
347
20
  9
$SOLIDHIST
280
0
  9
$SHOWHIST
280
1
  9
$DWFFRAME
280
2
  9
$DGNFRAME
280
2
  9
$REALWORLDSCALE
290
1
  9
$INTERFERECOLOR
 62
256
  9
$CSHADOW
280
0
  9
$SHADOWPLANELOCATION
 40
0.0
  0
ENDSEC
  0
SECTION
  2
CLASSES
  0
CLASS
  1
ACDBDICTIONARYWDFLT
  2
AcDbDictionaryWithDefault
  3
ObjectDBX Classes
 90
0
 91
0
280
0
281
0
  0
CLASS
  1
SUN
  2
AcDbSun
  3
SCENEOE
 90
1153
 91
0
280
0
281
0
  0
CLASS
  1
VISUALSTYLE
  2
AcDbVisualStyle
  3
ObjectDBX Classes
 90
4095
 91
0
280
0
281
0
  0
CLASS
  1
MATERIAL
  2
AcDbMaterial
  3
ObjectDBX Classes
 90
1153
 91
0
280
0
281
0
  0
CLASS
  1
SCALE
  2
AcDbScale
  3
ObjectDBX Classes
 90
1153
 91
0
280
0
281
0
  0
CLASS
  1
TABLESTYLE
  2
AcDbTableStyle
  3
ObjectDBX Classes
 90
4095
 91
0
280
0
281
0
  0
CLASS
  1
MLEADERSTYLE
  2
AcDbMLeaderStyle
  3
ACDB_MLEADERSTYLE_CLASS
 90
4095
 91
0
280
0
281
0
  0
CLASS
  1
DICTIONARYVAR
  2
AcDbDictionaryVar
  3
ObjectDBX Classes
 90
0
 91
0
280
0
281
0
  0
CLASS
  1
CELLSTYLEMAP
  2
AcDbCellStyleMap
  3
ObjectDBX Classes
 90
1152
 91
0
280
0
281
0
  0
CLASS
  1
MENTALRAYRENDERSETTINGS
  2
AcDbMentalRayRenderSettings
  3
SCENEOE
 90
1024
 91
0
280
0
281
0
  0
CLASS
  1
ACDBDETAILVIEWSTYLE
  2
AcDbDetailViewStyle
  3
ObjectDBX Classes
 90
1025
 91
0
280
0
281
0
  0
CLASS
  1
ACDBSECTIONVIEWSTYLE
  2
AcDbSectionViewStyle
  3
ObjectDBX Classes
 90
1025
 91
0
280
0
281
0
  0
CLASS
  1
RASTERVARIABLES
  2
AcDbRasterVariables
  3
ISM
 90
0
 91
0
280
0
281
0
  0
CLASS
  1
LAYOUT
  2
AcDbLayout
  3
ObjectDBX Classes
 90
0
 91
0
280
0
281
0
  0
CLASS
  1
ACDBPLACEHOLDER
  2
AcDbPlaceHolder
  3
ObjectDBX Classes
 90
0
 91
0
280
0
281
0
  0
ENDSEC
  0
SECTION
  2
TABLES
  0
TABLE
  2
VPORT
  5
8
330
0
100
AcDbSymbolTable
 70
1
  0
VPORT
  5
23
330
8
100
AcDbSymbolTableRecord
100
AcDbViewportTableRecord
  2
*Active
 70
0
 10
0.0
 20
0.0
 11
1.0
 21
1.0
 12
0.0
 22
0.0
 13
0.0
 23
0.0
 14
0.5
 24
0.5
 15
0.5
 25
0.5
 16
0.0
 26
0.0
 36
1.0
 17
0.0
 27
0.0
 37
0.0
 40
1000.0
 41
1.34
 42
50.0
 43
0.0
 44
0.0
 50
0.0
 51
0.0
 71
0
 72
1000
 73
1
 74
3
 75
0
 76
0
 77
0
 78
0
281
0
 65
0
146
0.0
  0
ENDTAB
  0
TABLE
  2
LTYPE
  5
2
330
0
100
AcDbSymbolTable
 70
3
  0
LTYPE
  5
24
330
2
100
AcDbSymbolTableRecord
100
AcDbLinetypeTableRecord
  2
ByBlock
 70
0
  3

 72
65
 73
0
 40
0.0
  0
LTYPE
  5
25
330
2
100
AcDbSymbolTableRecord
100
AcDbLinetypeTableRecord
  2
ByLayer
 70
0
  3

 72
65
 73
0
 40
0.0
  0
LTYPE
  5
26
330
2
100
AcDbSymbolTableRecord
100
AcDbLinetypeTableRecord
  2
Continuous
 70
0
  3

 72
65
 73
0
 40
0.0
  0
ENDTAB
  0
TABLE
  2
LAYER
  5
1
330
0
100
AcDbSymbolTable
 70
2
  0
LAYER
  5
27
330
1
100
AcDbSymbolTableRecord
100
AcDbLayerTableRecord
  2
0
 70
0
 62
7
  6
Continuous
370
-3
390
13
347
21
  0
LAYER
  5
28
330
1
100
AcDbSymbolTableRecord
100
AcDbLayerTableRecord
  2
Defpoints
 70
0
 62
7
  6
Continuous
290
0
370
-3
390
13
347
21
  0
ENDTAB
  0
TABLE
  2
STYLE
  5
5
330
0
100
AcDbSymbolTable
 70
1
  0
STYLE
  5
29
330
5
100
AcDbSymbolTableRecord
100
AcDbTextStyleTableRecord
  2
Standard
 70
0
 40
0.0
 41
1.0
 50
0.0
 71
0
 42
2.5
  3
txt
  4

  0
ENDTAB
  0
TABLE
  2
VIEW
  5
7
330
0
100
AcDbSymbolTable
 70
0
  0
ENDTAB
  0
TABLE
  2
UCS
  5
6
330
0
100
AcDbSymbolTable
 70
0
  0
ENDTAB
  0
TABLE
  2
APPID
  5
3
330
0
100
AcDbSymbolTable
 70
3
  0
APPID
  5
2A
330
3
100
AcDbSymbolTableRecord
100
AcDbRegAppTableRecord
  2
ACAD
 70
0
  0
APPID
  5
471
330
3
100
AcDbSymbolTableRecord
100
AcDbRegAppTableRecord
  2
HATCHBACKGROUNDCOLOR
 70
0
  0
APPID
  5
472
330
3
100
AcDbSymbolTableRecord
100
AcDbRegAppTableRecord
  2
EZDXF
 70
0
  0
ENDTAB
  0
TABLE
  2
DIMSTYLE
  5
4
330
0
100
AcDbSymbolTable
 70
1
100
AcDbDimStyleTable
  0
DIMSTYLE
105
2B
330
4
100
AcDbSymbolTableRecord
100
AcDbDimStyleTableRecord
  2
Standard
 70
0
 40
1.0
 41
2.5
 42
0.625
 43
3.75
 44
1.25
 45
0.0
 46
0.0
 47
0.0
 48
0.0
 49
2.5
140
2.5
141
2.5
142
0.0
143
0.03937007874
144
1.0
145
0.0
146
1.0
147
0.625
148
0.0
 69
0
 70
0
 71
0
 72
0
 73
0
 74
0
 75
0
 76
0
 77
1
 78
8
 79
3
170
0
171
3
172
1
173
0
174
0
175
0
176
0
177
0
178
0
179
2
271
2
272
2
273
2
274
3
275
0
276
0
277
2
278
44
279
0
280
0
281
0
282
0
283
0
284
8
285
0
286
0
288
0
289
3
290
0
371
-2
372
-2
  0
ENDTAB
  0
TABLE
  2
BLOCK_RECORD
  5
9
330
0
100
AcDbSymbolTable
 70
2
  0
BLOCK_RECORD
  5
17
330
9
100
AcDbSymbolTableRecord
100
AcDbBlockTableRecord
  2
*Model_Space
340
1A
 70
0
280
1
281
0
  0
BLOCK_RECORD
  5
1B
330
9
100
AcDbSymbolTableRecord
100
AcDbBlockTableRecord
  2
*Paper_Space
340
1E
 70
0
280
1
281
0
  0
ENDTAB
  0
ENDSEC
  0
SECTION
  2
BLOCKS
  0
BLOCK
  5
18
330
17
100
AcDbEntity
  8
0
100
AcDbBlockBegin
  2
*Model_Space
 70
0
 10
0.0
 20
0.0
 30
0.0
  3
*Model_Space
  1

  0
ENDBLK
  5
19
330
17
100
AcDbEntity
  8
0
100
AcDbBlockEnd
  0
BLOCK
  5
1C
330
1B
100
AcDbEntity
  8
0
100
AcDbBlockBegin
  2
*Paper_Space
 70
0
 10
0.0
 20
0.0
 30
0.0
  3
*Paper_Space
  1

  0
ENDBLK
  5
1D
330
1B
100
AcDbEntity
  8
0
100
AcDbBlockEnd
  0
ENDSEC
  0
SECTION
  2
ENTITIES
  0
CIRCLE
  5
10000
330
17
100
AcDbEntity
  8
0
100
AcDbCircle
 10
0.0967795044981831
 20
0.1375
 30
0.0
 40
0.0475
  0
CIRCLE
  5
10001
330
17
100
AcDbEntity
  8
0
100
AcDbCircle
 10
0.0967795044981831
 20
0.2875
 30
0.0
 40
0.0475
  0
CIRCLE
  5
10002
330
17
100
AcDbEntity
  8
0
100
AcDbCircle
 10
0.0967795044981831
 20
0.4375
 30
0.0
 40
0.0475
  0
CIRCLE
  5
10003
330
17
100
AcDbEntity
  8
0
100
AcDbCircle
 10
0.0967795044981831
 20
0.5875
 30
0.0
 40
0.0475
  0
CIRCLE
  5
10004
330
17
100
AcDbEntity
  8
0
100
AcDbCircle
 10
0.0967795044981831
 20
0.7375
 30
0.0
 40
0.0475
  0
CIRCLE
  5
10005
330
17
100
AcDbEntity
  8
0
100
AcDbCircle
 10
0.0967795044981831
 20
0.8875
 30
0.0
 40
0.0475
  0
CIRCLE
  5
10006
330
17
100
AcDbEntity
  8
0
100
AcDbCircle
 10
0.0967795044981831
 20
1.0375
 30
0.0
 40
0.0475
  0
CIRCLE
  5
10007
330
17
100
AcDbEntity
  8
0
100
AcDbCircle
 10
0.0967795044981831
 20
1.1875
 30
0.0
 40
0.0475
  0
CIRCLE
  5
10008
330
17
100
AcDbEntity
  8
0
100
AcDbCircle
 10
0.0967795044981831
 20
1.3375
 30
0.0
 40
0.0475
  0
CIRCLE
  5
10009
330
17
100
AcDbEntity
  8
0
100
AcDbCircle
 10
0.0967795044981831
 20
1.4875
 30
0.0
 40
0.0475
  0
CIRCLE
  5
1000A
330
17
100
AcDbEntity
  8
0
100
AcDbCircle
 10
0.0967795044981831
 20
1.6375
 30
0.0
 40
0.0475
  0
CIRCLE
  5
1000B
330
17
100
AcDbEntity
  8
0
100
AcDbCircle
 10
0.0967795044981831
 20
1.7875
 30
0.0
 40
0.0475
  0
CIRCLE
  5
1000C
330
17
100
AcDbEntity
  8
0
100
AcDbCircle
 10
0.0967795044981831
 20
1.9375
 30
0.0
 40
0.0475
  0
CIRCLE
  5
1000D
330
17
100
AcDbEntity
  8
0
100
AcDbCircle
 10
0.0967795044981831
 20
2.0875
 30
0.0
 40
0.0475
  0
CIRCLE
  5
1000E
330
17
100
AcDbEntity
  8
0
100
AcDbCircle
 10
0.0967795044981831
 20
2.2375
 30
0.0
 40
0.0475
  0
CIRCLE
  5
1000F
330
17
100
AcDbEntity
  8
0
100
AcDbCircle
 10
0.0967795044981831
 20
2.3875
 30
0.0
 40
0.0475
  0
CIRCLE
  5
10010
330
17
100
AcDbEntity
  8
0
100
AcDbCircle
 10
0.0967795044981831
 20
2.5375
 30
0.0
 40
0.0475
  0
CIRCLE
  5
10011
330
17
100
AcDbEntity
  8
0
100
AcDbCircle
 10
0.0967795044981831
 20
2.6875
 30
0.0
 40
0.0475
  0
CIRCLE
  5
10012
330
17
100
AcDbEntity
  8
0
100
AcDbCircle
 10
0.0967795044981831
 20
2.8375
 30
0.0
 40
0.0475
  0
CIRCLE
  5
10013
330
17
100
AcDbEntity
  8
0
100
AcDbCircle
 10
0.0967795044981831
 20
2.9875
 30
0.0
 40
0.0475
  0
CIRCLE
  5
10014
330
17
100
AcDbEntity
  8
0
100
AcDbCircle
 10
0.0967795044981831
 20
3.1375
 30
0.0
 40
0.0475
  0
CIRCLE
  5
10015
330
17
100
AcDbEntity
  8
0
100
AcDbCircle
 10
0.0967795044981831
 20
3.2875
 30
0.0
 40
0.0475
  0
CIRCLE
  5
10016
330
17
100
AcDbEntity
  8
0
100
AcDbCircle
 10
0.0967795044981831
 20
3.4375
 30
0.0
 40
0.0475
  0
CIRCLE
  5
10017
330
17
100
AcDbEntity
  8
0
100
AcDbCircle
 10
0.0967795044981831
 20
3.5875
 30
0.0
 40
0.0475
  0
CIRCLE
  5
10018
330
17
100
AcDbEntity
  8
0
100
AcDbCircle
 10
0.0967795044981831
 20
3.7375
 30
0.0
 40
0.0475
  0
CIRCLE
  5
10019
330
17
100
AcDbEntity
  8
0
100
AcDbCircle
 10
0.0967795044981831
 20
3.8875
 30
0.0
 40
0.0475
  0
CIRCLE
  5
1001A
330
17
100
AcDbEntity
  8
0
100
AcDbCircle
 10
0.0967795044981831
 20
4.0375
 30
0.0
 40
0.0475
  0
CIRCLE
  5
1001B
330
17
100
AcDbEntity
  8
0
100
AcDbCircle
 10
0.0967795044981831
 20
4.1875
 30
0.0
 40
0.0475
  0
CIRCLE
  5
1001C
330
17
100
AcDbEntity
  8
0
100
AcDbCircle
 10
0.0967795044981831
 20
4.3375
 30
0.0
 40
0.0475
  0
CIRCLE
  5
1001D
330
17
100
AcDbEntity
  8
0
100
AcDbCircle
 10
0.0967795044981831
 20
4.4875
 30
0.0
 40
0.0475
  0
CIRCLE
  5
1001E
330
17
100
AcDbEntity
  8
0
100
AcDbCircle
 10
0.0967795044981831
 20
4.6375
 30
0.0
 40
0.0475
  0
CIRCLE
  5
1001F
330
17
100
AcDbEntity
  8
0
100
AcDbCircle
 10
0.0967795044981831
 20
4.7875
 30
0.0
 40
0.0475
  0
CIRCLE
  5
10020
330
17
100
AcDbEntity
  8
0
100
AcDbCircle
 10
0.0967795044981831
 20
4.9375
 30
0.0
 40
0.0475
  0
CIRCLE
  5
10021
330
17
100
AcDbEntity
  8
0
100
AcDbCircle
 10
0.226683315065849
 20
0.0625000000000001
 30
0.0
 40
0.0475
  0
CIRCLE
  5
10022
330
17
100
AcDbEntity
  8
0
100
AcDbCircle
 10
0.226683315065849
 20
0.2125
 30
0.0
 40
0.0475
  0
CIRCLE
  5
10023
330
17
100
AcDbEntity
  8
0
100
AcDbCircle
 10
0.226683315065849
 20
0.3625
 30
0.0
 40
0.0475
  0
CIRCLE
  5
10024
330
17
100
AcDbEntity
  8
0
100
AcDbCircle
 10
0.226683315065849
 20
0.5125
 30
0.0
 40
0.0475
  0
CIRCLE
  5
10025
330
17
100
AcDbEntity
  8
0
100
AcDbCircle
 10
0.226683315065849
 20
0.6625
 30
0.0
 40
0.0475
  0
CIRCLE
  5
10026
330
17
100
AcDbEntity
  8
0
100
AcDbCircle
 10
0.226683315065849
 20
0.8125
 30
0.0
 40
0.0475
  0
CIRCLE
  5
10027
330
17
100
AcDbEntity
  8
0
100
AcDbCircle
 10
0.226683315065849
 20
0.9625
 30
0.0
 40
0.0475
  0
CIRCLE
  5
10028
330
17
100
AcDbEntity
  8
0
100
AcDbCircle
 10
0.226683315065849
 20
1.1125
 30
0.0
 40
0.0475
  0
CIRCLE
  5
10029
330
17
100
AcDbEntity
  8
0
100
AcDbCircle
 10
0.226683315065849
 20
1.2625
 30
0.0
 40
0.0475
  0
CIRCLE
  5
1002A
330
17
100
AcDbEntity
  8
0
100
AcDbCircle
 10
0.226683315065849
 20
1.4125
 30
0.0
 40
0.0475
  0
CIRCLE
  5
1002B
330
17
100
AcDbEntity
  8
0
100
AcDbCircle
 10
0.226683315065849
 20
1.5625
 30
0.0
 40
0.0475
  0
CIRCLE
  5
1002C
330
17
100
AcDbEntity
  8
0
100
AcDbCircle
 10
0.226683315065849
 20
1.7125
 30
0.0
 40
0.0475
  0
CIRCLE
  5
1002D
330
17
100
AcDbEntity
  8
0
100
AcDbCircle
 10
0.226683315065849
 20
1.8625
 30
0.0
 40
0.0475
  0
CIRCLE
  5
1002E
330
17
100
AcDbEntity
  8
0
100
AcDbCircle
 10
0.226683315065849
 20
2.0125
 30
0.0
 40
0.0475
  0
CIRCLE
  5
1002F
330
17
100
AcDbEntity
  8
0
100
AcDbCircle
 10
0.226683315065849
 20
2.1625
 30
0.0
 40
0.0475
  0
CIRCLE
  5
10030
330
17
100
AcDbEntity
  8
0
100
AcDbCircle
 10
0.226683315065849
 20
2.3125
 30
0.0
 40
0.0475
  0
CIRCLE
  5
10031
330
17
100
AcDbEntity
  8
0
100
AcDbCircle
 10
0.226683315065849
 20
2.4625
 30
0.0
 40
0.0475
  0
CIRCLE
  5
10032
330
17
100
AcDbEntity
  8
0
100
AcDbCircle
 10
0.226683315065849
 20
2.6125
 30
0.0
 40
0.0475
  0
CIRCLE
  5
10033
330
17
100
AcDbEntity
  8
0
100
AcDbCircle
 10
0.226683315065849
 20
2.7625
 30
0.0
 40
0.0475
  0
CIRCLE
  5
10034
330
17
100
AcDbEntity
  8
0
100
AcDbCircle
 10
0.226683315065849
 20
2.9125
 30
0.0
 40
0.0475
  0
CIRCLE
  5
10035
330
17
100
AcDbEntity
  8
0
100
AcDbCircle
 10
0.226683315065849
 20
3.0625
 30
0.0
 40
0.0475
  0
CIRCLE
  5
10036
330
17
100
AcDbEntity
  8
0
100
AcDbCircle
 10
0.226683315065849
 20
3.2125
 30
0.0
 40
0.0475
  0
CIRCLE
  5
10037
330
17
100
AcDbEntity
  8
0
100
AcDbCircle
 10
0.226683315065849
 20
3.3625
 30
0.0
 40
0.0475
  0
CIRCLE
  5
10038
330
17
100
AcDbEntity
  8
0
100
AcDbCircle
 10
0.226683315065849
 20
3.5125
 30
0.0
 40
0.0475
  0
CIRCLE
  5
10039
330
17
100
AcDbEntity
  8
0
100
AcDbCircle
 10
0.226683315065849
 20
3.6625
 30
0.0
 40
0.0475
  0
CIRCLE
  5
1003A
330
17
100
AcDbEntity
  8
0
100
AcDbCircle
 10
0.226683315065849
 20
3.8125
 30
0.0
 40
0.0475
  0
CIRCLE
  5
1003B
330
17
100
AcDbEntity
  8
0
100
AcDbCircle
 10
0.226683315065849
 20
3.9625
 30
0.0
 40
0.0475
  0
CIRCLE
  5
1003C
330
17
100
AcDbEntity
  8
0
100
AcDbCircle
 10
0.226683315065849
 20
4.1125
 30
0.0
 40
0.0475
  0
CIRCLE
  5
1003D
330
17
100
AcDbEntity
  8
0
100
AcDbCircle
 10
0.226683315065849
 20
4.2625
 30
0.0
 40
0.0475
  0
CIRCLE
  5
1003E
330
17
100
AcDbEntity
  8
0
100
AcDbCircle
 10
0.226683315065849
 20
4.4125
 30
0.0
 40
0.0475
  0
CIRCLE
  5
1003F
330
17
100
AcDbEntity
  8
0
100
AcDbCircle
 10
0.226683315065849
 20
4.5625
 30
0.0
 40
0.0475
  0
CIRCLE
  5
10040
330
17
100
AcDbEntity
  8
0
100
AcDbCircle
 10
0.226683315065849
 20
4.7125
 30
0.0
 40
0.0475
  0
CIRCLE
  5
10041
330
17
100
AcDbEntity
  8
0
100
AcDbCircle
 10
0.226683315065849
 20
4.8625
 30
0.0
 40
0.0475
  0
CIRCLE
  5
10042
330
17
100
AcDbEntity
  8
0
100
AcDbCircle
 10
0.356587125633515
 20
0.1375
 30
0.0
 40
0.0475
  0
CIRCLE
  5
10043
330
17
100
AcDbEntity
  8
0
100
AcDbCircle
 10
0.356587125633515
 20
0.2875
 30
0.0
 40
0.0475
  0
CIRCLE
  5
10044
330
17
100
AcDbEntity
  8
0
100
AcDbCircle
 10
0.356587125633515
 20
0.4375
 30
0.0
 40
0.0475
  0
CIRCLE
  5
10045
330
17
100
AcDbEntity
  8
0
100
AcDbCircle
 10
0.356587125633515
 20
0.5875
 30
0.0
 40
0.0475
  0
CIRCLE
  5
10046
330
17
100
AcDbEntity
  8
0
100
AcDbCircle
 10
0.356587125633515
 20
0.7375
 30
0.0
 40
0.0475
  0
CIRCLE
  5
10047
330
17
100
AcDbEntity
  8
0
100
AcDbCircle
 10
0.356587125633515
 20
0.8875
 30
0.0
 40
0.0475
  0
CIRCLE
  5
10048
330
17
100
AcDbEntity
  8
0
100
AcDbCircle
 10
0.356587125633515
 20
1.0375
 30
0.0
 40
0.0475
  0
CIRCLE
  5
10049
330
17
100
AcDbEntity
  8
0
100
AcDbCircle
 10
0.356587125633515
 20
1.1875
 30
0.0
 40
0.0475
  0
CIRCLE
  5
1004A
330
17
100
AcDbEntity
  8
0
100
AcDbCircle
 10
0.356587125633515
 20
1.3375
 30
0.0
 40
0.0475
  0
CIRCLE
  5
1004B
330
17
100
AcDbEntity
  8
0
100
AcDbCircle
 10
0.356587125633515
 20
1.4875
 30
0.0
 40
0.0475
  0
CIRCLE
  5
1004C
330
17
100
AcDbEntity
  8
0
100
AcDbCircle
 10
0.356587125633515
 20
1.6375
 30
0.0
 40
0.0475
  0
CIRCLE
  5
1004D
330
17
100
AcDbEntity
  8
0
100
AcDbCircle
 10
0.356587125633515
 20
1.7875
 30
0.0
 40
0.0475
  0
CIRCLE
  5
1004E
330
17
100
AcDbEntity
  8
0
100
AcDbCircle
 10
0.356587125633515
 20
1.9375
 30
0.0
 40
0.0475
  0
CIRCLE
  5
1004F
330
17
100
AcDbEntity
  8
0
100
AcDbCircle
 10
0.356587125633515
 20
2.0875
 30
0.0
 40
0.0475
  0
CIRCLE
  5
10050
330
17
100
AcDbEntity
  8
0
100
AcDbCircle
 10
0.356587125633515
 20
2.2375
 30
0.0
 40
0.0475
  0
CIRCLE
  5
10051
330
17
100
AcDbEntity
  8
0
100
AcDbCircle
 10
0.356587125633515
 20
2.3875
 30
0.0
 40
0.0475
  0
CIRCLE
  5
10052
330
17
100
AcDbEntity
  8
0
100
AcDbCircle
 10
0.356587125633515
 20
2.5375
 30
0.0
 40
0.0475
  0
CIRCLE
  5
10053
330
17
100
AcDbEntity
  8
0
100
AcDbCircle
 10
0.356587125633515
 20
2.6875
 30
0.0
 40
0.0475
  0
CIRCLE
  5
10054
330
17
100
AcDbEntity
  8
0
100
AcDbCircle
 10
0.356587125633515
 20
2.8375
 30
0.0
 40
0.0475
  0
CIRCLE
  5
10055
330
17
100
AcDbEntity
  8
0
100
AcDbCircle
 10
0.356587125633515
 20
2.9875
 30
0.0
 40
0.0475
  0
CIRCLE
  5
10056
330
17
100
AcDbEntity
  8
0
100
AcDbCircle
 10
0.356587125633515
 20
3.1375
 30
0.0
 40
0.0475
  0
CIRCLE
  5
10057
330
17
100
AcDbEntity
  8
0
100
AcDbCircle
 10
0.356587125633515
 20
3.2875
 30
0.0
 40
0.0475
  0
CIRCLE
  5
10058
330
17
100
AcDbEntity
  8
0
100
AcDbCircle
 10
0.356587125633515
 20
3.4375
 30
0.0
 40
0.0475
  0
CIRCLE
  5
10059
330
17
100
AcDbEntity
  8
0
100
AcDbCircle
 10
0.356587125633515
 20
3.5875
 30
0.0
 40
0.0475
  0
CIRCLE
  5
1005A
330
17
100
AcDbEntity
  8
0
100
AcDbCircle
 10
0.356587125633515
 20
3.7375
 30
0.0
 40
0.0475
  0
CIRCLE
  5
1005B
330
17
100
AcDbEntity
  8
0
100
AcDbCircle
 10
0.356587125633515
 20
3.8875
 30
0.0
 40
0.0475
  0
CIRCLE
  5
1005C
330
17
100
AcDbEntity
  8
0
100
AcDbCircle
 10
0.356587125633515
 20
4.0375
 30
0.0
 40
0.0475
  0
CIRCLE
  5
1005D
330
17
100
AcDbEntity
  8
0
100
AcDbCircle
 10
0.356587125633515
 20
4.1875
 30
0.0
 40
0.0475
  0
CIRCLE
  5
1005E
330
17
100
AcDbEntity
  8
0
100
AcDbCircle
 10
0.356587125633515
 20
4.3375
 30
0.0
 40
0.0475
  0
CIRCLE
  5
1005F
330
17
100
AcDbEntity
  8
0
100
AcDbCircle
 10
0.356587125633515
 20
4.4875
 30
0.0
 40
0.0475
  0
CIRCLE
  5
10060
330
17
100
AcDbEntity
  8
0
100
AcDbCircle
 10
0.356587125633515
 20
4.6375
 30
0.0
 40
0.0475
  0
CIRCLE
  5
10061
330
17
100
AcDbEntity
  8
0
100
AcDbCircle
 10
0.356587125633515
 20
4.7875
 30
0.0
 40
0.0475
  0
CIRCLE
  5
10062
330
17
100
AcDbEntity
  8
0
100
AcDbCircle
 10
0.356587125633515
 20
4.9375
 30
0.0
 40
0.0475
  0
CIRCLE
  5
10063
330
17
100
AcDbEntity
  8
0
100
AcDbCircle
 10
0.48649093620118
 20
0.0625000000000001
 30
0.0
 40
0.0475
  0
CIRCLE
  5
10064
330
17
100
AcDbEntity
  8
0
100
AcDbCircle
 10
0.48649093620118
 20
0.2125
 30
0.0
 40
0.0475
  0
CIRCLE
  5
10065
330
17
100
AcDbEntity
  8
0
100
AcDbCircle
 10
0.48649093620118
 20
0.3625
 30
0.0
 40
0.0475
  0
CIRCLE
  5
10066
330
17
100
AcDbEntity
  8
0
100
AcDbCircle
 10
0.48649093620118
 20
0.5125
 30
0.0
 40
0.0475
  0
CIRCLE
  5
10067
330
17
100
AcDbEntity
  8
0
100
AcDbCircle
 10
0.48649093620118
 20
0.6625
 30
0.0
 40
0.0475
  0
CIRCLE
  5
10068
330
17
100
AcDbEntity
  8
0
100
AcDbCircle
 10
0.48649093620118
 20
0.8125
 30
0.0
 40
0.0475
  0
CIRCLE
  5
10069
330
17
100
AcDbEntity
  8
0
100
AcDbCircle
 10
0.48649093620118
 20
0.9625
 30
0.0
 40
0.0475
  0
CIRCLE
  5
1006A
330
17
100
AcDbEntity
  8
0
100
AcDbCircle
 10
0.48649093620118
 20
1.1125
 30
0.0
 40
0.0475
  0
CIRCLE
  5
1006B
330
17
100
AcDbEntity
  8
0
100
AcDbCircle
 10
0.48649093620118
 20
1.2625
 30
0.0
 40
0.0475
  0
CIRCLE
  5
1006C
330
17
100
AcDbEntity
  8
0
100
AcDbCircle
 10
0.48649093620118
 20
1.4125
 30
0.0
 40
0.0475
  0
CIRCLE
  5
1006D
330
17
100
AcDbEntity
  8
0
100
AcDbCircle
 10
0.48649093620118
 20
1.5625
 30
0.0
 40
0.0475
  0
CIRCLE
  5
1006E
330
17
100
AcDbEntity
  8
0
100
AcDbCircle
 10
0.48649093620118
 20
1.7125
 30
0.0
 40
0.0475
  0
CIRCLE
  5
1006F
330
17
100
AcDbEntity
  8
0
100
AcDbCircle
 10
0.48649093620118
 20
1.8625
 30
0.0
 40
0.0475
  0
CIRCLE
  5
10070
330
17
100
AcDbEntity
  8
0
100
AcDbCircle
 10
0.48649093620118
 20
2.0125
 30
0.0
 40
0.0475
  0
CIRCLE
  5
10071
330
17
100
AcDbEntity
  8
0
100
AcDbCircle
 10
0.48649093620118
 20
2.1625
 30
0.0
 40
0.0475
  0
CIRCLE
  5
10072
330
17
100
AcDbEntity
  8
0
100
AcDbCircle
 10
0.48649093620118
 20
2.3125
 30
0.0
 40
0.0475
  0
CIRCLE
  5
10073
330
17
100
AcDbEntity
  8
0
100
AcDbCircle
 10
0.48649093620118
 20
2.4625
 30
0.0
 40
0.0475
  0
CIRCLE
  5
10074
330
17
100
AcDbEntity
  8
0
100
AcDbCircle
 10
0.48649093620118
 20
2.6125
 30
0.0
 40
0.0475
  0
CIRCLE
  5
10075
330
17
100
AcDbEntity
  8
0
100
AcDbCircle
 10
0.48649093620118
 20
2.7625
 30
0.0
 40
0.0475
  0
CIRCLE
  5
10076
330
17
100
AcDbEntity
  8
0
100
AcDbCircle
 10
0.48649093620118
 20
2.9125
 30
0.0
 40
0.0475
  0
CIRCLE
  5
10077
330
17
100
AcDbEntity
  8
0
100
AcDbCircle
 10
0.48649093620118
 20
3.0625
 30
0.0
 40
0.0475
  0
CIRCLE
  5
10078
330
17
100
AcDbEntity
  8
0
100
AcDbCircle
 10
0.48649093620118
 20
3.2125
 30
0.0
 40
0.0475
  0
CIRCLE
  5
10079
330
17
100
AcDbEntity
  8
0
100
AcDbCircle
 10
0.48649093620118
 20
3.3625
 30
0.0
 40
0.0475
  0
CIRCLE
  5
1007A
330
17
100
AcDbEntity
  8
0
100
AcDbCircle
 10
0.48649093620118
 20
3.5125
 30
0.0
 40
0.0475
  0
CIRCLE
  5
1007B
330
17
100
AcDbEntity
  8
0
100
AcDbCircle
 10
0.48649093620118
 20
3.6625
 30
0.0
 40
0.0475
  0
CIRCLE
  5
1007C
330
17
100
AcDbEntity
  8
0
100
AcDbCircle
 10
0.48649093620118
 20
3.8125
 30
0.0
 40
0.0475
  0
CIRCLE
  5
1007D
330
17
100
AcDbEntity
  8
0
100
AcDbCircle
 10
0.48649093620118
 20
3.9625
 30
0.0
 40
0.0475
  0
CIRCLE
  5
1007E
330
17
100
AcDbEntity
  8
0
100
AcDbCircle
 10
0.48649093620118
 20
4.1125
 30
0.0
 40
0.0475
  0
CIRCLE
  5
1007F
330
17
100
AcDbEntity
  8
0
100
AcDbCircle
 10
0.48649093620118
 20
4.2625
 30
0.0
 40
0.0475
  0
CIRCLE
  5
10080
330
17
100
AcDbEntity
  8
0
100
AcDbCircle
 10
0.48649093620118
 20
4.4125
 30
0.0
 40
0.0475
  0
CIRCLE
  5
10081
330
17
100
AcDbEntity
  8
0
100
AcDbCircle
 10
0.48649093620118
 20
4.5625
 30
0.0
 40
0.0475
  0
CIRCLE
  5
10082
330
17
100
AcDbEntity
  8
0
100
AcDbCircle
 10
0.48649093620118
 20
4.7125
 30
0.0
 40
0.0475
  0
CIRCLE
  5
10083
330
17
100
AcDbEntity
  8
0
100
AcDbCircle
 10
0.48649093620118
 20
4.8625
 30
0.0
 40
0.0475
  0
CIRCLE
  5
10084
330
17
100
AcDbEntity
  8
0
100
AcDbCircle
 10
0.616394746768846
 20
0.1375
 30
0.0
 40
0.0475
  0
CIRCLE
  5
10085
330
17
100
AcDbEntity
  8
0
100
AcDbCircle
 10
0.616394746768846
 20
0.2875
 30
0.0
 40
0.0475
  0
CIRCLE
  5
10086
330
17
100
AcDbEntity
  8
0
100
AcDbCircle
 10
0.616394746768846
 20
0.4375
 30
0.0
 40
0.0475
  0
CIRCLE
  5
10087
330
17
100
AcDbEntity
  8
0
100
AcDbCircle
 10
0.616394746768846
 20
0.5875
 30
0.0
 40
0.0475
  0
CIRCLE
  5
10088
330
17
100
AcDbEntity
  8
0
100
AcDbCircle
 10
0.616394746768846
 20
0.7375
 30
0.0
 40
0.0475
  0
CIRCLE
  5
10089
330
17
100
AcDbEntity
  8
0
100
AcDbCircle
 10
0.616394746768846
 20
0.8875
 30
0.0
 40
0.0475
  0
CIRCLE
  5
1008A
330
17
100
AcDbEntity
  8
0
100
AcDbCircle
 10
0.616394746768846
 20
1.0375
 30
0.0
 40
0.0475
  0
CIRCLE
  5
1008B
330
17
100
AcDbEntity
  8
0
100
AcDbCircle
 10
0.616394746768846
 20
1.1875
 30
0.0
 40
0.0475
  0
CIRCLE
  5
1008C
330
17
100
AcDbEntity
  8
0
100
AcDbCircle
 10
0.616394746768846
 20
1.3375
 30
0.0
 40
0.0475
  0
CIRCLE
  5
1008D
330
17
100
AcDbEntity
  8
0
100
AcDbCircle
 10
0.616394746768846
 20
1.4875
 30
0.0
 40
0.0475
  0
CIRCLE
  5
1008E
330
17
100
AcDbEntity
  8
0
100
AcDbCircle
 10
0.616394746768846
 20
1.6375
 30
0.0
 40
0.0475
  0
CIRCLE
  5
1008F
330
17
100
AcDbEntity
  8
0
100
AcDbCircle
 10
0.616394746768846
 20
1.7875
 30
0.0
 40
0.0475
  0
CIRCLE
  5
10090
330
17
100
AcDbEntity
  8
0
100
AcDbCircle
 10
0.616394746768846
 20
1.9375
 30
0.0
 40
0.0475
  0
CIRCLE
  5
10091
330
17
100
AcDbEntity
  8
0
100
AcDbCircle
 10
0.616394746768846
 20
2.0875
 30
0.0
 40
0.0475
  0
CIRCLE
  5
10092
330
17
100
AcDbEntity
  8
0
100
AcDbCircle
 10
0.616394746768846
 20
2.2375
 30
0.0
 40
0.0475
  0
CIRCLE
  5
10093
330
17
100
AcDbEntity
  8
0
100
AcDbCircle
 10
0.616394746768846
 20
2.3875
 30
0.0
 40
0.0475
  0
CIRCLE
  5
10094
330
17
100
AcDbEntity
  8
0
100
AcDbCircle
 10
0.616394746768846
 20
2.5375
 30
0.0
 40
0.0475
  0
CIRCLE
  5
10095
330
17
100
AcDbEntity
  8
0
100
AcDbCircle
 10
0.616394746768846
 20
2.6875
 30
0.0
 40
0.0475
  0
CIRCLE
  5
10096
330
17
100
AcDbEntity
  8
0
100
AcDbCircle
 10
0.616394746768846
 20
2.8375
 30
0.0
 40
0.0475
  0
CIRCLE
  5
10097
330
17
100
AcDbEntity
  8
0
100
AcDbCircle
 10
0.616394746768846
 20
2.9875
 30
0.0
 40
0.0475
  0
CIRCLE
  5
10098
330
17
100
AcDbEntity
  8
0
100
AcDbCircle
 10
0.616394746768846
 20
3.1375
 30
0.0
 40
0.0475
  0
CIRCLE
  5
10099
330
17
100
AcDbEntity
  8
0
100
AcDbCircle
 10
0.616394746768846
 20
3.2875
 30
0.0
 40
0.0475
  0
CIRCLE
  5
1009A
330
17
100
AcDbEntity
  8
0
100
AcDbCircle
 10
0.616394746768846
 20
3.4375
 30
0.0
 40
0.0475
  0
CIRCLE
  5
1009B
330
17
100
AcDbEntity
  8
0
100
AcDbCircle
 10
0.616394746768846
 20
3.5875
 30
0.0
 40
0.0475
  0
CIRCLE
  5
1009C
330
17
100
AcDbEntity
  8
0
100
AcDbCircle
 10
0.616394746768846
 20
3.7375
 30
0.0
 40
0.0475
  0
CIRCLE
  5
1009D
330
17
100
AcDbEntity
  8
0
100
AcDbCircle
 10
0.616394746768846
 20
3.8875
 30
0.0
 40
0.0475
  0
CIRCLE
  5
1009E
330
17
100
AcDbEntity
  8
0
100
AcDbCircle
 10
0.616394746768846
 20
4.0375
 30
0.0
 40
0.0475
  0
CIRCLE
  5
1009F
330
17
100
AcDbEntity
  8
0
100
AcDbCircle
 10
0.616394746768846
 20
4.1875
 30
0.0
 40
0.0475
  0
CIRCLE
  5
100A0
330
17
100
AcDbEntity
  8
0
100
AcDbCircle
 10
0.616394746768846
 20
4.3375
 30
0.0
 40
0.0475
  0
CIRCLE
  5
100A1
330
17
100
AcDbEntity
  8
0
100
AcDbCircle
 10
0.616394746768846
 20
4.4875
 30
0.0
 40
0.0475
  0
CIRCLE
  5
100A2
330
17
100
AcDbEntity
  8
0
100
AcDbCircle
 10
0.616394746768846
 20
4.6375
 30
0.0
 40
0.0475
  0
CIRCLE
  5
100A3
330
17
100
AcDbEntity
  8
0
100
AcDbCircle
 10
0.616394746768846
 20
4.7875
 30
0.0
 40
0.0475
  0
CIRCLE
  5
100A4
330
17
100
AcDbEntity
  8
0
100
AcDbCircle
 10
0.616394746768846
 20
4.9375
 30
0.0
 40
0.0475
  0
CIRCLE
  5
100A5
330
17
100
AcDbEntity
  8
0
100
AcDbCircle
 10
0.746298557336512
 20
0.0625000000000001
 30
0.0
 40
0.0475
  0
CIRCLE
  5
100A6
330
17
100
AcDbEntity
  8
0
100
AcDbCircle
 10
0.746298557336512
 20
0.2125
 30
0.0
 40
0.0475
  0
CIRCLE
  5
100A7
330
17
100
AcDbEntity
  8
0
100
AcDbCircle
 10
0.746298557336512
 20
0.3625
 30
0.0
 40
0.0475
  0
CIRCLE
  5
100A8
330
17
100
AcDbEntity
  8
0
100
AcDbCircle
 10
0.746298557336512
 20
0.5125
 30
0.0
 40
0.0475
  0
CIRCLE
  5
100A9
330
17
100
AcDbEntity
  8
0
100
AcDbCircle
 10
0.746298557336512
 20
0.6625
 30
0.0
 40
0.0475
  0
CIRCLE
  5
100AA
330
17
100
AcDbEntity
  8
0
100
AcDbCircle
 10
0.746298557336512
 20
0.8125
 30
0.0
 40
0.0475
  0
CIRCLE
  5
100AB
330
17
100
AcDbEntity
  8
0
100
AcDbCircle
 10
0.746298557336512
 20
0.9625
 30
0.0
 40
0.0475
  0
CIRCLE
  5
100AC
330
17
100
AcDbEntity
  8
0
100
AcDbCircle
 10
0.746298557336512
 20
1.1125
 30
0.0
 40
0.0475
  0
CIRCLE
  5
100AD
330
17
100
AcDbEntity
  8
0
100
AcDbCircle
 10
0.746298557336512
 20
1.2625
 30
0.0
 40
0.0475
  0
CIRCLE
  5
100AE
330
17
100
AcDbEntity
  8
0
100
AcDbCircle
 10
0.746298557336512
 20
1.4125
 30
0.0
 40
0.0475
  0
CIRCLE
  5
100AF
330
17
100
AcDbEntity
  8
0
100
AcDbCircle
 10
0.746298557336512
 20
1.5625
 30
0.0
 40
0.0475
  0
CIRCLE
  5
100B0
330
17
100
AcDbEntity
  8
0
100
AcDbCircle
 10
0.746298557336512
 20
1.7125
 30
0.0
 40
0.0475
  0
CIRCLE
  5
100B1
330
17
100
AcDbEntity
  8
0
100
AcDbCircle
 10
0.746298557336512
 20
1.8625
 30
0.0
 40
0.0475
  0
CIRCLE
  5
100B2
330
17
100
AcDbEntity
  8
0
100
AcDbCircle
 10
0.746298557336512
 20
2.0125
 30
0.0
 40
0.0475
  0
CIRCLE
  5
100B3
330
17
100
AcDbEntity
  8
0
100
AcDbCircle
 10
0.746298557336512
 20
2.1625
 30
0.0
 40
0.0475
  0
CIRCLE
  5
100B4
330
17
100
AcDbEntity
  8
0
100
AcDbCircle
 10
0.746298557336512
 20
2.3125
 30
0.0
 40
0.0475
  0
CIRCLE
  5
100B5
330
17
100
AcDbEntity
  8
0
100
AcDbCircle
 10
0.746298557336512
 20
2.4625
 30
0.0
 40
0.0475
  0
CIRCLE
  5
100B6
330
17
100
AcDbEntity
  8
0
100
AcDbCircle
 10
0.746298557336512
 20
2.6125
 30
0.0
 40
0.0475
  0
CIRCLE
  5
100B7
330
17
100
AcDbEntity
  8
0
100
AcDbCircle
 10
0.746298557336512
 20
2.7625
 30
0.0
 40
0.0475
  0
CIRCLE
  5
100B8
330
17
100
AcDbEntity
  8
0
100
AcDbCircle
 10
0.746298557336512
 20
2.9125
 30
0.0
 40
0.0475
  0
CIRCLE
  5
100B9
330
17
100
AcDbEntity
  8
0
100
AcDbCircle
 10
0.746298557336512
 20
3.0625
 30
0.0
 40
0.0475
  0
CIRCLE
  5
100BA
330
17
100
AcDbEntity
  8
0
100
AcDbCircle
 10
0.746298557336512
 20
3.2125
 30
0.0
 40
0.0475
  0
CIRCLE
  5
100BB
330
17
100
AcDbEntity
  8
0
100
AcDbCircle
 10
0.746298557336512
 20
3.3625
 30
0.0
 40
0.0475
  0
CIRCLE
  5
100BC
330
17
100
AcDbEntity
  8
0
100
AcDbCircle
 10
0.746298557336512
 20
3.5125
 30
0.0
 40
0.0475
  0
CIRCLE
  5
100BD
330
17
100
AcDbEntity
  8
0
100
AcDbCircle
 10
0.746298557336512
 20
3.6625
 30
0.0
 40
0.0475
  0
CIRCLE
  5
100BE
330
17
100
AcDbEntity
  8
0
100
AcDbCircle
 10
0.746298557336512
 20
3.8125
 30
0.0
 40
0.0475
  0
CIRCLE
  5
100BF
330
17
100
AcDbEntity
  8
0
100
AcDbCircle
 10
0.746298557336512
 20
3.9625
 30
0.0
 40
0.0475
  0
CIRCLE
  5
100C0
330
17
100
AcDbEntity
  8
0
100
AcDbCircle
 10
0.746298557336512
 20
4.1125
 30
0.0
 40
0.0475
  0
CIRCLE
  5
100C1
330
17
100
AcDbEntity
  8
0
100
AcDbCircle
 10
0.746298557336512
 20
4.2625
 30
0.0
 40
0.0475
  0
CIRCLE
  5
100C2
330
17
100
AcDbEntity
  8
0
100
AcDbCircle
 10
0.746298557336512
 20
4.4125
 30
0.0
 40
0.0475
  0
CIRCLE
  5
100C3
330
17
100
AcDbEntity
  8
0
100
AcDbCircle
 10
0.746298557336512
 20
4.5625
 30
0.0
 40
0.0475
  0
CIRCLE
  5
100C4
330
17
100
AcDbEntity
  8
0
100
AcDbCircle
 10
0.746298557336512
 20
4.7125
 30
0.0
 40
0.0475
  0
CIRCLE
  5
100C5
330
17
100
AcDbEntity
  8
0
100
AcDbCircle
 10
0.746298557336512
 20
4.8625
 30
0.0
 40
0.0475
  0
CIRCLE
  5
100C6
330
17
100
AcDbEntity
  8
0
100
AcDbCircle
 10
0.876202367904178
 20
0.1375
 30
0.0
 40
0.0475
  0
CIRCLE
  5
100C7
330
17
100
AcDbEntity
  8
0
100
AcDbCircle
 10
0.876202367904178
 20
0.2875
 30
0.0
 40
0.0475
  0
CIRCLE
  5
100C8
330
17
100
AcDbEntity
  8
0
100
AcDbCircle
 10
0.876202367904178
 20
0.4375
 30
0.0
 40
0.0475
  0
CIRCLE
  5
100C9
330
17
100
AcDbEntity
  8
0
100
AcDbCircle
 10
0.876202367904178
 20
0.5875
 30
0.0
 40
0.0475
  0
CIRCLE
  5
100CA
330
17
100
AcDbEntity
  8
0
100
AcDbCircle
 10
0.876202367904178
 20
0.7375
 30
0.0
 40
0.0475
  0
CIRCLE
  5
100CB
330
17
100
AcDbEntity
  8
0
100
AcDbCircle
 10
0.876202367904178
 20
0.8875
 30
0.0
 40
0.0475
  0
CIRCLE
  5
100CC
330
17
100
AcDbEntity
  8
0
100
AcDbCircle
 10
0.876202367904178
 20
1.0375
 30
0.0
 40
0.0475
  0
CIRCLE
  5
100CD
330
17
100
AcDbEntity
  8
0
100
AcDbCircle
 10
0.876202367904178
 20
1.1875
 30
0.0
 40
0.0475
  0
CIRCLE
  5
100CE
330
17
100
AcDbEntity
  8
0
100
AcDbCircle
 10
0.876202367904178
 20
1.3375
 30
0.0
 40
0.0475
  0
CIRCLE
  5
100CF
330
17
100
AcDbEntity
  8
0
100
AcDbCircle
 10
0.876202367904178
 20
1.4875
 30
0.0
 40
0.0475
  0
CIRCLE
  5
100D0
330
17
100
AcDbEntity
  8
0
100
AcDbCircle
 10
0.876202367904178
 20
1.6375
 30
0.0
 40
0.0475
  0
CIRCLE
  5
100D1
330
17
100
AcDbEntity
  8
0
100
AcDbCircle
 10
0.876202367904178
 20
1.7875
 30
0.0
 40
0.0475
  0
CIRCLE
  5
100D2
330
17
100
AcDbEntity
  8
0
100
AcDbCircle
 10
0.876202367904178
 20
1.9375
 30
0.0
 40
0.0475
  0
CIRCLE
  5
100D3
330
17
100
AcDbEntity
  8
0
100
AcDbCircle
 10
0.876202367904178
 20
2.0875
 30
0.0
 40
0.0475
  0
CIRCLE
  5
100D4
330
17
100
AcDbEntity
  8
0
100
AcDbCircle
 10
0.876202367904178
 20
2.2375
 30
0.0
 40
0.0475
  0
CIRCLE
  5
100D5
330
17
100
AcDbEntity
  8
0
100
AcDbCircle
 10
0.876202367904178
 20
2.3875
 30
0.0
 40
0.0475
  0
CIRCLE
  5
100D6
330
17
100
AcDbEntity
  8
0
100
AcDbCircle
 10
0.876202367904178
 20
2.5375
 30
0.0
 40
0.0475
  0
CIRCLE
  5
100D7
330
17
100
AcDbEntity
  8
0
100
AcDbCircle
 10
0.876202367904178
 20
2.6875
 30
0.0
 40
0.0475
  0
CIRCLE
  5
100D8
330
17
100
AcDbEntity
  8
0
100
AcDbCircle
 10
0.876202367904178
 20
2.8375
 30
0.0
 40
0.0475
  0
CIRCLE
  5
100D9
330
17
100
AcDbEntity
  8
0
100
AcDbCircle
 10
0.876202367904178
 20
2.9875
 30
0.0
 40
0.0475
  0
CIRCLE
  5
100DA
330
17
100
AcDbEntity
  8
0
100
AcDbCircle
 10
0.876202367904178
 20
3.1375
 30
0.0
 40
0.0475
  0
CIRCLE
  5
100DB
330
17
100
AcDbEntity
  8
0
100
AcDbCircle
 10
0.876202367904178
 20
3.2875
 30
0.0
 40
0.0475
  0
CIRCLE
  5
100DC
330
17
100
AcDbEntity
  8
0
100
AcDbCircle
 10
0.876202367904178
 20
3.4375
 30
0.0
 40
0.0475
  0
CIRCLE
  5
100DD
330
17
100
AcDbEntity
  8
0
100
AcDbCircle
 10
0.876202367904178
 20
3.5875
 30
0.0
 40
0.0475
  0
CIRCLE
  5
100DE
330
17
100
AcDbEntity
  8
0
100
AcDbCircle
 10
0.876202367904178
 20
3.7375
 30
0.0
 40
0.0475
  0
CIRCLE
  5
100DF
330
17
100
AcDbEntity
  8
0
100
AcDbCircle
 10
0.876202367904178
 20
3.8875
 30
0.0
 40
0.0475
  0
CIRCLE
  5
100E0
330
17
100
AcDbEntity
  8
0
100
AcDbCircle
 10
0.876202367904178
 20
4.0375
 30
0.0
 40
0.0475
  0
CIRCLE
  5
100E1
330
17
100
AcDbEntity
  8
0
100
AcDbCircle
 10
0.876202367904178
 20
4.1875
 30
0.0
 40
0.0475
  0
CIRCLE
  5
100E2
330
17
100
AcDbEntity
  8
0
100
AcDbCircle
 10
0.876202367904178
 20
4.3375
 30
0.0
 40
0.0475
  0
CIRCLE
  5
100E3
330
17
100
AcDbEntity
  8
0
100
AcDbCircle
 10
0.876202367904178
 20
4.4875
 30
0.0
 40
0.0475
  0
CIRCLE
  5
100E4
330
17
100
AcDbEntity
  8
0
100
AcDbCircle
 10
0.876202367904178
 20
4.6375
 30
0.0
 40
0.0475
  0
CIRCLE
  5
100E5
330
17
100
AcDbEntity
  8
0
100
AcDbCircle
 10
0.876202367904178
 20
4.7875
 30
0.0
 40
0.0475
  0
CIRCLE
  5
100E6
330
17
100
AcDbEntity
  8
0
100
AcDbCircle
 10
0.876202367904178
 20
4.9375
 30
0.0
 40
0.0475
  0
CIRCLE
  5
100E7
330
17
100
AcDbEntity
  8
0
100
AcDbCircle
 10
1.00610617847184
 20
0.0625000000000001
 30
0.0
 40
0.0475
  0
CIRCLE
  5
100E8
330
17
100
AcDbEntity
  8
0
100
AcDbCircle
 10
1.00610617847184
 20
0.2125
 30
0.0
 40
0.0475
  0
CIRCLE
  5
100E9
330
17
100
AcDbEntity
  8
0
100
AcDbCircle
 10
1.00610617847184
 20
0.3625
 30
0.0
 40
0.0475
  0
CIRCLE
  5
100EA
330
17
100
AcDbEntity
  8
0
100
AcDbCircle
 10
1.00610617847184
 20
0.5125
 30
0.0
 40
0.0475
  0
CIRCLE
  5
100EB
330
17
100
AcDbEntity
  8
0
100
AcDbCircle
 10
1.00610617847184
 20
0.6625
 30
0.0
 40
0.0475
  0
CIRCLE
  5
100EC
330
17
100
AcDbEntity
  8
0
100
AcDbCircle
 10
1.00610617847184
 20
0.8125
 30
0.0
 40
0.0475
  0
CIRCLE
  5
100ED
330
17
100
AcDbEntity
  8
0
100
AcDbCircle
 10
1.00610617847184
 20
0.9625
 30
0.0
 40
0.0475
  0
CIRCLE
  5
100EE
330
17
100
AcDbEntity
  8
0
100
AcDbCircle
 10
1.00610617847184
 20
1.1125
 30
0.0
 40
0.0475
  0
CIRCLE
  5
100EF
330
17
100
AcDbEntity
  8
0
100
AcDbCircle
 10
1.00610617847184
 20
1.2625
 30
0.0
 40
0.0475
  0
CIRCLE
  5
100F0
330
17
100
AcDbEntity
  8
0
100
AcDbCircle
 10
1.00610617847184
 20
1.4125
 30
0.0
 40
0.0475
  0
CIRCLE
  5
100F1
330
17
100
AcDbEntity
  8
0
100
AcDbCircle
 10
1.00610617847184
 20
1.5625
 30
0.0
 40
0.0475
  0
CIRCLE
  5
100F2
330
17
100
AcDbEntity
  8
0
100
AcDbCircle
 10
1.00610617847184
 20
1.7125
 30
0.0
 40
0.0475
  0
CIRCLE
  5
100F3
330
17
100
AcDbEntity
  8
0
100
AcDbCircle
 10
1.00610617847184
 20
1.8625
 30
0.0
 40
0.0475
  0
CIRCLE
  5
100F4
330
17
100
AcDbEntity
  8
0
100
AcDbCircle
 10
1.00610617847184
 20
2.0125
 30
0.0
 40
0.0475
  0
CIRCLE
  5
100F5
330
17
100
AcDbEntity
  8
0
100
AcDbCircle
 10
1.00610617847184
 20
2.1625
 30
0.0
 40
0.0475
  0
CIRCLE
  5
100F6
330
17
100
AcDbEntity
  8
0
100
AcDbCircle
 10
1.00610617847184
 20
2.3125
 30
0.0
 40
0.0475
  0
CIRCLE
  5
100F7
330
17
100
AcDbEntity
  8
0
100
AcDbCircle
 10
1.00610617847184
 20
2.4625
 30
0.0
 40
0.0475
  0
CIRCLE
  5
100F8
330
17
100
AcDbEntity
  8
0
100
AcDbCircle
 10
1.00610617847184
 20
2.6125
 30
0.0
 40
0.0475
  0
CIRCLE
  5
100F9
330
17
100
AcDbEntity
  8
0
100
AcDbCircle
 10
1.00610617847184
 20
2.7625
 30
0.0
 40
0.0475
  0
CIRCLE
  5
100FA
330
17
100
AcDbEntity
  8
0
100
AcDbCircle
 10
1.00610617847184
 20
2.9125
 30
0.0
 40
0.0475
  0
CIRCLE
  5
100FB
330
17
100
AcDbEntity
  8
0
100
AcDbCircle
 10
1.00610617847184
 20
3.0625
 30
0.0
 40
0.0475
  0
CIRCLE
  5
100FC
330
17
100
AcDbEntity
  8
0
100
AcDbCircle
 10
1.00610617847184
 20
3.2125
 30
0.0
 40
0.0475
  0
CIRCLE
  5
100FD
330
17
100
AcDbEntity
  8
0
100
AcDbCircle
 10
1.00610617847184
 20
3.3625
 30
0.0
 40
0.0475
  0
CIRCLE
  5
100FE
330
17
100
AcDbEntity
  8
0
100
AcDbCircle
 10
1.00610617847184
 20
3.5125
 30
0.0
 40
0.0475
  0
CIRCLE
  5
100FF
330
17
100
AcDbEntity
  8
0
100
AcDbCircle
 10
1.00610617847184
 20
3.6625
 30
0.0
 40
0.0475
  0
CIRCLE
  5
10100
330
17
100
AcDbEntity
  8
0
100
AcDbCircle
 10
1.00610617847184
 20
3.8125
 30
0.0
 40
0.0475
  0
CIRCLE
  5
10101
330
17
100
AcDbEntity
  8
0
100
AcDbCircle
 10
1.00610617847184
 20
3.9625
 30
0.0
 40
0.0475
  0
CIRCLE
  5
10102
330
17
100
AcDbEntity
  8
0
100
AcDbCircle
 10
1.00610617847184
 20
4.1125
 30
0.0
 40
0.0475
  0
CIRCLE
  5
10103
330
17
100
AcDbEntity
  8
0
100
AcDbCircle
 10
1.00610617847184
 20
4.2625
 30
0.0
 40
0.0475
  0
CIRCLE
  5
10104
330
17
100
AcDbEntity
  8
0
100
AcDbCircle
 10
1.00610617847184
 20
4.4125
 30
0.0
 40
0.0475
  0
CIRCLE
  5
10105
330
17
100
AcDbEntity
  8
0
100
AcDbCircle
 10
1.00610617847184
 20
4.5625
 30
0.0
 40
0.0475
  0
CIRCLE
  5
10106
330
17
100
AcDbEntity
  8
0
100
AcDbCircle
 10
1.00610617847184
 20
4.7125
 30
0.0
 40
0.0475
  0
CIRCLE
  5
10107
330
17
100
AcDbEntity
  8
0
100
AcDbCircle
 10
1.00610617847184
 20
4.8625
 30
0.0
 40
0.0475
  0
CIRCLE
  5
10108
330
17
100
AcDbEntity
  8
0
100
AcDbCircle
 10
1.13600998903951
 20
0.1375
 30
0.0
 40
0.0475
  0
CIRCLE
  5
10109
330
17
100
AcDbEntity
  8
0
100
AcDbCircle
 10
1.13600998903951
 20
0.2875
 30
0.0
 40
0.0475
  0
CIRCLE
  5
1010A
330
17
100
AcDbEntity
  8
0
100
AcDbCircle
 10
1.13600998903951
 20
0.4375
 30
0.0
 40
0.0475
  0
CIRCLE
  5
1010B
330
17
100
AcDbEntity
  8
0
100
AcDbCircle
 10
1.13600998903951
 20
0.5875
 30
0.0
 40
0.0475
  0
CIRCLE
  5
1010C
330
17
100
AcDbEntity
  8
0
100
AcDbCircle
 10
1.13600998903951
 20
0.7375
 30
0.0
 40
0.0475
  0
CIRCLE
  5
1010D
330
17
100
AcDbEntity
  8
0
100
AcDbCircle
 10
1.13600998903951
 20
0.8875
 30
0.0
 40
0.0475
  0
CIRCLE
  5
1010E
330
17
100
AcDbEntity
  8
0
100
AcDbCircle
 10
1.13600998903951
 20
1.0375
 30
0.0
 40
0.0475
  0
CIRCLE
  5
1010F
330
17
100
AcDbEntity
  8
0
100
AcDbCircle
 10
1.13600998903951
 20
1.1875
 30
0.0
 40
0.0475
  0
CIRCLE
  5
10110
330
17
100
AcDbEntity
  8
0
100
AcDbCircle
 10
1.13600998903951
 20
1.3375
 30
0.0
 40
0.0475
  0
CIRCLE
  5
10111
330
17
100
AcDbEntity
  8
0
100
AcDbCircle
 10
1.13600998903951
 20
1.4875
 30
0.0
 40
0.0475
  0
CIRCLE
  5
10112
330
17
100
AcDbEntity
  8
0
100
AcDbCircle
 10
1.13600998903951
 20
1.6375
 30
0.0
 40
0.0475
  0
CIRCLE
  5
10113
330
17
100
AcDbEntity
  8
0
100
AcDbCircle
 10
1.13600998903951
 20
1.7875
 30
0.0
 40
0.0475
  0
CIRCLE
  5
10114
330
17
100
AcDbEntity
  8
0
100
AcDbCircle
 10
1.13600998903951
 20
1.9375
 30
0.0
 40
0.0475
  0
CIRCLE
  5
10115
330
17
100
AcDbEntity
  8
0
100
AcDbCircle
 10
1.13600998903951
 20
2.0875
 30
0.0
 40
0.0475
  0
CIRCLE
  5
10116
330
17
100
AcDbEntity
  8
0
100
AcDbCircle
 10
1.13600998903951
 20
2.2375
 30
0.0
 40
0.0475
  0
CIRCLE
  5
10117
330
17
100
AcDbEntity
  8
0
100
AcDbCircle
 10
1.13600998903951
 20
2.3875
 30
0.0
 40
0.0475
  0
CIRCLE
  5
10118
330
17
100
AcDbEntity
  8
0
100
AcDbCircle
 10
1.13600998903951
 20
2.5375
 30
0.0
 40
0.0475
  0
CIRCLE
  5
10119
330
17
100
AcDbEntity
  8
0
100
AcDbCircle
 10
1.13600998903951
 20
2.6875
 30
0.0
 40
0.0475
  0
CIRCLE
  5
1011A
330
17
100
AcDbEntity
  8
0
100
AcDbCircle
 10
1.13600998903951
 20
2.8375
 30
0.0
 40
0.0475
  0
CIRCLE
  5
1011B
330
17
100
AcDbEntity
  8
0
100
AcDbCircle
 10
1.13600998903951
 20
2.9875
 30
0.0
 40
0.0475
  0
CIRCLE
  5
1011C
330
17
100
AcDbEntity
  8
0
100
AcDbCircle
 10
1.13600998903951
 20
3.1375
 30
0.0
 40
0.0475
  0
CIRCLE
  5
1011D
330
17
100
AcDbEntity
  8
0
100
AcDbCircle
 10
1.13600998903951
 20
3.2875
 30
0.0
 40
0.0475
  0
CIRCLE
  5
1011E
330
17
100
AcDbEntity
  8
0
100
AcDbCircle
 10
1.13600998903951
 20
3.4375
 30
0.0
 40
0.0475
  0
CIRCLE
  5
1011F
330
17
100
AcDbEntity
  8
0
100
AcDbCircle
 10
1.13600998903951
 20
3.5875
 30
0.0
 40
0.0475
  0
CIRCLE
  5
10120
330
17
100
AcDbEntity
  8
0
100
AcDbCircle
 10
1.13600998903951
 20
3.7375
 30
0.0
 40
0.0475
  0
CIRCLE
  5
10121
330
17
100
AcDbEntity
  8
0
100
AcDbCircle
 10
1.13600998903951
 20
3.8875
 30
0.0
 40
0.0475
  0
CIRCLE
  5
10122
330
17
100
AcDbEntity
  8
0
100
AcDbCircle
 10
1.13600998903951
 20
4.0375
 30
0.0
 40
0.0475
  0
CIRCLE
  5
10123
330
17
100
AcDbEntity
  8
0
100
AcDbCircle
 10
1.13600998903951
 20
4.1875
 30
0.0
 40
0.0475
  0
CIRCLE
  5
10124
330
17
100
AcDbEntity
  8
0
100
AcDbCircle
 10
1.13600998903951
 20
4.3375
 30
0.0
 40
0.0475
  0
CIRCLE
  5
10125
330
17
100
AcDbEntity
  8
0
100
AcDbCircle
 10
1.13600998903951
 20
4.4875
 30
0.0
 40
0.0475
  0
CIRCLE
  5
10126
330
17
100
AcDbEntity
  8
0
100
AcDbCircle
 10
1.13600998903951
 20
4.6375
 30
0.0
 40
0.0475
  0
CIRCLE
  5
10127
330
17
100
AcDbEntity
  8
0
100
AcDbCircle
 10
1.13600998903951
 20
4.7875
 30
0.0
 40
0.0475
  0
CIRCLE
  5
10128
330
17
100
AcDbEntity
  8
0
100
AcDbCircle
 10
1.13600998903951
 20
4.9375
 30
0.0
 40
0.0475
  0
CIRCLE
  5
10129
330
17
100
AcDbEntity
  8
0
100
AcDbCircle
 10
1.26591379960718
 20
0.0625000000000001
 30
0.0
 40
0.0475
  0
CIRCLE
  5
1012A
330
17
100
AcDbEntity
  8
0
100
AcDbCircle
 10
1.26591379960718
 20
0.2125
 30
0.0
 40
0.0475
  0
CIRCLE
  5
1012B
330
17
100
AcDbEntity
  8
0
100
AcDbCircle
 10
1.26591379960718
 20
0.3625
 30
0.0
 40
0.0475
  0
CIRCLE
  5
1012C
330
17
100
AcDbEntity
  8
0
100
AcDbCircle
 10
1.26591379960718
 20
0.5125
 30
0.0
 40
0.0475
  0
CIRCLE
  5
1012D
330
17
100
AcDbEntity
  8
0
100
AcDbCircle
 10
1.26591379960718
 20
0.6625
 30
0.0
 40
0.0475
  0
CIRCLE
  5
1012E
330
17
100
AcDbEntity
  8
0
100
AcDbCircle
 10
1.26591379960718
 20
0.8125
 30
0.0
 40
0.0475
  0
CIRCLE
  5
1012F
330
17
100
AcDbEntity
  8
0
100
AcDbCircle
 10
1.26591379960718
 20
0.9625
 30
0.0
 40
0.0475
  0
CIRCLE
  5
10130
330
17
100
AcDbEntity
  8
0
100
AcDbCircle
 10
1.26591379960718
 20
1.1125
 30
0.0
 40
0.0475
  0
CIRCLE
  5
10131
330
17
100
AcDbEntity
  8
0
100
AcDbCircle
 10
1.26591379960718
 20
1.2625
 30
0.0
 40
0.0475
  0
CIRCLE
  5
10132
330
17
100
AcDbEntity
  8
0
100
AcDbCircle
 10
1.26591379960718
 20
1.4125
 30
0.0
 40
0.0475
  0
CIRCLE
  5
10133
330
17
100
AcDbEntity
  8
0
100
AcDbCircle
 10
1.26591379960718
 20
1.5625
 30
0.0
 40
0.0475
  0
CIRCLE
  5
10134
330
17
100
AcDbEntity
  8
0
100
AcDbCircle
 10
1.26591379960718
 20
1.7125
 30
0.0
 40
0.0475
  0
CIRCLE
  5
10135
330
17
100
AcDbEntity
  8
0
100
AcDbCircle
 10
1.26591379960718
 20
1.8625
 30
0.0
 40
0.0475
  0
CIRCLE
  5
10136
330
17
100
AcDbEntity
  8
0
100
AcDbCircle
 10
1.26591379960718
 20
2.0125
 30
0.0
 40
0.0475
  0
CIRCLE
  5
10137
330
17
100
AcDbEntity
  8
0
100
AcDbCircle
 10
1.26591379960718
 20
2.1625
 30
0.0
 40
0.0475
  0
CIRCLE
  5
10138
330
17
100
AcDbEntity
  8
0
100
AcDbCircle
 10
1.26591379960718
 20
2.3125
 30
0.0
 40
0.0475
  0
CIRCLE
  5
10139
330
17
100
AcDbEntity
  8
0
100
AcDbCircle
 10
1.26591379960718
 20
2.4625
 30
0.0
 40
0.0475
  0
CIRCLE
  5
1013A
330
17
100
AcDbEntity
  8
0
100
AcDbCircle
 10
1.26591379960718
 20
2.6125
 30
0.0
 40
0.0475
  0
CIRCLE
  5
1013B
330
17
100
AcDbEntity
  8
0
100
AcDbCircle
 10
1.26591379960718
 20
2.7625
 30
0.0
 40
0.0475
  0
CIRCLE
  5
1013C
330
17
100
AcDbEntity
  8
0
100
AcDbCircle
 10
1.26591379960718
 20
2.9125
 30
0.0
 40
0.0475
  0
CIRCLE
  5
1013D
330
17
100
AcDbEntity
  8
0
100
AcDbCircle
 10
1.26591379960718
 20
3.0625
 30
0.0
 40
0.0475
  0
CIRCLE
  5
1013E
330
17
100
AcDbEntity
  8
0
100
AcDbCircle
 10
1.26591379960718
 20
3.2125
 30
0.0
 40
0.0475
  0
CIRCLE
  5
1013F
330
17
100
AcDbEntity
  8
0
100
AcDbCircle
 10
1.26591379960718
 20
3.3625
 30
0.0
 40
0.0475
  0
CIRCLE
  5
10140
330
17
100
AcDbEntity
  8
0
100
AcDbCircle
 10
1.26591379960718
 20
3.5125
 30
0.0
 40
0.0475
  0
CIRCLE
  5
10141
330
17
100
AcDbEntity
  8
0
100
AcDbCircle
 10
1.26591379960718
 20
3.6625
 30
0.0
 40
0.0475
  0
CIRCLE
  5
10142
330
17
100
AcDbEntity
  8
0
100
AcDbCircle
 10
1.26591379960718
 20
3.8125
 30
0.0
 40
0.0475
  0
CIRCLE
  5
10143
330
17
100
AcDbEntity
  8
0
100
AcDbCircle
 10
1.26591379960718
 20
3.9625
 30
0.0
 40
0.0475
  0
CIRCLE
  5
10144
330
17
100
AcDbEntity
  8
0
100
AcDbCircle
 10
1.26591379960718
 20
4.1125
 30
0.0
 40
0.0475
  0
CIRCLE
  5
10145
330
17
100
AcDbEntity
  8
0
100
AcDbCircle
 10
1.26591379960718
 20
4.2625
 30
0.0
 40
0.0475
  0
CIRCLE
  5
10146
330
17
100
AcDbEntity
  8
0
100
AcDbCircle
 10
1.26591379960718
 20
4.4125
 30
0.0
 40
0.0475
  0
CIRCLE
  5
10147
330
17
100
AcDbEntity
  8
0
100
AcDbCircle
 10
1.26591379960718
 20
4.5625
 30
0.0
 40
0.0475
  0
CIRCLE
  5
10148
330
17
100
AcDbEntity
  8
0
100
AcDbCircle
 10
1.26591379960718
 20
4.7125
 30
0.0
 40
0.0475
  0
CIRCLE
  5
10149
330
17
100
AcDbEntity
  8
0
100
AcDbCircle
 10
1.26591379960718
 20
4.8625
 30
0.0
 40
0.0475
  0
CIRCLE
  5
1014A
330
17
100
AcDbEntity
  8
0
100
AcDbCircle
 10
1.39581761017484
 20
0.1375
 30
0.0
 40
0.0475
  0
CIRCLE
  5
1014B
330
17
100
AcDbEntity
  8
0
100
AcDbCircle
 10
1.39581761017484
 20
0.2875
 30
0.0
 40
0.0475
  0
CIRCLE
  5
1014C
330
17
100
AcDbEntity
  8
0
100
AcDbCircle
 10
1.39581761017484
 20
0.4375
 30
0.0
 40
0.0475
  0
CIRCLE
  5
1014D
330
17
100
AcDbEntity
  8
0
100
AcDbCircle
 10
1.39581761017484
 20
0.5875
 30
0.0
 40
0.0475
  0
CIRCLE
  5
1014E
330
17
100
AcDbEntity
  8
0
100
AcDbCircle
 10
1.39581761017484
 20
0.7375
 30
0.0
 40
0.0475
  0
CIRCLE
  5
1014F
330
17
100
AcDbEntity
  8
0
100
AcDbCircle
 10
1.39581761017484
 20
0.8875
 30
0.0
 40
0.0475
  0
CIRCLE
  5
10150
330
17
100
AcDbEntity
  8
0
100
AcDbCircle
 10
1.39581761017484
 20
1.0375
 30
0.0
 40
0.0475
  0
CIRCLE
  5
10151
330
17
100
AcDbEntity
  8
0
100
AcDbCircle
 10
1.39581761017484
 20
1.1875
 30
0.0
 40
0.0475
  0
CIRCLE
  5
10152
330
17
100
AcDbEntity
  8
0
100
AcDbCircle
 10
1.39581761017484
 20
1.3375
 30
0.0
 40
0.0475
  0
CIRCLE
  5
10153
330
17
100
AcDbEntity
  8
0
100
AcDbCircle
 10
1.39581761017484
 20
1.4875
 30
0.0
 40
0.0475
  0
CIRCLE
  5
10154
330
17
100
AcDbEntity
  8
0
100
AcDbCircle
 10
1.39581761017484
 20
1.6375
 30
0.0
 40
0.0475
  0
CIRCLE
  5
10155
330
17
100
AcDbEntity
  8
0
100
AcDbCircle
 10
1.39581761017484
 20
1.7875
 30
0.0
 40
0.0475
  0
CIRCLE
  5
10156
330
17
100
AcDbEntity
  8
0
100
AcDbCircle
 10
1.39581761017484
 20
1.9375
 30
0.0
 40
0.0475
  0
CIRCLE
  5
10157
330
17
100
AcDbEntity
  8
0
100
AcDbCircle
 10
1.39581761017484
 20
2.0875
 30
0.0
 40
0.0475
  0
CIRCLE
  5
10158
330
17
100
AcDbEntity
  8
0
100
AcDbCircle
 10
1.39581761017484
 20
2.2375
 30
0.0
 40
0.0475
  0
CIRCLE
  5
10159
330
17
100
AcDbEntity
  8
0
100
AcDbCircle
 10
1.39581761017484
 20
2.3875
 30
0.0
 40
0.0475
  0
CIRCLE
  5
1015A
330
17
100
AcDbEntity
  8
0
100
AcDbCircle
 10
1.39581761017484
 20
2.5375
 30
0.0
 40
0.0475
  0
CIRCLE
  5
1015B
330
17
100
AcDbEntity
  8
0
100
AcDbCircle
 10
1.39581761017484
 20
2.6875
 30
0.0
 40
0.0475
  0
CIRCLE
  5
1015C
330
17
100
AcDbEntity
  8
0
100
AcDbCircle
 10
1.39581761017484
 20
2.8375
 30
0.0
 40
0.0475
  0
CIRCLE
  5
1015D
330
17
100
AcDbEntity
  8
0
100
AcDbCircle
 10
1.39581761017484
 20
2.9875
 30
0.0
 40
0.0475
  0
CIRCLE
  5
1015E
330
17
100
AcDbEntity
  8
0
100
AcDbCircle
 10
1.39581761017484
 20
3.1375
 30
0.0
 40
0.0475
  0
CIRCLE
  5
1015F
330
17
100
AcDbEntity
  8
0
100
AcDbCircle
 10
1.39581761017484
 20
3.2875
 30
0.0
 40
0.0475
  0
CIRCLE
  5
10160
330
17
100
AcDbEntity
  8
0
100
AcDbCircle
 10
1.39581761017484
 20
3.4375
 30
0.0
 40
0.0475
  0
CIRCLE
  5
10161
330
17
100
AcDbEntity
  8
0
100
AcDbCircle
 10
1.39581761017484
 20
3.5875
 30
0.0
 40
0.0475
  0
CIRCLE
  5
10162
330
17
100
AcDbEntity
  8
0
100
AcDbCircle
 10
1.39581761017484
 20
3.7375
 30
0.0
 40
0.0475
  0
CIRCLE
  5
10163
330
17
100
AcDbEntity
  8
0
100
AcDbCircle
 10
1.39581761017484
 20
3.8875
 30
0.0
 40
0.0475
  0
CIRCLE
  5
10164
330
17
100
AcDbEntity
  8
0
100
AcDbCircle
 10
1.39581761017484
 20
4.0375
 30
0.0
 40
0.0475
  0
CIRCLE
  5
10165
330
17
100
AcDbEntity
  8
0
100
AcDbCircle
 10
1.39581761017484
 20
4.1875
 30
0.0
 40
0.0475
  0
CIRCLE
  5
10166
330
17
100
AcDbEntity
  8
0
100
AcDbCircle
 10
1.39581761017484
 20
4.3375
 30
0.0
 40
0.0475
  0
CIRCLE
  5
10167
330
17
100
AcDbEntity
  8
0
100
AcDbCircle
 10
1.39581761017484
 20
4.4875
 30
0.0
 40
0.0475
  0
CIRCLE
  5
10168
330
17
100
AcDbEntity
  8
0
100
AcDbCircle
 10
1.39581761017484
 20
4.6375
 30
0.0
 40
0.0475
  0
CIRCLE
  5
10169
330
17
100
AcDbEntity
  8
0
100
AcDbCircle
 10
1.39581761017484
 20
4.7875
 30
0.0
 40
0.0475
  0
CIRCLE
  5
1016A
330
17
100
AcDbEntity
  8
0
100
AcDbCircle
 10
1.39581761017484
 20
4.9375
 30
0.0
 40
0.0475
  0
CIRCLE
  5
1016B
330
17
100
AcDbEntity
  8
0
100
AcDbCircle
 10
1.52572142074251
 20
0.0625000000000001
 30
0.0
 40
0.0475
  0
CIRCLE
  5
1016C
330
17
100
AcDbEntity
  8
0
100
AcDbCircle
 10
1.52572142074251
 20
0.2125
 30
0.0
 40
0.0475
  0
CIRCLE
  5
1016D
330
17
100
AcDbEntity
  8
0
100
AcDbCircle
 10
1.52572142074251
 20
0.3625
 30
0.0
 40
0.0475
  0
CIRCLE
  5
1016E
330
17
100
AcDbEntity
  8
0
100
AcDbCircle
 10
1.52572142074251
 20
0.5125
 30
0.0
 40
0.0475
  0
CIRCLE
  5
1016F
330
17
100
AcDbEntity
  8
0
100
AcDbCircle
 10
1.52572142074251
 20
0.6625
 30
0.0
 40
0.0475
  0
CIRCLE
  5
10170
330
17
100
AcDbEntity
  8
0
100
AcDbCircle
 10
1.52572142074251
 20
0.8125
 30
0.0
 40
0.0475
  0
CIRCLE
  5
10171
330
17
100
AcDbEntity
  8
0
100
AcDbCircle
 10
1.52572142074251
 20
0.9625
 30
0.0
 40
0.0475
  0
CIRCLE
  5
10172
330
17
100
AcDbEntity
  8
0
100
AcDbCircle
 10
1.52572142074251
 20
1.1125
 30
0.0
 40
0.0475
  0
CIRCLE
  5
10173
330
17
100
AcDbEntity
  8
0
100
AcDbCircle
 10
1.52572142074251
 20
1.2625
 30
0.0
 40
0.0475
  0
CIRCLE
  5
10174
330
17
100
AcDbEntity
  8
0
100
AcDbCircle
 10
1.52572142074251
 20
1.4125
 30
0.0
 40
0.0475
  0
CIRCLE
  5
10175
330
17
100
AcDbEntity
  8
0
100
AcDbCircle
 10
1.52572142074251
 20
1.5625
 30
0.0
 40
0.0475
  0
CIRCLE
  5
10176
330
17
100
AcDbEntity
  8
0
100
AcDbCircle
 10
1.52572142074251
 20
1.7125
 30
0.0
 40
0.0475
  0
CIRCLE
  5
10177
330
17
100
AcDbEntity
  8
0
100
AcDbCircle
 10
1.52572142074251
 20
1.8625
 30
0.0
 40
0.0475
  0
CIRCLE
  5
10178
330
17
100
AcDbEntity
  8
0
100
AcDbCircle
 10
1.52572142074251
 20
2.0125
 30
0.0
 40
0.0475
  0
CIRCLE
  5
10179
330
17
100
AcDbEntity
  8
0
100
AcDbCircle
 10
1.52572142074251
 20
2.1625
 30
0.0
 40
0.0475
  0
CIRCLE
  5
1017A
330
17
100
AcDbEntity
  8
0
100
AcDbCircle
 10
1.52572142074251
 20
2.3125
 30
0.0
 40
0.0475
  0
CIRCLE
  5
1017B
330
17
100
AcDbEntity
  8
0
100
AcDbCircle
 10
1.52572142074251
 20
2.4625
 30
0.0
 40
0.0475
  0
CIRCLE
  5
1017C
330
17
100
AcDbEntity
  8
0
100
AcDbCircle
 10
1.52572142074251
 20
2.6125
 30
0.0
 40
0.0475
  0
CIRCLE
  5
1017D
330
17
100
AcDbEntity
  8
0
100
AcDbCircle
 10
1.52572142074251
 20
2.7625
 30
0.0
 40
0.0475
  0
CIRCLE
  5
1017E
330
17
100
AcDbEntity
  8
0
100
AcDbCircle
 10
1.52572142074251
 20
2.9125
 30
0.0
 40
0.0475
  0
CIRCLE
  5
1017F
330
17
100
AcDbEntity
  8
0
100
AcDbCircle
 10
1.52572142074251
 20
3.0625
 30
0.0
 40
0.0475
  0
CIRCLE
  5
10180
330
17
100
AcDbEntity
  8
0
100
AcDbCircle
 10
1.52572142074251
 20
3.2125
 30
0.0
 40
0.0475
  0
CIRCLE
  5
10181
330
17
100
AcDbEntity
  8
0
100
AcDbCircle
 10
1.52572142074251
 20
3.3625
 30
0.0
 40
0.0475
  0
CIRCLE
  5
10182
330
17
100
AcDbEntity
  8
0
100
AcDbCircle
 10
1.52572142074251
 20
3.5125
 30
0.0
 40
0.0475
  0
CIRCLE
  5
10183
330
17
100
AcDbEntity
  8
0
100
AcDbCircle
 10
1.52572142074251
 20
3.6625
 30
0.0
 40
0.0475
  0
CIRCLE
  5
10184
330
17
100
AcDbEntity
  8
0
100
AcDbCircle
 10
1.52572142074251
 20
3.8125
 30
0.0
 40
0.0475
  0
CIRCLE
  5
10185
330
17
100
AcDbEntity
  8
0
100
AcDbCircle
 10
1.52572142074251
 20
3.9625
 30
0.0
 40
0.0475
  0
CIRCLE
  5
10186
330
17
100
AcDbEntity
  8
0
100
AcDbCircle
 10
1.52572142074251
 20
4.1125
 30
0.0
 40
0.0475
  0
CIRCLE
  5
10187
330
17
100
AcDbEntity
  8
0
100
AcDbCircle
 10
1.52572142074251
 20
4.2625
 30
0.0
 40
0.0475
  0
CIRCLE
  5
10188
330
17
100
AcDbEntity
  8
0
100
AcDbCircle
 10
1.52572142074251
 20
4.4125
 30
0.0
 40
0.0475
  0
CIRCLE
  5
10189
330
17
100
AcDbEntity
  8
0
100
AcDbCircle
 10
1.52572142074251
 20
4.5625
 30
0.0
 40
0.0475
  0
CIRCLE
  5
1018A
330
17
100
AcDbEntity
  8
0
100
AcDbCircle
 10
1.52572142074251
 20
4.7125
 30
0.0
 40
0.0475
  0
CIRCLE
  5
1018B
330
17
100
AcDbEntity
  8
0
100
AcDbCircle
 10
1.52572142074251
 20
4.8625
 30
0.0
 40
0.0475
  0
CIRCLE
  5
1018C
330
17
100
AcDbEntity
  8
0
100
AcDbCircle
 10
1.65562523131017
 20
0.1375
 30
0.0
 40
0.0475
  0
CIRCLE
  5
1018D
330
17
100
AcDbEntity
  8
0
100
AcDbCircle
 10
1.65562523131017
 20
0.2875
 30
0.0
 40
0.0475
  0
CIRCLE
  5
1018E
330
17
100
AcDbEntity
  8
0
100
AcDbCircle
 10
1.65562523131017
 20
0.4375
 30
0.0
 40
0.0475
  0
CIRCLE
  5
1018F
330
17
100
AcDbEntity
  8
0
100
AcDbCircle
 10
1.65562523131017
 20
0.5875
 30
0.0
 40
0.0475
  0
CIRCLE
  5
10190
330
17
100
AcDbEntity
  8
0
100
AcDbCircle
 10
1.65562523131017
 20
0.7375
 30
0.0
 40
0.0475
  0
CIRCLE
  5
10191
330
17
100
AcDbEntity
  8
0
100
AcDbCircle
 10
1.65562523131017
 20
0.8875
 30
0.0
 40
0.0475
  0
CIRCLE
  5
10192
330
17
100
AcDbEntity
  8
0
100
AcDbCircle
 10
1.65562523131017
 20
1.0375
 30
0.0
 40
0.0475
  0
CIRCLE
  5
10193
330
17
100
AcDbEntity
  8
0
100
AcDbCircle
 10
1.65562523131017
 20
1.1875
 30
0.0
 40
0.0475
  0
CIRCLE
  5
10194
330
17
100
AcDbEntity
  8
0
100
AcDbCircle
 10
1.65562523131017
 20
1.3375
 30
0.0
 40
0.0475
  0
CIRCLE
  5
10195
330
17
100
AcDbEntity
  8
0
100
AcDbCircle
 10
1.65562523131017
 20
1.4875
 30
0.0
 40
0.0475
  0
CIRCLE
  5
10196
330
17
100
AcDbEntity
  8
0
100
AcDbCircle
 10
1.65562523131017
 20
1.6375
 30
0.0
 40
0.0475
  0
CIRCLE
  5
10197
330
17
100
AcDbEntity
  8
0
100
AcDbCircle
 10
1.65562523131017
 20
1.7875
 30
0.0
 40
0.0475
  0
CIRCLE
  5
10198
330
17
100
AcDbEntity
  8
0
100
AcDbCircle
 10
1.65562523131017
 20
1.9375
 30
0.0
 40
0.0475
  0
CIRCLE
  5
10199
330
17
100
AcDbEntity
  8
0
100
AcDbCircle
 10
1.65562523131017
 20
2.0875
 30
0.0
 40
0.0475
  0
CIRCLE
  5
1019A
330
17
100
AcDbEntity
  8
0
100
AcDbCircle
 10
1.65562523131017
 20
2.2375
 30
0.0
 40
0.0475
  0
CIRCLE
  5
1019B
330
17
100
AcDbEntity
  8
0
100
AcDbCircle
 10
1.65562523131017
 20
2.3875
 30
0.0
 40
0.0475
  0
CIRCLE
  5
1019C
330
17
100
AcDbEntity
  8
0
100
AcDbCircle
 10
1.65562523131017
 20
2.5375
 30
0.0
 40
0.0475
  0
CIRCLE
  5
1019D
330
17
100
AcDbEntity
  8
0
100
AcDbCircle
 10
1.65562523131017
 20
2.6875
 30
0.0
 40
0.0475
  0
CIRCLE
  5
1019E
330
17
100
AcDbEntity
  8
0
100
AcDbCircle
 10
1.65562523131017
 20
2.8375
 30
0.0
 40
0.0475
  0
CIRCLE
  5
1019F
330
17
100
AcDbEntity
  8
0
100
AcDbCircle
 10
1.65562523131017
 20
2.9875
 30
0.0
 40
0.0475
  0
CIRCLE
  5
101A0
330
17
100
AcDbEntity
  8
0
100
AcDbCircle
 10
1.65562523131017
 20
3.1375
 30
0.0
 40
0.0475
  0
CIRCLE
  5
101A1
330
17
100
AcDbEntity
  8
0
100
AcDbCircle
 10
1.65562523131017
 20
3.2875
 30
0.0
 40
0.0475
  0
CIRCLE
  5
101A2
330
17
100
AcDbEntity
  8
0
100
AcDbCircle
 10
1.65562523131017
 20
3.4375
 30
0.0
 40
0.0475
  0
CIRCLE
  5
101A3
330
17
100
AcDbEntity
  8
0
100
AcDbCircle
 10
1.65562523131017
 20
3.5875
 30
0.0
 40
0.0475
  0
CIRCLE
  5
101A4
330
17
100
AcDbEntity
  8
0
100
AcDbCircle
 10
1.65562523131017
 20
3.7375
 30
0.0
 40
0.0475
  0
CIRCLE
  5
101A5
330
17
100
AcDbEntity
  8
0
100
AcDbCircle
 10
1.65562523131017
 20
3.8875
 30
0.0
 40
0.0475
  0
CIRCLE
  5
101A6
330
17
100
AcDbEntity
  8
0
100
AcDbCircle
 10
1.65562523131017
 20
4.0375
 30
0.0
 40
0.0475
  0
CIRCLE
  5
101A7
330
17
100
AcDbEntity
  8
0
100
AcDbCircle
 10
1.65562523131017
 20
4.1875
 30
0.0
 40
0.0475
  0
CIRCLE
  5
101A8
330
17
100
AcDbEntity
  8
0
100
AcDbCircle
 10
1.65562523131017
 20
4.3375
 30
0.0
 40
0.0475
  0
CIRCLE
  5
101A9
330
17
100
AcDbEntity
  8
0
100
AcDbCircle
 10
1.65562523131017
 20
4.4875
 30
0.0
 40
0.0475
  0
CIRCLE
  5
101AA
330
17
100
AcDbEntity
  8
0
100
AcDbCircle
 10
1.65562523131017
 20
4.6375
 30
0.0
 40
0.0475
  0
CIRCLE
  5
101AB
330
17
100
AcDbEntity
  8
0
100
AcDbCircle
 10
1.65562523131017
 20
4.7875
 30
0.0
 40
0.0475
  0
CIRCLE
  5
101AC
330
17
100
AcDbEntity
  8
0
100
AcDbCircle
 10
1.65562523131017
 20
4.9375
 30
0.0
 40
0.0475
  0
CIRCLE
  5
101AD
330
17
100
AcDbEntity
  8
0
100
AcDbCircle
 10
1.78552904187784
 20
0.0625000000000001
 30
0.0
 40
0.0475
  0
CIRCLE
  5
101AE
330
17
100
AcDbEntity
  8
0
100
AcDbCircle
 10
1.78552904187784
 20
0.2125
 30
0.0
 40
0.0475
  0
CIRCLE
  5
101AF
330
17
100
AcDbEntity
  8
0
100
AcDbCircle
 10
1.78552904187784
 20
0.3625
 30
0.0
 40
0.0475
  0
CIRCLE
  5
101B0
330
17
100
AcDbEntity
  8
0
100
AcDbCircle
 10
1.78552904187784
 20
0.5125
 30
0.0
 40
0.0475
  0
CIRCLE
  5
101B1
330
17
100
AcDbEntity
  8
0
100
AcDbCircle
 10
1.78552904187784
 20
0.6625
 30
0.0
 40
0.0475
  0
CIRCLE
  5
101B2
330
17
100
AcDbEntity
  8
0
100
AcDbCircle
 10
1.78552904187784
 20
0.8125
 30
0.0
 40
0.0475
  0
CIRCLE
  5
101B3
330
17
100
AcDbEntity
  8
0
100
AcDbCircle
 10
1.78552904187784
 20
0.9625
 30
0.0
 40
0.0475
  0
CIRCLE
  5
101B4
330
17
100
AcDbEntity
  8
0
100
AcDbCircle
 10
1.78552904187784
 20
1.1125
 30
0.0
 40
0.0475
  0
CIRCLE
  5
101B5
330
17
100
AcDbEntity
  8
0
100
AcDbCircle
 10
1.78552904187784
 20
1.2625
 30
0.0
 40
0.0475
  0
CIRCLE
  5
101B6
330
17
100
AcDbEntity
  8
0
100
AcDbCircle
 10
1.78552904187784
 20
1.4125
 30
0.0
 40
0.0475
  0
CIRCLE
  5
101B7
330
17
100
AcDbEntity
  8
0
100
AcDbCircle
 10
1.78552904187784
 20
1.5625
 30
0.0
 40
0.0475
  0
CIRCLE
  5
101B8
330
17
100
AcDbEntity
  8
0
100
AcDbCircle
 10
1.78552904187784
 20
1.7125
 30
0.0
 40
0.0475
  0
CIRCLE
  5
101B9
330
17
100
AcDbEntity
  8
0
100
AcDbCircle
 10
1.78552904187784
 20
1.8625
 30
0.0
 40
0.0475
  0
CIRCLE
  5
101BA
330
17
100
AcDbEntity
  8
0
100
AcDbCircle
 10
1.78552904187784
 20
2.0125
 30
0.0
 40
0.0475
  0
CIRCLE
  5
101BB
330
17
100
AcDbEntity
  8
0
100
AcDbCircle
 10
1.78552904187784
 20
2.1625
 30
0.0
 40
0.0475
  0
CIRCLE
  5
101BC
330
17
100
AcDbEntity
  8
0
100
AcDbCircle
 10
1.78552904187784
 20
2.3125
 30
0.0
 40
0.0475
  0
CIRCLE
  5
101BD
330
17
100
AcDbEntity
  8
0
100
AcDbCircle
 10
1.78552904187784
 20
2.4625
 30
0.0
 40
0.0475
  0
CIRCLE
  5
101BE
330
17
100
AcDbEntity
  8
0
100
AcDbCircle
 10
1.78552904187784
 20
2.6125
 30
0.0
 40
0.0475
  0
CIRCLE
  5
101BF
330
17
100
AcDbEntity
  8
0
100
AcDbCircle
 10
1.78552904187784
 20
2.7625
 30
0.0
 40
0.0475
  0
CIRCLE
  5
101C0
330
17
100
AcDbEntity
  8
0
100
AcDbCircle
 10
1.78552904187784
 20
2.9125
 30
0.0
 40
0.0475
  0
CIRCLE
  5
101C1
330
17
100
AcDbEntity
  8
0
100
AcDbCircle
 10
1.78552904187784
 20
3.0625
 30
0.0
 40
0.0475
  0
CIRCLE
  5
101C2
330
17
100
AcDbEntity
  8
0
100
AcDbCircle
 10
1.78552904187784
 20
3.2125
 30
0.0
 40
0.0475
  0
CIRCLE
  5
101C3
330
17
100
AcDbEntity
  8
0
100
AcDbCircle
 10
1.78552904187784
 20
3.3625
 30
0.0
 40
0.0475
  0
CIRCLE
  5
101C4
330
17
100
AcDbEntity
  8
0
100
AcDbCircle
 10
1.78552904187784
 20
3.5125
 30
0.0
 40
0.0475
  0
CIRCLE
  5
101C5
330
17
100
AcDbEntity
  8
0
100
AcDbCircle
 10
1.78552904187784
 20
3.6625
 30
0.0
 40
0.0475
  0
CIRCLE
  5
101C6
330
17
100
AcDbEntity
  8
0
100
AcDbCircle
 10
1.78552904187784
 20
3.8125
 30
0.0
 40
0.0475
  0
CIRCLE
  5
101C7
330
17
100
AcDbEntity
  8
0
100
AcDbCircle
 10
1.78552904187784
 20
3.9625
 30
0.0
 40
0.0475
  0
CIRCLE
  5
101C8
330
17
100
AcDbEntity
  8
0
100
AcDbCircle
 10
1.78552904187784
 20
4.1125
 30
0.0
 40
0.0475
  0
CIRCLE
  5
101C9
330
17
100
AcDbEntity
  8
0
100
AcDbCircle
 10
1.78552904187784
 20
4.2625
 30
0.0
 40
0.0475
  0
CIRCLE
  5
101CA
330
17
100
AcDbEntity
  8
0
100
AcDbCircle
 10
1.78552904187784
 20
4.4125
 30
0.0
 40
0.0475
  0
CIRCLE
  5
101CB
330
17
100
AcDbEntity
  8
0
100
AcDbCircle
 10
1.78552904187784
 20
4.5625
 30
0.0
 40
0.0475
  0
CIRCLE
  5
101CC
330
17
100
AcDbEntity
  8
0
100
AcDbCircle
 10
1.78552904187784
 20
4.7125
 30
0.0
 40
0.0475
  0
CIRCLE
  5
101CD
330
17
100
AcDbEntity
  8
0
100
AcDbCircle
 10
1.78552904187784
 20
4.8625
 30
0.0
 40
0.0475
  0
CIRCLE
  5
101CE
330
17
100
AcDbEntity
  8
0
100
AcDbCircle
 10
1.9154328524455
 20
0.1375
 30
0.0
 40
0.0475
  0
CIRCLE
  5
101CF
330
17
100
AcDbEntity
  8
0
100
AcDbCircle
 10
1.9154328524455
 20
0.2875
 30
0.0
 40
0.0475
  0
CIRCLE
  5
101D0
330
17
100
AcDbEntity
  8
0
100
AcDbCircle
 10
1.9154328524455
 20
0.4375
 30
0.0
 40
0.0475
  0
CIRCLE
  5
101D1
330
17
100
AcDbEntity
  8
0
100
AcDbCircle
 10
1.9154328524455
 20
0.5875
 30
0.0
 40
0.0475
  0
CIRCLE
  5
101D2
330
17
100
AcDbEntity
  8
0
100
AcDbCircle
 10
1.9154328524455
 20
0.7375
 30
0.0
 40
0.0475
  0
CIRCLE
  5
101D3
330
17
100
AcDbEntity
  8
0
100
AcDbCircle
 10
1.9154328524455
 20
0.8875
 30
0.0
 40
0.0475
  0
CIRCLE
  5
101D4
330
17
100
AcDbEntity
  8
0
100
AcDbCircle
 10
1.9154328524455
 20
1.0375
 30
0.0
 40
0.0475
  0
CIRCLE
  5
101D5
330
17
100
AcDbEntity
  8
0
100
AcDbCircle
 10
1.9154328524455
 20
1.1875
 30
0.0
 40
0.0475
  0
CIRCLE
  5
101D6
330
17
100
AcDbEntity
  8
0
100
AcDbCircle
 10
1.9154328524455
 20
1.3375
 30
0.0
 40
0.0475
  0
CIRCLE
  5
101D7
330
17
100
AcDbEntity
  8
0
100
AcDbCircle
 10
1.9154328524455
 20
1.4875
 30
0.0
 40
0.0475
  0
CIRCLE
  5
101D8
330
17
100
AcDbEntity
  8
0
100
AcDbCircle
 10
1.9154328524455
 20
1.6375
 30
0.0
 40
0.0475
  0
CIRCLE
  5
101D9
330
17
100
AcDbEntity
  8
0
100
AcDbCircle
 10
1.9154328524455
 20
1.7875
 30
0.0
 40
0.0475
  0
CIRCLE
  5
101DA
330
17
100
AcDbEntity
  8
0
100
AcDbCircle
 10
1.9154328524455
 20
1.9375
 30
0.0
 40
0.0475
  0
CIRCLE
  5
101DB
330
17
100
AcDbEntity
  8
0
100
AcDbCircle
 10
1.9154328524455
 20
2.0875
 30
0.0
 40
0.0475
  0
CIRCLE
  5
101DC
330
17
100
AcDbEntity
  8
0
100
AcDbCircle
 10
1.9154328524455
 20
2.2375
 30
0.0
 40
0.0475
  0
CIRCLE
  5
101DD
330
17
100
AcDbEntity
  8
0
100
AcDbCircle
 10
1.9154328524455
 20
2.3875
 30
0.0
 40
0.0475
  0
CIRCLE
  5
101DE
330
17
100
AcDbEntity
  8
0
100
AcDbCircle
 10
1.9154328524455
 20
2.5375
 30
0.0
 40
0.0475
  0
CIRCLE
  5
101DF
330
17
100
AcDbEntity
  8
0
100
AcDbCircle
 10
1.9154328524455
 20
2.6875
 30
0.0
 40
0.0475
  0
CIRCLE
  5
101E0
330
17
100
AcDbEntity
  8
0
100
AcDbCircle
 10
1.9154328524455
 20
2.8375
 30
0.0
 40
0.0475
  0
CIRCLE
  5
101E1
330
17
100
AcDbEntity
  8
0
100
AcDbCircle
 10
1.9154328524455
 20
2.9875
 30
0.0
 40
0.0475
  0
CIRCLE
  5
101E2
330
17
100
AcDbEntity
  8
0
100
AcDbCircle
 10
1.9154328524455
 20
3.1375
 30
0.0
 40
0.0475
  0
CIRCLE
  5
101E3
330
17
100
AcDbEntity
  8
0
100
AcDbCircle
 10
1.9154328524455
 20
3.2875
 30
0.0
 40
0.0475
  0
CIRCLE
  5
101E4
330
17
100
AcDbEntity
  8
0
100
AcDbCircle
 10
1.9154328524455
 20
3.4375
 30
0.0
 40
0.0475
  0
CIRCLE
  5
101E5
330
17
100
AcDbEntity
  8
0
100
AcDbCircle
 10
1.9154328524455
 20
3.5875
 30
0.0
 40
0.0475
  0
CIRCLE
  5
101E6
330
17
100
AcDbEntity
  8
0
100
AcDbCircle
 10
1.9154328524455
 20
3.7375
 30
0.0
 40
0.0475
  0
CIRCLE
  5
101E7
330
17
100
AcDbEntity
  8
0
100
AcDbCircle
 10
1.9154328524455
 20
3.8875
 30
0.0
 40
0.0475
  0
CIRCLE
  5
101E8
330
17
100
AcDbEntity
  8
0
100
AcDbCircle
 10
1.9154328524455
 20
4.0375
 30
0.0
 40
0.0475
  0
CIRCLE
  5
101E9
330
17
100
AcDbEntity
  8
0
100
AcDbCircle
 10
1.9154328524455
 20
4.1875
 30
0.0
 40
0.0475
  0
CIRCLE
  5
101EA
330
17
100
AcDbEntity
  8
0
100
AcDbCircle
 10
1.9154328524455
 20
4.3375
 30
0.0
 40
0.0475
  0
CIRCLE
  5
101EB
330
17
100
AcDbEntity
  8
0
100
AcDbCircle
 10
1.9154328524455
 20
4.4875
 30
0.0
 40
0.0475
  0
CIRCLE
  5
101EC
330
17
100
AcDbEntity
  8
0
100
AcDbCircle
 10
1.9154328524455
 20
4.6375
 30
0.0
 40
0.0475
  0
CIRCLE
  5
101ED
330
17
100
AcDbEntity
  8
0
100
AcDbCircle
 10
1.9154328524455
 20
4.7875
 30
0.0
 40
0.0475
  0
CIRCLE
  5
101EE
330
17
100
AcDbEntity
  8
0
100
AcDbCircle
 10
1.9154328524455
 20
4.9375
 30
0.0
 40
0.0475
  0
CIRCLE
  5
101EF
330
17
100
AcDbEntity
  8
0
100
AcDbCircle
 10
2.04533666301317
 20
0.0625000000000001
 30
0.0
 40
0.0475
  0
CIRCLE
  5
101F0
330
17
100
AcDbEntity
  8
0
100
AcDbCircle
 10
2.04533666301317
 20
0.2125
 30
0.0
 40
0.0475
  0
CIRCLE
  5
101F1
330
17
100
AcDbEntity
  8
0
100
AcDbCircle
 10
2.04533666301317
 20
0.3625
 30
0.0
 40
0.0475
  0
CIRCLE
  5
101F2
330
17
100
AcDbEntity
  8
0
100
AcDbCircle
 10
2.04533666301317
 20
0.5125
 30
0.0
 40
0.0475
  0
CIRCLE
  5
101F3
330
17
100
AcDbEntity
  8
0
100
AcDbCircle
 10
2.04533666301317
 20
0.6625
 30
0.0
 40
0.0475
  0
CIRCLE
  5
101F4
330
17
100
AcDbEntity
  8
0
100
AcDbCircle
 10
2.04533666301317
 20
0.8125
 30
0.0
 40
0.0475
  0
CIRCLE
  5
101F5
330
17
100
AcDbEntity
  8
0
100
AcDbCircle
 10
2.04533666301317
 20
0.9625
 30
0.0
 40
0.0475
  0
CIRCLE
  5
101F6
330
17
100
AcDbEntity
  8
0
100
AcDbCircle
 10
2.04533666301317
 20
1.1125
 30
0.0
 40
0.0475
  0
CIRCLE
  5
101F7
330
17
100
AcDbEntity
  8
0
100
AcDbCircle
 10
2.04533666301317
 20
1.2625
 30
0.0
 40
0.0475
  0
CIRCLE
  5
101F8
330
17
100
AcDbEntity
  8
0
100
AcDbCircle
 10
2.04533666301317
 20
1.4125
 30
0.0
 40
0.0475
  0
CIRCLE
  5
101F9
330
17
100
AcDbEntity
  8
0
100
AcDbCircle
 10
2.04533666301317
 20
1.5625
 30
0.0
 40
0.0475
  0
CIRCLE
  5
101FA
330
17
100
AcDbEntity
  8
0
100
AcDbCircle
 10
2.04533666301317
 20
1.7125
 30
0.0
 40
0.0475
  0
CIRCLE
  5
101FB
330
17
100
AcDbEntity
  8
0
100
AcDbCircle
 10
2.04533666301317
 20
1.8625
 30
0.0
 40
0.0475
  0
CIRCLE
  5
101FC
330
17
100
AcDbEntity
  8
0
100
AcDbCircle
 10
2.04533666301317
 20
2.0125
 30
0.0
 40
0.0475
  0
CIRCLE
  5
101FD
330
17
100
AcDbEntity
  8
0
100
AcDbCircle
 10
2.04533666301317
 20
2.1625
 30
0.0
 40
0.0475
  0
CIRCLE
  5
101FE
330
17
100
AcDbEntity
  8
0
100
AcDbCircle
 10
2.04533666301317
 20
2.3125
 30
0.0
 40
0.0475
  0
CIRCLE
  5
101FF
330
17
100
AcDbEntity
  8
0
100
AcDbCircle
 10
2.04533666301317
 20
2.4625
 30
0.0
 40
0.0475
  0
CIRCLE
  5
10200
330
17
100
AcDbEntity
  8
0
100
AcDbCircle
 10
2.04533666301317
 20
2.6125
 30
0.0
 40
0.0475
  0
CIRCLE
  5
10201
330
17
100
AcDbEntity
  8
0
100
AcDbCircle
 10
2.04533666301317
 20
2.7625
 30
0.0
 40
0.0475
  0
CIRCLE
  5
10202
330
17
100
AcDbEntity
  8
0
100
AcDbCircle
 10
2.04533666301317
 20
2.9125
 30
0.0
 40
0.0475
  0
CIRCLE
  5
10203
330
17
100
AcDbEntity
  8
0
100
AcDbCircle
 10
2.04533666301317
 20
3.0625
 30
0.0
 40
0.0475
  0
CIRCLE
  5
10204
330
17
100
AcDbEntity
  8
0
100
AcDbCircle
 10
2.04533666301317
 20
3.2125
 30
0.0
 40
0.0475
  0
CIRCLE
  5
10205
330
17
100
AcDbEntity
  8
0
100
AcDbCircle
 10
2.04533666301317
 20
3.3625
 30
0.0
 40
0.0475
  0
CIRCLE
  5
10206
330
17
100
AcDbEntity
  8
0
100
AcDbCircle
 10
2.04533666301317
 20
3.5125
 30
0.0
 40
0.0475
  0
CIRCLE
  5
10207
330
17
100
AcDbEntity
  8
0
100
AcDbCircle
 10
2.04533666301317
 20
3.6625
 30
0.0
 40
0.0475
  0
CIRCLE
  5
10208
330
17
100
AcDbEntity
  8
0
100
AcDbCircle
 10
2.04533666301317
 20
3.8125
 30
0.0
 40
0.0475
  0
CIRCLE
  5
10209
330
17
100
AcDbEntity
  8
0
100
AcDbCircle
 10
2.04533666301317
 20
3.9625
 30
0.0
 40
0.0475
  0
CIRCLE
  5
1020A
330
17
100
AcDbEntity
  8
0
100
AcDbCircle
 10
2.04533666301317
 20
4.1125
 30
0.0
 40
0.0475
  0
CIRCLE
  5
1020B
330
17
100
AcDbEntity
  8
0
100
AcDbCircle
 10
2.04533666301317
 20
4.2625
 30
0.0
 40
0.0475
  0
CIRCLE
  5
1020C
330
17
100
AcDbEntity
  8
0
100
AcDbCircle
 10
2.04533666301317
 20
4.4125
 30
0.0
 40
0.0475
  0
CIRCLE
  5
1020D
330
17
100
AcDbEntity
  8
0
100
AcDbCircle
 10
2.04533666301317
 20
4.5625
 30
0.0
 40
0.0475
  0
CIRCLE
  5
1020E
330
17
100
AcDbEntity
  8
0
100
AcDbCircle
 10
2.04533666301317
 20
4.7125
 30
0.0
 40
0.0475
  0
CIRCLE
  5
1020F
330
17
100
AcDbEntity
  8
0
100
AcDbCircle
 10
2.04533666301317
 20
4.8625
 30
0.0
 40
0.0475
  0
CIRCLE
  5
10210
330
17
100
AcDbEntity
  8
0
100
AcDbCircle
 10
2.17524047358084
 20
0.1375
 30
0.0
 40
0.0475
  0
CIRCLE
  5
10211
330
17
100
AcDbEntity
  8
0
100
AcDbCircle
 10
2.17524047358084
 20
0.2875
 30
0.0
 40
0.0475
  0
CIRCLE
  5
10212
330
17
100
AcDbEntity
  8
0
100
AcDbCircle
 10
2.17524047358084
 20
0.4375
 30
0.0
 40
0.0475
  0
CIRCLE
  5
10213
330
17
100
AcDbEntity
  8
0
100
AcDbCircle
 10
2.17524047358084
 20
0.5875
 30
0.0
 40
0.0475
  0
CIRCLE
  5
10214
330
17
100
AcDbEntity
  8
0
100
AcDbCircle
 10
2.17524047358084
 20
0.7375
 30
0.0
 40
0.0475
  0
CIRCLE
  5
10215
330
17
100
AcDbEntity
  8
0
100
AcDbCircle
 10
2.17524047358084
 20
0.8875
 30
0.0
 40
0.0475
  0
CIRCLE
  5
10216
330
17
100
AcDbEntity
  8
0
100
AcDbCircle
 10
2.17524047358084
 20
1.0375
 30
0.0
 40
0.0475
  0
CIRCLE
  5
10217
330
17
100
AcDbEntity
  8
0
100
AcDbCircle
 10
2.17524047358084
 20
1.1875
 30
0.0
 40
0.0475
  0
CIRCLE
  5
10218
330
17
100
AcDbEntity
  8
0
100
AcDbCircle
 10
2.17524047358084
 20
1.3375
 30
0.0
 40
0.0475
  0
CIRCLE
  5
10219
330
17
100
AcDbEntity
  8
0
100
AcDbCircle
 10
2.17524047358084
 20
1.4875
 30
0.0
 40
0.0475
  0
CIRCLE
  5
1021A
330
17
100
AcDbEntity
  8
0
100
AcDbCircle
 10
2.17524047358084
 20
1.6375
 30
0.0
 40
0.0475
  0
CIRCLE
  5
1021B
330
17
100
AcDbEntity
  8
0
100
AcDbCircle
 10
2.17524047358084
 20
1.7875
 30
0.0
 40
0.0475
  0
CIRCLE
  5
1021C
330
17
100
AcDbEntity
  8
0
100
AcDbCircle
 10
2.17524047358084
 20
1.9375
 30
0.0
 40
0.0475
  0
CIRCLE
  5
1021D
330
17
100
AcDbEntity
  8
0
100
AcDbCircle
 10
2.17524047358084
 20
2.0875
 30
0.0
 40
0.0475
  0
CIRCLE
  5
1021E
330
17
100
AcDbEntity
  8
0
100
AcDbCircle
 10
2.17524047358084
 20
2.2375
 30
0.0
 40
0.0475
  0
CIRCLE
  5
1021F
330
17
100
AcDbEntity
  8
0
100
AcDbCircle
 10
2.17524047358084
 20
2.3875
 30
0.0
 40
0.0475
  0
CIRCLE
  5
10220
330
17
100
AcDbEntity
  8
0
100
AcDbCircle
 10
2.17524047358084
 20
2.5375
 30
0.0
 40
0.0475
  0
CIRCLE
  5
10221
330
17
100
AcDbEntity
  8
0
100
AcDbCircle
 10
2.17524047358084
 20
2.6875
 30
0.0
 40
0.0475
  0
CIRCLE
  5
10222
330
17
100
AcDbEntity
  8
0
100
AcDbCircle
 10
2.17524047358084
 20
2.8375
 30
0.0
 40
0.0475
  0
CIRCLE
  5
10223
330
17
100
AcDbEntity
  8
0
100
AcDbCircle
 10
2.17524047358084
 20
2.9875
 30
0.0
 40
0.0475
  0
CIRCLE
  5
10224
330
17
100
AcDbEntity
  8
0
100
AcDbCircle
 10
2.17524047358084
 20
3.1375
 30
0.0
 40
0.0475
  0
CIRCLE
  5
10225
330
17
100
AcDbEntity
  8
0
100
AcDbCircle
 10
2.17524047358084
 20
3.2875
 30
0.0
 40
0.0475
  0
CIRCLE
  5
10226
330
17
100
AcDbEntity
  8
0
100
AcDbCircle
 10
2.17524047358084
 20
3.4375
 30
0.0
 40
0.0475
  0
CIRCLE
  5
10227
330
17
100
AcDbEntity
  8
0
100
AcDbCircle
 10
2.17524047358084
 20
3.5875
 30
0.0
 40
0.0475
  0
CIRCLE
  5
10228
330
17
100
AcDbEntity
  8
0
100
AcDbCircle
 10
2.17524047358084
 20
3.7375
 30
0.0
 40
0.0475
  0
CIRCLE
  5
10229
330
17
100
AcDbEntity
  8
0
100
AcDbCircle
 10
2.17524047358084
 20
3.8875
 30
0.0
 40
0.0475
  0
CIRCLE
  5
1022A
330
17
100
AcDbEntity
  8
0
100
AcDbCircle
 10
2.17524047358084
 20
4.0375
 30
0.0
 40
0.0475
  0
CIRCLE
  5
1022B
330
17
100
AcDbEntity
  8
0
100
AcDbCircle
 10
2.17524047358084
 20
4.1875
 30
0.0
 40
0.0475
  0
CIRCLE
  5
1022C
330
17
100
AcDbEntity
  8
0
100
AcDbCircle
 10
2.17524047358084
 20
4.3375
 30
0.0
 40
0.0475
  0
CIRCLE
  5
1022D
330
17
100
AcDbEntity
  8
0
100
AcDbCircle
 10
2.17524047358084
 20
4.4875
 30
0.0
 40
0.0475
  0
CIRCLE
  5
1022E
330
17
100
AcDbEntity
  8
0
100
AcDbCircle
 10
2.17524047358084
 20
4.6375
 30
0.0
 40
0.0475
  0
CIRCLE
  5
1022F
330
17
100
AcDbEntity
  8
0
100
AcDbCircle
 10
2.17524047358084
 20
4.7875
 30
0.0
 40
0.0475
  0
CIRCLE
  5
10230
330
17
100
AcDbEntity
  8
0
100
AcDbCircle
 10
2.17524047358084
 20
4.9375
 30
0.0
 40
0.0475
  0
CIRCLE
  5
10231
330
17
100
AcDbEntity
  8
0
100
AcDbCircle
 10
2.3051442841485
 20
0.0625000000000001
 30
0.0
 40
0.0475
  0
CIRCLE
  5
10232
330
17
100
AcDbEntity
  8
0
100
AcDbCircle
 10
2.3051442841485
 20
0.2125
 30
0.0
 40
0.0475
  0
CIRCLE
  5
10233
330
17
100
AcDbEntity
  8
0
100
AcDbCircle
 10
2.3051442841485
 20
0.3625
 30
0.0
 40
0.0475
  0
CIRCLE
  5
10234
330
17
100
AcDbEntity
  8
0
100
AcDbCircle
 10
2.3051442841485
 20
0.5125
 30
0.0
 40
0.0475
  0
CIRCLE
  5
10235
330
17
100
AcDbEntity
  8
0
100
AcDbCircle
 10
2.3051442841485
 20
0.6625
 30
0.0
 40
0.0475
  0
CIRCLE
  5
10236
330
17
100
AcDbEntity
  8
0
100
AcDbCircle
 10
2.3051442841485
 20
0.8125
 30
0.0
 40
0.0475
  0
CIRCLE
  5
10237
330
17
100
AcDbEntity
  8
0
100
AcDbCircle
 10
2.3051442841485
 20
0.9625
 30
0.0
 40
0.0475
  0
CIRCLE
  5
10238
330
17
100
AcDbEntity
  8
0
100
AcDbCircle
 10
2.3051442841485
 20
1.1125
 30
0.0
 40
0.0475
  0
CIRCLE
  5
10239
330
17
100
AcDbEntity
  8
0
100
AcDbCircle
 10
2.3051442841485
 20
1.2625
 30
0.0
 40
0.0475
  0
CIRCLE
  5
1023A
330
17
100
AcDbEntity
  8
0
100
AcDbCircle
 10
2.3051442841485
 20
1.4125
 30
0.0
 40
0.0475
  0
CIRCLE
  5
1023B
330
17
100
AcDbEntity
  8
0
100
AcDbCircle
 10
2.3051442841485
 20
1.5625
 30
0.0
 40
0.0475
  0
CIRCLE
  5
1023C
330
17
100
AcDbEntity
  8
0
100
AcDbCircle
 10
2.3051442841485
 20
1.7125
 30
0.0
 40
0.0475
  0
CIRCLE
  5
1023D
330
17
100
AcDbEntity
  8
0
100
AcDbCircle
 10
2.3051442841485
 20
1.8625
 30
0.0
 40
0.0475
  0
CIRCLE
  5
1023E
330
17
100
AcDbEntity
  8
0
100
AcDbCircle
 10
2.3051442841485
 20
2.0125
 30
0.0
 40
0.0475
  0
CIRCLE
  5
1023F
330
17
100
AcDbEntity
  8
0
100
AcDbCircle
 10
2.3051442841485
 20
2.1625
 30
0.0
 40
0.0475
  0
CIRCLE
  5
10240
330
17
100
AcDbEntity
  8
0
100
AcDbCircle
 10
2.3051442841485
 20
2.3125
 30
0.0
 40
0.0475
  0
CIRCLE
  5
10241
330
17
100
AcDbEntity
  8
0
100
AcDbCircle
 10
2.3051442841485
 20
2.4625
 30
0.0
 40
0.0475
  0
CIRCLE
  5
10242
330
17
100
AcDbEntity
  8
0
100
AcDbCircle
 10
2.3051442841485
 20
2.6125
 30
0.0
 40
0.0475
  0
CIRCLE
  5
10243
330
17
100
AcDbEntity
  8
0
100
AcDbCircle
 10
2.3051442841485
 20
2.7625
 30
0.0
 40
0.0475
  0
CIRCLE
  5
10244
330
17
100
AcDbEntity
  8
0
100
AcDbCircle
 10
2.3051442841485
 20
2.9125
 30
0.0
 40
0.0475
  0
CIRCLE
  5
10245
330
17
100
AcDbEntity
  8
0
100
AcDbCircle
 10
2.3051442841485
 20
3.0625
 30
0.0
 40
0.0475
  0
CIRCLE
  5
10246
330
17
100
AcDbEntity
  8
0
100
AcDbCircle
 10
2.3051442841485
 20
3.2125
 30
0.0
 40
0.0475
  0
CIRCLE
  5
10247
330
17
100
AcDbEntity
  8
0
100
AcDbCircle
 10
2.3051442841485
 20
3.3625
 30
0.0
 40
0.0475
  0
CIRCLE
  5
10248
330
17
100
AcDbEntity
  8
0
100
AcDbCircle
 10
2.3051442841485
 20
3.5125
 30
0.0
 40
0.0475
  0
CIRCLE
  5
10249
330
17
100
AcDbEntity
  8
0
100
AcDbCircle
 10
2.3051442841485
 20
3.6625
 30
0.0
 40
0.0475
  0
CIRCLE
  5
1024A
330
17
100
AcDbEntity
  8
0
100
AcDbCircle
 10
2.3051442841485
 20
3.8125
 30
0.0
 40
0.0475
  0
CIRCLE
  5
1024B
330
17
100
AcDbEntity
  8
0
100
AcDbCircle
 10
2.3051442841485
 20
3.9625
 30
0.0
 40
0.0475
  0
CIRCLE
  5
1024C
330
17
100
AcDbEntity
  8
0
100
AcDbCircle
 10
2.3051442841485
 20
4.1125
 30
0.0
 40
0.0475
  0
CIRCLE
  5
1024D
330
17
100
AcDbEntity
  8
0
100
AcDbCircle
 10
2.3051442841485
 20
4.2625
 30
0.0
 40
0.0475
  0
CIRCLE
  5
1024E
330
17
100
AcDbEntity
  8
0
100
AcDbCircle
 10
2.3051442841485
 20
4.4125
 30
0.0
 40
0.0475
  0
CIRCLE
  5
1024F
330
17
100
AcDbEntity
  8
0
100
AcDbCircle
 10
2.3051442841485
 20
4.5625
 30
0.0
 40
0.0475
  0
CIRCLE
  5
10250
330
17
100
AcDbEntity
  8
0
100
AcDbCircle
 10
2.3051442841485
 20
4.7125
 30
0.0
 40
0.0475
  0
CIRCLE
  5
10251
330
17
100
AcDbEntity
  8
0
100
AcDbCircle
 10
2.3051442841485
 20
4.8625
 30
0.0
 40
0.0475
  0
CIRCLE
  5
10252
330
17
100
AcDbEntity
  8
0
100
AcDbCircle
 10
2.43504809471617
 20
0.1375
 30
0.0
 40
0.0475
  0
CIRCLE
  5
10253
330
17
100
AcDbEntity
  8
0
100
AcDbCircle
 10
2.43504809471617
 20
0.2875
 30
0.0
 40
0.0475
  0
CIRCLE
  5
10254
330
17
100
AcDbEntity
  8
0
100
AcDbCircle
 10
2.43504809471617
 20
0.4375
 30
0.0
 40
0.0475
  0
CIRCLE
  5
10255
330
17
100
AcDbEntity
  8
0
100
AcDbCircle
 10
2.43504809471617
 20
0.5875
 30
0.0
 40
0.0475
  0
CIRCLE
  5
10256
330
17
100
AcDbEntity
  8
0
100
AcDbCircle
 10
2.43504809471617
 20
0.7375
 30
0.0
 40
0.0475
  0
CIRCLE
  5
10257
330
17
100
AcDbEntity
  8
0
100
AcDbCircle
 10
2.43504809471617
 20
0.8875
 30
0.0
 40
0.0475
  0
CIRCLE
  5
10258
330
17
100
AcDbEntity
  8
0
100
AcDbCircle
 10
2.43504809471617
 20
1.0375
 30
0.0
 40
0.0475
  0
CIRCLE
  5
10259
330
17
100
AcDbEntity
  8
0
100
AcDbCircle
 10
2.43504809471617
 20
1.1875
 30
0.0
 40
0.0475
  0
CIRCLE
  5
1025A
330
17
100
AcDbEntity
  8
0
100
AcDbCircle
 10
2.43504809471617
 20
1.3375
 30
0.0
 40
0.0475
  0
CIRCLE
  5
1025B
330
17
100
AcDbEntity
  8
0
100
AcDbCircle
 10
2.43504809471617
 20
1.4875
 30
0.0
 40
0.0475
  0
CIRCLE
  5
1025C
330
17
100
AcDbEntity
  8
0
100
AcDbCircle
 10
2.43504809471617
 20
1.6375
 30
0.0
 40
0.0475
  0
CIRCLE
  5
1025D
330
17
100
AcDbEntity
  8
0
100
AcDbCircle
 10
2.43504809471617
 20
1.7875
 30
0.0
 40
0.0475
  0
CIRCLE
  5
1025E
330
17
100
AcDbEntity
  8
0
100
AcDbCircle
 10
2.43504809471617
 20
1.9375
 30
0.0
 40
0.0475
  0
CIRCLE
  5
1025F
330
17
100
AcDbEntity
  8
0
100
AcDbCircle
 10
2.43504809471617
 20
2.0875
 30
0.0
 40
0.0475
  0
CIRCLE
  5
10260
330
17
100
AcDbEntity
  8
0
100
AcDbCircle
 10
2.43504809471617
 20
2.2375
 30
0.0
 40
0.0475
  0
CIRCLE
  5
10261
330
17
100
AcDbEntity
  8
0
100
AcDbCircle
 10
2.43504809471617
 20
2.3875
 30
0.0
 40
0.0475
  0
CIRCLE
  5
10262
330
17
100
AcDbEntity
  8
0
100
AcDbCircle
 10
2.43504809471617
 20
2.5375
 30
0.0
 40
0.0475
  0
CIRCLE
  5
10263
330
17
100
AcDbEntity
  8
0
100
AcDbCircle
 10
2.43504809471617
 20
2.6875
 30
0.0
 40
0.0475
  0
CIRCLE
  5
10264
330
17
100
AcDbEntity
  8
0
100
AcDbCircle
 10
2.43504809471617
 20
2.8375
 30
0.0
 40
0.0475
  0
CIRCLE
  5
10265
330
17
100
AcDbEntity
  8
0
100
AcDbCircle
 10
2.43504809471617
 20
2.9875
 30
0.0
 40
0.0475
  0
CIRCLE
  5
10266
330
17
100
AcDbEntity
  8
0
100
AcDbCircle
 10
2.43504809471617
 20
3.1375
 30
0.0
 40
0.0475
  0
CIRCLE
  5
10267
330
17
100
AcDbEntity
  8
0
100
AcDbCircle
 10
2.43504809471617
 20
3.2875
 30
0.0
 40
0.0475
  0
CIRCLE
  5
10268
330
17
100
AcDbEntity
  8
0
100
AcDbCircle
 10
2.43504809471617
 20
3.4375
 30
0.0
 40
0.0475
  0
CIRCLE
  5
10269
330
17
100
AcDbEntity
  8
0
100
AcDbCircle
 10
2.43504809471617
 20
3.5875
 30
0.0
 40
0.0475
  0
CIRCLE
  5
1026A
330
17
100
AcDbEntity
  8
0
100
AcDbCircle
 10
2.43504809471617
 20
3.7375
 30
0.0
 40
0.0475
  0
CIRCLE
  5
1026B
330
17
100
AcDbEntity
  8
0
100
AcDbCircle
 10
2.43504809471617
 20
3.8875
 30
0.0
 40
0.0475
  0
CIRCLE
  5
1026C
330
17
100
AcDbEntity
  8
0
100
AcDbCircle
 10
2.43504809471617
 20
4.0375
 30
0.0
 40
0.0475
  0
CIRCLE
  5
1026D
330
17
100
AcDbEntity
  8
0
100
AcDbCircle
 10
2.43504809471617
 20
4.1875
 30
0.0
 40
0.0475
  0
CIRCLE
  5
1026E
330
17
100
AcDbEntity
  8
0
100
AcDbCircle
 10
2.43504809471617
 20
4.3375
 30
0.0
 40
0.0475
  0
CIRCLE
  5
1026F
330
17
100
AcDbEntity
  8
0
100
AcDbCircle
 10
2.43504809471617
 20
4.4875
 30
0.0
 40
0.0475
  0
CIRCLE
  5
10270
330
17
100
AcDbEntity
  8
0
100
AcDbCircle
 10
2.43504809471617
 20
4.6375
 30
0.0
 40
0.0475
  0
CIRCLE
  5
10271
330
17
100
AcDbEntity
  8
0
100
AcDbCircle
 10
2.43504809471617
 20
4.7875
 30
0.0
 40
0.0475
  0
CIRCLE
  5
10272
330
17
100
AcDbEntity
  8
0
100
AcDbCircle
 10
2.43504809471617
 20
4.9375
 30
0.0
 40
0.0475
  0
CIRCLE
  5
10273
330
17
100
AcDbEntity
  8
0
100
AcDbCircle
 10
2.56495190528383
 20
0.0625000000000001
 30
0.0
 40
0.0475
  0
CIRCLE
  5
10274
330
17
100
AcDbEntity
  8
0
100
AcDbCircle
 10
2.56495190528383
 20
0.2125
 30
0.0
 40
0.0475
  0
CIRCLE
  5
10275
330
17
100
AcDbEntity
  8
0
100
AcDbCircle
 10
2.56495190528383
 20
0.3625
 30
0.0
 40
0.0475
  0
CIRCLE
  5
10276
330
17
100
AcDbEntity
  8
0
100
AcDbCircle
 10
2.56495190528383
 20
0.5125
 30
0.0
 40
0.0475
  0
CIRCLE
  5
10277
330
17
100
AcDbEntity
  8
0
100
AcDbCircle
 10
2.56495190528383
 20
0.6625
 30
0.0
 40
0.0475
  0
CIRCLE
  5
10278
330
17
100
AcDbEntity
  8
0
100
AcDbCircle
 10
2.56495190528383
 20
0.8125
 30
0.0
 40
0.0475
  0
CIRCLE
  5
10279
330
17
100
AcDbEntity
  8
0
100
AcDbCircle
 10
2.56495190528383
 20
0.9625
 30
0.0
 40
0.0475
  0
CIRCLE
  5
1027A
330
17
100
AcDbEntity
  8
0
100
AcDbCircle
 10
2.56495190528383
 20
1.1125
 30
0.0
 40
0.0475
  0
CIRCLE
  5
1027B
330
17
100
AcDbEntity
  8
0
100
AcDbCircle
 10
2.56495190528383
 20
1.2625
 30
0.0
 40
0.0475
  0
CIRCLE
  5
1027C
330
17
100
AcDbEntity
  8
0
100
AcDbCircle
 10
2.56495190528383
 20
1.4125
 30
0.0
 40
0.0475
  0
CIRCLE
  5
1027D
330
17
100
AcDbEntity
  8
0
100
AcDbCircle
 10
2.56495190528383
 20
1.5625
 30
0.0
 40
0.0475
  0
CIRCLE
  5
1027E
330
17
100
AcDbEntity
  8
0
100
AcDbCircle
 10
2.56495190528383
 20
1.7125
 30
0.0
 40
0.0475
  0
CIRCLE
  5
1027F
330
17
100
AcDbEntity
  8
0
100
AcDbCircle
 10
2.56495190528383
 20
1.8625
 30
0.0
 40
0.0475
  0
CIRCLE
  5
10280
330
17
100
AcDbEntity
  8
0
100
AcDbCircle
 10
2.56495190528383
 20
2.0125
 30
0.0
 40
0.0475
  0
CIRCLE
  5
10281
330
17
100
AcDbEntity
  8
0
100
AcDbCircle
 10
2.56495190528383
 20
2.1625
 30
0.0
 40
0.0475
  0
CIRCLE
  5
10282
330
17
100
AcDbEntity
  8
0
100
AcDbCircle
 10
2.56495190528383
 20
2.3125
 30
0.0
 40
0.0475
  0
CIRCLE
  5
10283
330
17
100
AcDbEntity
  8
0
100
AcDbCircle
 10
2.56495190528383
 20
2.4625
 30
0.0
 40
0.0475
  0
CIRCLE
  5
10284
330
17
100
AcDbEntity
  8
0
100
AcDbCircle
 10
2.56495190528383
 20
2.6125
 30
0.0
 40
0.0475
  0
CIRCLE
  5
10285
330
17
100
AcDbEntity
  8
0
100
AcDbCircle
 10
2.56495190528383
 20
2.7625
 30
0.0
 40
0.0475
  0
CIRCLE
  5
10286
330
17
100
AcDbEntity
  8
0
100
AcDbCircle
 10
2.56495190528383
 20
2.9125
 30
0.0
 40
0.0475
  0
CIRCLE
  5
10287
330
17
100
AcDbEntity
  8
0
100
AcDbCircle
 10
2.56495190528383
 20
3.0625
 30
0.0
 40
0.0475
  0
CIRCLE
  5
10288
330
17
100
AcDbEntity
  8
0
100
AcDbCircle
 10
2.56495190528383
 20
3.2125
 30
0.0
 40
0.0475
  0
CIRCLE
  5
10289
330
17
100
AcDbEntity
  8
0
100
AcDbCircle
 10
2.56495190528383
 20
3.3625
 30
0.0
 40
0.0475
  0
CIRCLE
  5
1028A
330
17
100
AcDbEntity
  8
0
100
AcDbCircle
 10
2.56495190528383
 20
3.5125
 30
0.0
 40
0.0475
  0
CIRCLE
  5
1028B
330
17
100
AcDbEntity
  8
0
100
AcDbCircle
 10
2.56495190528383
 20
3.6625
 30
0.0
 40
0.0475
  0
CIRCLE
  5
1028C
330
17
100
AcDbEntity
  8
0
100
AcDbCircle
 10
2.56495190528383
 20
3.8125
 30
0.0
 40
0.0475
  0
CIRCLE
  5
1028D
330
17
100
AcDbEntity
  8
0
100
AcDbCircle
 10
2.56495190528383
 20
3.9625
 30
0.0
 40
0.0475
  0
CIRCLE
  5
1028E
330
17
100
AcDbEntity
  8
0
100
AcDbCircle
 10
2.56495190528383
 20
4.1125
 30
0.0
 40
0.0475
  0
CIRCLE
  5
1028F
330
17
100
AcDbEntity
  8
0
100
AcDbCircle
 10
2.56495190528383
 20
4.2625
 30
0.0
 40
0.0475
  0
CIRCLE
  5
10290
330
17
100
AcDbEntity
  8
0
100
AcDbCircle
 10
2.56495190528383
 20
4.4125
 30
0.0
 40
0.0475
  0
CIRCLE
  5
10291
330
17
100
AcDbEntity
  8
0
100
AcDbCircle
 10
2.56495190528383
 20
4.5625
 30
0.0
 40
0.0475
  0
CIRCLE
  5
10292
330
17
100
AcDbEntity
  8
0
100
AcDbCircle
 10
2.56495190528383
 20
4.7125
 30
0.0
 40
0.0475
  0
CIRCLE
  5
10293
330
17
100
AcDbEntity
  8
0
100
AcDbCircle
 10
2.56495190528383
 20
4.8625
 30
0.0
 40
0.0475
  0
CIRCLE
  5
10294
330
17
100
AcDbEntity
  8
0
100
AcDbCircle
 10
2.6948557158515
 20
0.1375
 30
0.0
 40
0.0475
  0
CIRCLE
  5
10295
330
17
100
AcDbEntity
  8
0
100
AcDbCircle
 10
2.6948557158515
 20
0.2875
 30
0.0
 40
0.0475
  0
CIRCLE
  5
10296
330
17
100
AcDbEntity
  8
0
100
AcDbCircle
 10
2.6948557158515
 20
0.4375
 30
0.0
 40
0.0475
  0
CIRCLE
  5
10297
330
17
100
AcDbEntity
  8
0
100
AcDbCircle
 10
2.6948557158515
 20
0.5875
 30
0.0
 40
0.0475
  0
CIRCLE
  5
10298
330
17
100
AcDbEntity
  8
0
100
AcDbCircle
 10
2.6948557158515
 20
0.7375
 30
0.0
 40
0.0475
  0
CIRCLE
  5
10299
330
17
100
AcDbEntity
  8
0
100
AcDbCircle
 10
2.6948557158515
 20
0.8875
 30
0.0
 40
0.0475
  0
CIRCLE
  5
1029A
330
17
100
AcDbEntity
  8
0
100
AcDbCircle
 10
2.6948557158515
 20
1.0375
 30
0.0
 40
0.0475
  0
CIRCLE
  5
1029B
330
17
100
AcDbEntity
  8
0
100
AcDbCircle
 10
2.6948557158515
 20
1.1875
 30
0.0
 40
0.0475
  0
CIRCLE
  5
1029C
330
17
100
AcDbEntity
  8
0
100
AcDbCircle
 10
2.6948557158515
 20
1.3375
 30
0.0
 40
0.0475
  0
CIRCLE
  5
1029D
330
17
100
AcDbEntity
  8
0
100
AcDbCircle
 10
2.6948557158515
 20
1.4875
 30
0.0
 40
0.0475
  0
CIRCLE
  5
1029E
330
17
100
AcDbEntity
  8
0
100
AcDbCircle
 10
2.6948557158515
 20
1.6375
 30
0.0
 40
0.0475
  0
CIRCLE
  5
1029F
330
17
100
AcDbEntity
  8
0
100
AcDbCircle
 10
2.6948557158515
 20
1.7875
 30
0.0
 40
0.0475
  0
CIRCLE
  5
102A0
330
17
100
AcDbEntity
  8
0
100
AcDbCircle
 10
2.6948557158515
 20
1.9375
 30
0.0
 40
0.0475
  0
CIRCLE
  5
102A1
330
17
100
AcDbEntity
  8
0
100
AcDbCircle
 10
2.6948557158515
 20
2.0875
 30
0.0
 40
0.0475
  0
CIRCLE
  5
102A2
330
17
100
AcDbEntity
  8
0
100
AcDbCircle
 10
2.6948557158515
 20
2.2375
 30
0.0
 40
0.0475
  0
CIRCLE
  5
102A3
330
17
100
AcDbEntity
  8
0
100
AcDbCircle
 10
2.6948557158515
 20
2.3875
 30
0.0
 40
0.0475
  0
CIRCLE
  5
102A4
330
17
100
AcDbEntity
  8
0
100
AcDbCircle
 10
2.6948557158515
 20
2.5375
 30
0.0
 40
0.0475
  0
CIRCLE
  5
102A5
330
17
100
AcDbEntity
  8
0
100
AcDbCircle
 10
2.6948557158515
 20
2.6875
 30
0.0
 40
0.0475
  0
CIRCLE
  5
102A6
330
17
100
AcDbEntity
  8
0
100
AcDbCircle
 10
2.6948557158515
 20
2.8375
 30
0.0
 40
0.0475
  0
CIRCLE
  5
102A7
330
17
100
AcDbEntity
  8
0
100
AcDbCircle
 10
2.6948557158515
 20
2.9875
 30
0.0
 40
0.0475
  0
CIRCLE
  5
102A8
330
17
100
AcDbEntity
  8
0
100
AcDbCircle
 10
2.6948557158515
 20
3.1375
 30
0.0
 40
0.0475
  0
CIRCLE
  5
102A9
330
17
100
AcDbEntity
  8
0
100
AcDbCircle
 10
2.6948557158515
 20
3.2875
 30
0.0
 40
0.0475
  0
CIRCLE
  5
102AA
330
17
100
AcDbEntity
  8
0
100
AcDbCircle
 10
2.6948557158515
 20
3.4375
 30
0.0
 40
0.0475
  0
CIRCLE
  5
102AB
330
17
100
AcDbEntity
  8
0
100
AcDbCircle
 10
2.6948557158515
 20
3.5875
 30
0.0
 40
0.0475
  0
CIRCLE
  5
102AC
330
17
100
AcDbEntity
  8
0
100
AcDbCircle
 10
2.6948557158515
 20
3.7375
 30
0.0
 40
0.0475
  0
CIRCLE
  5
102AD
330
17
100
AcDbEntity
  8
0
100
AcDbCircle
 10
2.6948557158515
 20
3.8875
 30
0.0
 40
0.0475
  0
CIRCLE
  5
102AE
330
17
100
AcDbEntity
  8
0
100
AcDbCircle
 10
2.6948557158515
 20
4.0375
 30
0.0
 40
0.0475
  0
CIRCLE
  5
102AF
330
17
100
AcDbEntity
  8
0
100
AcDbCircle
 10
2.6948557158515
 20
4.1875
 30
0.0
 40
0.0475
  0
CIRCLE
  5
102B0
330
17
100
AcDbEntity
  8
0
100
AcDbCircle
 10
2.6948557158515
 20
4.3375
 30
0.0
 40
0.0475
  0
CIRCLE
  5
102B1
330
17
100
AcDbEntity
  8
0
100
AcDbCircle
 10
2.6948557158515
 20
4.4875
 30
0.0
 40
0.0475
  0
CIRCLE
  5
102B2
330
17
100
AcDbEntity
  8
0
100
AcDbCircle
 10
2.6948557158515
 20
4.6375
 30
0.0
 40
0.0475
  0
CIRCLE
  5
102B3
330
17
100
AcDbEntity
  8
0
100
AcDbCircle
 10
2.6948557158515
 20
4.7875
 30
0.0
 40
0.0475
  0
CIRCLE
  5
102B4
330
17
100
AcDbEntity
  8
0
100
AcDbCircle
 10
2.6948557158515
 20
4.9375
 30
0.0
 40
0.0475
  0
CIRCLE
  5
102B5
330
17
100
AcDbEntity
  8
0
100
AcDbCircle
 10
2.82475952641916
 20
0.0625000000000001
 30
0.0
 40
0.0475
  0
CIRCLE
  5
102B6
330
17
100
AcDbEntity
  8
0
100
AcDbCircle
 10
2.82475952641916
 20
0.2125
 30
0.0
 40
0.0475
  0
CIRCLE
  5
102B7
330
17
100
AcDbEntity
  8
0
100
AcDbCircle
 10
2.82475952641916
 20
0.3625
 30
0.0
 40
0.0475
  0
CIRCLE
  5
102B8
330
17
100
AcDbEntity
  8
0
100
AcDbCircle
 10
2.82475952641916
 20
0.5125
 30
0.0
 40
0.0475
  0
CIRCLE
  5
102B9
330
17
100
AcDbEntity
  8
0
100
AcDbCircle
 10
2.82475952641916
 20
0.6625
 30
0.0
 40
0.0475
  0
CIRCLE
  5
102BA
330
17
100
AcDbEntity
  8
0
100
AcDbCircle
 10
2.82475952641916
 20
0.8125
 30
0.0
 40
0.0475
  0
CIRCLE
  5
102BB
330
17
100
AcDbEntity
  8
0
100
AcDbCircle
 10
2.82475952641916
 20
0.9625
 30
0.0
 40
0.0475
  0
CIRCLE
  5
102BC
330
17
100
AcDbEntity
  8
0
100
AcDbCircle
 10
2.82475952641916
 20
1.1125
 30
0.0
 40
0.0475
  0
CIRCLE
  5
102BD
330
17
100
AcDbEntity
  8
0
100
AcDbCircle
 10
2.82475952641916
 20
1.2625
 30
0.0
 40
0.0475
  0
CIRCLE
  5
102BE
330
17
100
AcDbEntity
  8
0
100
AcDbCircle
 10
2.82475952641916
 20
1.4125
 30
0.0
 40
0.0475
  0
CIRCLE
  5
102BF
330
17
100
AcDbEntity
  8
0
100
AcDbCircle
 10
2.82475952641916
 20
1.5625
 30
0.0
 40
0.0475
  0
CIRCLE
  5
102C0
330
17
100
AcDbEntity
  8
0
100
AcDbCircle
 10
2.82475952641916
 20
1.7125
 30
0.0
 40
0.0475
  0
CIRCLE
  5
102C1
330
17
100
AcDbEntity
  8
0
100
AcDbCircle
 10
2.82475952641916
 20
1.8625
 30
0.0
 40
0.0475
  0
CIRCLE
  5
102C2
330
17
100
AcDbEntity
  8
0
100
AcDbCircle
 10
2.82475952641916
 20
2.0125
 30
0.0
 40
0.0475
  0
CIRCLE
  5
102C3
330
17
100
AcDbEntity
  8
0
100
AcDbCircle
 10
2.82475952641916
 20
2.1625
 30
0.0
 40
0.0475
  0
CIRCLE
  5
102C4
330
17
100
AcDbEntity
  8
0
100
AcDbCircle
 10
2.82475952641916
 20
2.3125
 30
0.0
 40
0.0475
  0
CIRCLE
  5
102C5
330
17
100
AcDbEntity
  8
0
100
AcDbCircle
 10
2.82475952641916
 20
2.4625
 30
0.0
 40
0.0475
  0
CIRCLE
  5
102C6
330
17
100
AcDbEntity
  8
0
100
AcDbCircle
 10
2.82475952641916
 20
2.6125
 30
0.0
 40
0.0475
  0
CIRCLE
  5
102C7
330
17
100
AcDbEntity
  8
0
100
AcDbCircle
 10
2.82475952641916
 20
2.7625
 30
0.0
 40
0.0475
  0
CIRCLE
  5
102C8
330
17
100
AcDbEntity
  8
0
100
AcDbCircle
 10
2.82475952641916
 20
2.9125
 30
0.0
 40
0.0475
  0
CIRCLE
  5
102C9
330
17
100
AcDbEntity
  8
0
100
AcDbCircle
 10
2.82475952641916
 20
3.0625
 30
0.0
 40
0.0475
  0
CIRCLE
  5
102CA
330
17
100
AcDbEntity
  8
0
100
AcDbCircle
 10
2.82475952641916
 20
3.2125
 30
0.0
 40
0.0475
  0
CIRCLE
  5
102CB
330
17
100
AcDbEntity
  8
0
100
AcDbCircle
 10
2.82475952641916
 20
3.3625
 30
0.0
 40
0.0475
  0
CIRCLE
  5
102CC
330
17
100
AcDbEntity
  8
0
100
AcDbCircle
 10
2.82475952641916
 20
3.5125
 30
0.0
 40
0.0475
  0
CIRCLE
  5
102CD
330
17
100
AcDbEntity
  8
0
100
AcDbCircle
 10
2.82475952641916
 20
3.6625
 30
0.0
 40
0.0475
  0
CIRCLE
  5
102CE
330
17
100
AcDbEntity
  8
0
100
AcDbCircle
 10
2.82475952641916
 20
3.8125
 30
0.0
 40
0.0475
  0
CIRCLE
  5
102CF
330
17
100
AcDbEntity
  8
0
100
AcDbCircle
 10
2.82475952641916
 20
3.9625
 30
0.0
 40
0.0475
  0
CIRCLE
  5
102D0
330
17
100
AcDbEntity
  8
0
100
AcDbCircle
 10
2.82475952641916
 20
4.1125
 30
0.0
 40
0.0475
  0
CIRCLE
  5
102D1
330
17
100
AcDbEntity
  8
0
100
AcDbCircle
 10
2.82475952641916
 20
4.2625
 30
0.0
 40
0.0475
  0
CIRCLE
  5
102D2
330
17
100
AcDbEntity
  8
0
100
AcDbCircle
 10
2.82475952641916
 20
4.4125
 30
0.0
 40
0.0475
  0
CIRCLE
  5
102D3
330
17
100
AcDbEntity
  8
0
100
AcDbCircle
 10
2.82475952641916
 20
4.5625
 30
0.0
 40
0.0475
  0
CIRCLE
  5
102D4
330
17
100
AcDbEntity
  8
0
100
AcDbCircle
 10
2.82475952641916
 20
4.7125
 30
0.0
 40
0.0475
  0
CIRCLE
  5
102D5
330
17
100
AcDbEntity
  8
0
100
AcDbCircle
 10
2.82475952641916
 20
4.8625
 30
0.0
 40
0.0475
  0
CIRCLE
  5
102D6
330
17
100
AcDbEntity
  8
0
100
AcDbCircle
 10
2.95466333698683
 20
0.1375
 30
0.0
 40
0.0475
  0
CIRCLE
  5
102D7
330
17
100
AcDbEntity
  8
0
100
AcDbCircle
 10
2.95466333698683
 20
0.2875
 30
0.0
 40
0.0475
  0
CIRCLE
  5
102D8
330
17
100
AcDbEntity
  8
0
100
AcDbCircle
 10
2.95466333698683
 20
0.4375
 30
0.0
 40
0.0475
  0
CIRCLE
  5
102D9
330
17
100
AcDbEntity
  8
0
100
AcDbCircle
 10
2.95466333698683
 20
0.5875
 30
0.0
 40
0.0475
  0
CIRCLE
  5
102DA
330
17
100
AcDbEntity
  8
0
100
AcDbCircle
 10
2.95466333698683
 20
0.7375
 30
0.0
 40
0.0475
  0
CIRCLE
  5
102DB
330
17
100
AcDbEntity
  8
0
100
AcDbCircle
 10
2.95466333698683
 20
0.8875
 30
0.0
 40
0.0475
  0
CIRCLE
  5
102DC
330
17
100
AcDbEntity
  8
0
100
AcDbCircle
 10
2.95466333698683
 20
1.0375
 30
0.0
 40
0.0475
  0
CIRCLE
  5
102DD
330
17
100
AcDbEntity
  8
0
100
AcDbCircle
 10
2.95466333698683
 20
1.1875
 30
0.0
 40
0.0475
  0
CIRCLE
  5
102DE
330
17
100
AcDbEntity
  8
0
100
AcDbCircle
 10
2.95466333698683
 20
1.3375
 30
0.0
 40
0.0475
  0
CIRCLE
  5
102DF
330
17
100
AcDbEntity
  8
0
100
AcDbCircle
 10
2.95466333698683
 20
1.4875
 30
0.0
 40
0.0475
  0
CIRCLE
  5
102E0
330
17
100
AcDbEntity
  8
0
100
AcDbCircle
 10
2.95466333698683
 20
1.6375
 30
0.0
 40
0.0475
  0
CIRCLE
  5
102E1
330
17
100
AcDbEntity
  8
0
100
AcDbCircle
 10
2.95466333698683
 20
1.7875
 30
0.0
 40
0.0475
  0
CIRCLE
  5
102E2
330
17
100
AcDbEntity
  8
0
100
AcDbCircle
 10
2.95466333698683
 20
1.9375
 30
0.0
 40
0.0475
  0
CIRCLE
  5
102E3
330
17
100
AcDbEntity
  8
0
100
AcDbCircle
 10
2.95466333698683
 20
2.0875
 30
0.0
 40
0.0475
  0
CIRCLE
  5
102E4
330
17
100
AcDbEntity
  8
0
100
AcDbCircle
 10
2.95466333698683
 20
2.2375
 30
0.0
 40
0.0475
  0
CIRCLE
  5
102E5
330
17
100
AcDbEntity
  8
0
100
AcDbCircle
 10
2.95466333698683
 20
2.3875
 30
0.0
 40
0.0475
  0
CIRCLE
  5
102E6
330
17
100
AcDbEntity
  8
0
100
AcDbCircle
 10
2.95466333698683
 20
2.5375
 30
0.0
 40
0.0475
  0
CIRCLE
  5
102E7
330
17
100
AcDbEntity
  8
0
100
AcDbCircle
 10
2.95466333698683
 20
2.6875
 30
0.0
 40
0.0475
  0
CIRCLE
  5
102E8
330
17
100
AcDbEntity
  8
0
100
AcDbCircle
 10
2.95466333698683
 20
2.8375
 30
0.0
 40
0.0475
  0
CIRCLE
  5
102E9
330
17
100
AcDbEntity
  8
0
100
AcDbCircle
 10
2.95466333698683
 20
2.9875
 30
0.0
 40
0.0475
  0
CIRCLE
  5
102EA
330
17
100
AcDbEntity
  8
0
100
AcDbCircle
 10
2.95466333698683
 20
3.1375
 30
0.0
 40
0.0475
  0
CIRCLE
  5
102EB
330
17
100
AcDbEntity
  8
0
100
AcDbCircle
 10
2.95466333698683
 20
3.2875
 30
0.0
 40
0.0475
  0
CIRCLE
  5
102EC
330
17
100
AcDbEntity
  8
0
100
AcDbCircle
 10
2.95466333698683
 20
3.4375
 30
0.0
 40
0.0475
  0
CIRCLE
  5
102ED
330
17
100
AcDbEntity
  8
0
100
AcDbCircle
 10
2.95466333698683
 20
3.5875
 30
0.0
 40
0.0475
  0
CIRCLE
  5
102EE
330
17
100
AcDbEntity
  8
0
100
AcDbCircle
 10
2.95466333698683
 20
3.7375
 30
0.0
 40
0.0475
  0
CIRCLE
  5
102EF
330
17
100
AcDbEntity
  8
0
100
AcDbCircle
 10
2.95466333698683
 20
3.8875
 30
0.0
 40
0.0475
  0
CIRCLE
  5
102F0
330
17
100
AcDbEntity
  8
0
100
AcDbCircle
 10
2.95466333698683
 20
4.0375
 30
0.0
 40
0.0475
  0
CIRCLE
  5
102F1
330
17
100
AcDbEntity
  8
0
100
AcDbCircle
 10
2.95466333698683
 20
4.1875
 30
0.0
 40
0.0475
  0
CIRCLE
  5
102F2
330
17
100
AcDbEntity
  8
0
100
AcDbCircle
 10
2.95466333698683
 20
4.3375
 30
0.0
 40
0.0475
  0
CIRCLE
  5
102F3
330
17
100
AcDbEntity
  8
0
100
AcDbCircle
 10
2.95466333698683
 20
4.4875
 30
0.0
 40
0.0475
  0
CIRCLE
  5
102F4
330
17
100
AcDbEntity
  8
0
100
AcDbCircle
 10
2.95466333698683
 20
4.6375
 30
0.0
 40
0.0475
  0
CIRCLE
  5
102F5
330
17
100
AcDbEntity
  8
0
100
AcDbCircle
 10
2.95466333698683
 20
4.7875
 30
0.0
 40
0.0475
  0
CIRCLE
  5
102F6
330
17
100
AcDbEntity
  8
0
100
AcDbCircle
 10
2.95466333698683
 20
4.9375
 30
0.0
 40
0.0475
  0
CIRCLE
  5
102F7
330
17
100
AcDbEntity
  8
0
100
AcDbCircle
 10
3.0845671475545
 20
0.0625000000000001
 30
0.0
 40
0.0475
  0
CIRCLE
  5
102F8
330
17
100
AcDbEntity
  8
0
100
AcDbCircle
 10
3.0845671475545
 20
0.2125
 30
0.0
 40
0.0475
  0
CIRCLE
  5
102F9
330
17
100
AcDbEntity
  8
0
100
AcDbCircle
 10
3.0845671475545
 20
0.3625
 30
0.0
 40
0.0475
  0
CIRCLE
  5
102FA
330
17
100
AcDbEntity
  8
0
100
AcDbCircle
 10
3.0845671475545
 20
0.5125
 30
0.0
 40
0.0475
  0
CIRCLE
  5
102FB
330
17
100
AcDbEntity
  8
0
100
AcDbCircle
 10
3.0845671475545
 20
0.6625
 30
0.0
 40
0.0475
  0
CIRCLE
  5
102FC
330
17
100
AcDbEntity
  8
0
100
AcDbCircle
 10
3.0845671475545
 20
0.8125
 30
0.0
 40
0.0475
  0
CIRCLE
  5
102FD
330
17
100
AcDbEntity
  8
0
100
AcDbCircle
 10
3.0845671475545
 20
0.9625
 30
0.0
 40
0.0475
  0
CIRCLE
  5
102FE
330
17
100
AcDbEntity
  8
0
100
AcDbCircle
 10
3.0845671475545
 20
1.1125
 30
0.0
 40
0.0475
  0
CIRCLE
  5
102FF
330
17
100
AcDbEntity
  8
0
100
AcDbCircle
 10
3.0845671475545
 20
1.2625
 30
0.0
 40
0.0475
  0
CIRCLE
  5
10300
330
17
100
AcDbEntity
  8
0
100
AcDbCircle
 10
3.0845671475545
 20
1.4125
 30
0.0
 40
0.0475
  0
CIRCLE
  5
10301
330
17
100
AcDbEntity
  8
0
100
AcDbCircle
 10
3.0845671475545
 20
1.5625
 30
0.0
 40
0.0475
  0
CIRCLE
  5
10302
330
17
100
AcDbEntity
  8
0
100
AcDbCircle
 10
3.0845671475545
 20
1.7125
 30
0.0
 40
0.0475
  0
CIRCLE
  5
10303
330
17
100
AcDbEntity
  8
0
100
AcDbCircle
 10
3.0845671475545
 20
1.8625
 30
0.0
 40
0.0475
  0
CIRCLE
  5
10304
330
17
100
AcDbEntity
  8
0
100
AcDbCircle
 10
3.0845671475545
 20
2.0125
 30
0.0
 40
0.0475
  0
CIRCLE
  5
10305
330
17
100
AcDbEntity
  8
0
100
AcDbCircle
 10
3.0845671475545
 20
2.1625
 30
0.0
 40
0.0475
  0
CIRCLE
  5
10306
330
17
100
AcDbEntity
  8
0
100
AcDbCircle
 10
3.0845671475545
 20
2.3125
 30
0.0
 40
0.0475
  0
CIRCLE
  5
10307
330
17
100
AcDbEntity
  8
0
100
AcDbCircle
 10
3.0845671475545
 20
2.4625
 30
0.0
 40
0.0475
  0
CIRCLE
  5
10308
330
17
100
AcDbEntity
  8
0
100
AcDbCircle
 10
3.0845671475545
 20
2.6125
 30
0.0
 40
0.0475
  0
CIRCLE
  5
10309
330
17
100
AcDbEntity
  8
0
100
AcDbCircle
 10
3.0845671475545
 20
2.7625
 30
0.0
 40
0.0475
  0
CIRCLE
  5
1030A
330
17
100
AcDbEntity
  8
0
100
AcDbCircle
 10
3.0845671475545
 20
2.9125
 30
0.0
 40
0.0475
  0
CIRCLE
  5
1030B
330
17
100
AcDbEntity
  8
0
100
AcDbCircle
 10
3.0845671475545
 20
3.0625
 30
0.0
 40
0.0475
  0
CIRCLE
  5
1030C
330
17
100
AcDbEntity
  8
0
100
AcDbCircle
 10
3.0845671475545
 20
3.2125
 30
0.0
 40
0.0475
  0
CIRCLE
  5
1030D
330
17
100
AcDbEntity
  8
0
100
AcDbCircle
 10
3.0845671475545
 20
3.3625
 30
0.0
 40
0.0475
  0
CIRCLE
  5
1030E
330
17
100
AcDbEntity
  8
0
100
AcDbCircle
 10
3.0845671475545
 20
3.5125
 30
0.0
 40
0.0475
  0
CIRCLE
  5
1030F
330
17
100
AcDbEntity
  8
0
100
AcDbCircle
 10
3.0845671475545
 20
3.6625
 30
0.0
 40
0.0475
  0
CIRCLE
  5
10310
330
17
100
AcDbEntity
  8
0
100
AcDbCircle
 10
3.0845671475545
 20
3.8125
 30
0.0
 40
0.0475
  0
CIRCLE
  5
10311
330
17
100
AcDbEntity
  8
0
100
AcDbCircle
 10
3.0845671475545
 20
3.9625
 30
0.0
 40
0.0475
  0
CIRCLE
  5
10312
330
17
100
AcDbEntity
  8
0
100
AcDbCircle
 10
3.0845671475545
 20
4.1125
 30
0.0
 40
0.0475
  0
CIRCLE
  5
10313
330
17
100
AcDbEntity
  8
0
100
AcDbCircle
 10
3.0845671475545
 20
4.2625
 30
0.0
 40
0.0475
  0
CIRCLE
  5
10314
330
17
100
AcDbEntity
  8
0
100
AcDbCircle
 10
3.0845671475545
 20
4.4125
 30
0.0
 40
0.0475
  0
CIRCLE
  5
10315
330
17
100
AcDbEntity
  8
0
100
AcDbCircle
 10
3.0845671475545
 20
4.5625
 30
0.0
 40
0.0475
  0
CIRCLE
  5
10316
330
17
100
AcDbEntity
  8
0
100
AcDbCircle
 10
3.0845671475545
 20
4.7125
 30
0.0
 40
0.0475
  0
CIRCLE
  5
10317
330
17
100
AcDbEntity
  8
0
100
AcDbCircle
 10
3.0845671475545
 20
4.8625
 30
0.0
 40
0.0475
  0
CIRCLE
  5
10318
330
17
100
AcDbEntity
  8
0
100
AcDbCircle
 10
3.21447095812216
 20
0.1375
 30
0.0
 40
0.0475
  0
CIRCLE
  5
10319
330
17
100
AcDbEntity
  8
0
100
AcDbCircle
 10
3.21447095812216
 20
0.2875
 30
0.0
 40
0.0475
  0
CIRCLE
  5
1031A
330
17
100
AcDbEntity
  8
0
100
AcDbCircle
 10
3.21447095812216
 20
0.4375
 30
0.0
 40
0.0475
  0
CIRCLE
  5
1031B
330
17
100
AcDbEntity
  8
0
100
AcDbCircle
 10
3.21447095812216
 20
0.5875
 30
0.0
 40
0.0475
  0
CIRCLE
  5
1031C
330
17
100
AcDbEntity
  8
0
100
AcDbCircle
 10
3.21447095812216
 20
0.7375
 30
0.0
 40
0.0475
  0
CIRCLE
  5
1031D
330
17
100
AcDbEntity
  8
0
100
AcDbCircle
 10
3.21447095812216
 20
0.8875
 30
0.0
 40
0.0475
  0
CIRCLE
  5
1031E
330
17
100
AcDbEntity
  8
0
100
AcDbCircle
 10
3.21447095812216
 20
1.0375
 30
0.0
 40
0.0475
  0
CIRCLE
  5
1031F
330
17
100
AcDbEntity
  8
0
100
AcDbCircle
 10
3.21447095812216
 20
1.1875
 30
0.0
 40
0.0475
  0
CIRCLE
  5
10320
330
17
100
AcDbEntity
  8
0
100
AcDbCircle
 10
3.21447095812216
 20
1.3375
 30
0.0
 40
0.0475
  0
CIRCLE
  5
10321
330
17
100
AcDbEntity
  8
0
100
AcDbCircle
 10
3.21447095812216
 20
1.4875
 30
0.0
 40
0.0475
  0
CIRCLE
  5
10322
330
17
100
AcDbEntity
  8
0
100
AcDbCircle
 10
3.21447095812216
 20
1.6375
 30
0.0
 40
0.0475
  0
CIRCLE
  5
10323
330
17
100
AcDbEntity
  8
0
100
AcDbCircle
 10
3.21447095812216
 20
1.7875
 30
0.0
 40
0.0475
  0
CIRCLE
  5
10324
330
17
100
AcDbEntity
  8
0
100
AcDbCircle
 10
3.21447095812216
 20
1.9375
 30
0.0
 40
0.0475
  0
CIRCLE
  5
10325
330
17
100
AcDbEntity
  8
0
100
AcDbCircle
 10
3.21447095812216
 20
2.0875
 30
0.0
 40
0.0475
  0
CIRCLE
  5
10326
330
17
100
AcDbEntity
  8
0
100
AcDbCircle
 10
3.21447095812216
 20
2.2375
 30
0.0
 40
0.0475
  0
CIRCLE
  5
10327
330
17
100
AcDbEntity
  8
0
100
AcDbCircle
 10
3.21447095812216
 20
2.3875
 30
0.0
 40
0.0475
  0
CIRCLE
  5
10328
330
17
100
AcDbEntity
  8
0
100
AcDbCircle
 10
3.21447095812216
 20
2.5375
 30
0.0
 40
0.0475
  0
CIRCLE
  5
10329
330
17
100
AcDbEntity
  8
0
100
AcDbCircle
 10
3.21447095812216
 20
2.6875
 30
0.0
 40
0.0475
  0
CIRCLE
  5
1032A
330
17
100
AcDbEntity
  8
0
100
AcDbCircle
 10
3.21447095812216
 20
2.8375
 30
0.0
 40
0.0475
  0
CIRCLE
  5
1032B
330
17
100
AcDbEntity
  8
0
100
AcDbCircle
 10
3.21447095812216
 20
2.9875
 30
0.0
 40
0.0475
  0
CIRCLE
  5
1032C
330
17
100
AcDbEntity
  8
0
100
AcDbCircle
 10
3.21447095812216
 20
3.1375
 30
0.0
 40
0.0475
  0
CIRCLE
  5
1032D
330
17
100
AcDbEntity
  8
0
100
AcDbCircle
 10
3.21447095812216
 20
3.2875
 30
0.0
 40
0.0475
  0
CIRCLE
  5
1032E
330
17
100
AcDbEntity
  8
0
100
AcDbCircle
 10
3.21447095812216
 20
3.4375
 30
0.0
 40
0.0475
  0
CIRCLE
  5
1032F
330
17
100
AcDbEntity
  8
0
100
AcDbCircle
 10
3.21447095812216
 20
3.5875
 30
0.0
 40
0.0475
  0
CIRCLE
  5
10330
330
17
100
AcDbEntity
  8
0
100
AcDbCircle
 10
3.21447095812216
 20
3.7375
 30
0.0
 40
0.0475
  0
CIRCLE
  5
10331
330
17
100
AcDbEntity
  8
0
100
AcDbCircle
 10
3.21447095812216
 20
3.8875
 30
0.0
 40
0.0475
  0
CIRCLE
  5
10332
330
17
100
AcDbEntity
  8
0
100
AcDbCircle
 10
3.21447095812216
 20
4.0375
 30
0.0
 40
0.0475
  0
CIRCLE
  5
10333
330
17
100
AcDbEntity
  8
0
100
AcDbCircle
 10
3.21447095812216
 20
4.1875
 30
0.0
 40
0.0475
  0
CIRCLE
  5
10334
330
17
100
AcDbEntity
  8
0
100
AcDbCircle
 10
3.21447095812216
 20
4.3375
 30
0.0
 40
0.0475
  0
CIRCLE
  5
10335
330
17
100
AcDbEntity
  8
0
100
AcDbCircle
 10
3.21447095812216
 20
4.4875
 30
0.0
 40
0.0475
  0
CIRCLE
  5
10336
330
17
100
AcDbEntity
  8
0
100
AcDbCircle
 10
3.21447095812216
 20
4.6375
 30
0.0
 40
0.0475
  0
CIRCLE
  5
10337
330
17
100
AcDbEntity
  8
0
100
AcDbCircle
 10
3.21447095812216
 20
4.7875
 30
0.0
 40
0.0475
  0
CIRCLE
  5
10338
330
17
100
AcDbEntity
  8
0
100
AcDbCircle
 10
3.21447095812216
 20
4.9375
 30
0.0
 40
0.0475
  0
CIRCLE
  5
10339
330
17
100
AcDbEntity
  8
0
100
AcDbCircle
 10
3.34437476868983
 20
0.0625000000000001
 30
0.0
 40
0.0475
  0
CIRCLE
  5
1033A
330
17
100
AcDbEntity
  8
0
100
AcDbCircle
 10
3.34437476868983
 20
0.2125
 30
0.0
 40
0.0475
  0
CIRCLE
  5
1033B
330
17
100
AcDbEntity
  8
0
100
AcDbCircle
 10
3.34437476868983
 20
0.3625
 30
0.0
 40
0.0475
  0
CIRCLE
  5
1033C
330
17
100
AcDbEntity
  8
0
100
AcDbCircle
 10
3.34437476868983
 20
0.5125
 30
0.0
 40
0.0475
  0
CIRCLE
  5
1033D
330
17
100
AcDbEntity
  8
0
100
AcDbCircle
 10
3.34437476868983
 20
0.6625
 30
0.0
 40
0.0475
  0
CIRCLE
  5
1033E
330
17
100
AcDbEntity
  8
0
100
AcDbCircle
 10
3.34437476868983
 20
0.8125
 30
0.0
 40
0.0475
  0
CIRCLE
  5
1033F
330
17
100
AcDbEntity
  8
0
100
AcDbCircle
 10
3.34437476868983
 20
0.9625
 30
0.0
 40
0.0475
  0
CIRCLE
  5
10340
330
17
100
AcDbEntity
  8
0
100
AcDbCircle
 10
3.34437476868983
 20
1.1125
 30
0.0
 40
0.0475
  0
CIRCLE
  5
10341
330
17
100
AcDbEntity
  8
0
100
AcDbCircle
 10
3.34437476868983
 20
1.2625
 30
0.0
 40
0.0475
  0
CIRCLE
  5
10342
330
17
100
AcDbEntity
  8
0
100
AcDbCircle
 10
3.34437476868983
 20
1.4125
 30
0.0
 40
0.0475
  0
CIRCLE
  5
10343
330
17
100
AcDbEntity
  8
0
100
AcDbCircle
 10
3.34437476868983
 20
1.5625
 30
0.0
 40
0.0475
  0
CIRCLE
  5
10344
330
17
100
AcDbEntity
  8
0
100
AcDbCircle
 10
3.34437476868983
 20
1.7125
 30
0.0
 40
0.0475
  0
CIRCLE
  5
10345
330
17
100
AcDbEntity
  8
0
100
AcDbCircle
 10
3.34437476868983
 20
1.8625
 30
0.0
 40
0.0475
  0
CIRCLE
  5
10346
330
17
100
AcDbEntity
  8
0
100
AcDbCircle
 10
3.34437476868983
 20
2.0125
 30
0.0
 40
0.0475
  0
CIRCLE
  5
10347
330
17
100
AcDbEntity
  8
0
100
AcDbCircle
 10
3.34437476868983
 20
2.1625
 30
0.0
 40
0.0475
  0
CIRCLE
  5
10348
330
17
100
AcDbEntity
  8
0
100
AcDbCircle
 10
3.34437476868983
 20
2.3125
 30
0.0
 40
0.0475
  0
CIRCLE
  5
10349
330
17
100
AcDbEntity
  8
0
100
AcDbCircle
 10
3.34437476868983
 20
2.4625
 30
0.0
 40
0.0475
  0
CIRCLE
  5
1034A
330
17
100
AcDbEntity
  8
0
100
AcDbCircle
 10
3.34437476868983
 20
2.6125
 30
0.0
 40
0.0475
  0
CIRCLE
  5
1034B
330
17
100
AcDbEntity
  8
0
100
AcDbCircle
 10
3.34437476868983
 20
2.7625
 30
0.0
 40
0.0475
  0
CIRCLE
  5
1034C
330
17
100
AcDbEntity
  8
0
100
AcDbCircle
 10
3.34437476868983
 20
2.9125
 30
0.0
 40
0.0475
  0
CIRCLE
  5
1034D
330
17
100
AcDbEntity
  8
0
100
AcDbCircle
 10
3.34437476868983
 20
3.0625
 30
0.0
 40
0.0475
  0
CIRCLE
  5
1034E
330
17
100
AcDbEntity
  8
0
100
AcDbCircle
 10
3.34437476868983
 20
3.2125
 30
0.0
 40
0.0475
  0
CIRCLE
  5
1034F
330
17
100
AcDbEntity
  8
0
100
AcDbCircle
 10
3.34437476868983
 20
3.3625
 30
0.0
 40
0.0475
  0
CIRCLE
  5
10350
330
17
100
AcDbEntity
  8
0
100
AcDbCircle
 10
3.34437476868983
 20
3.5125
 30
0.0
 40
0.0475
  0
CIRCLE
  5
10351
330
17
100
AcDbEntity
  8
0
100
AcDbCircle
 10
3.34437476868983
 20
3.6625
 30
0.0
 40
0.0475
  0
CIRCLE
  5
10352
330
17
100
AcDbEntity
  8
0
100
AcDbCircle
 10
3.34437476868983
 20
3.8125
 30
0.0
 40
0.0475
  0
CIRCLE
  5
10353
330
17
100
AcDbEntity
  8
0
100
AcDbCircle
 10
3.34437476868983
 20
3.9625
 30
0.0
 40
0.0475
  0
CIRCLE
  5
10354
330
17
100
AcDbEntity
  8
0
100
AcDbCircle
 10
3.34437476868983
 20
4.1125
 30
0.0
 40
0.0475
  0
CIRCLE
  5
10355
330
17
100
AcDbEntity
  8
0
100
AcDbCircle
 10
3.34437476868983
 20
4.2625
 30
0.0
 40
0.0475
  0
CIRCLE
  5
10356
330
17
100
AcDbEntity
  8
0
100
AcDbCircle
 10
3.34437476868983
 20
4.4125
 30
0.0
 40
0.0475
  0
CIRCLE
  5
10357
330
17
100
AcDbEntity
  8
0
100
AcDbCircle
 10
3.34437476868983
 20
4.5625
 30
0.0
 40
0.0475
  0
CIRCLE
  5
10358
330
17
100
AcDbEntity
  8
0
100
AcDbCircle
 10
3.34437476868983
 20
4.7125
 30
0.0
 40
0.0475
  0
CIRCLE
  5
10359
330
17
100
AcDbEntity
  8
0
100
AcDbCircle
 10
3.34437476868983
 20
4.8625
 30
0.0
 40
0.0475
  0
CIRCLE
  5
1035A
330
17
100
AcDbEntity
  8
0
100
AcDbCircle
 10
3.47427857925749
 20
0.1375
 30
0.0
 40
0.0475
  0
CIRCLE
  5
1035B
330
17
100
AcDbEntity
  8
0
100
AcDbCircle
 10
3.47427857925749
 20
0.2875
 30
0.0
 40
0.0475
  0
CIRCLE
  5
1035C
330
17
100
AcDbEntity
  8
0
100
AcDbCircle
 10
3.47427857925749
 20
0.4375
 30
0.0
 40
0.0475
  0
CIRCLE
  5
1035D
330
17
100
AcDbEntity
  8
0
100
AcDbCircle
 10
3.47427857925749
 20
0.5875
 30
0.0
 40
0.0475
  0
CIRCLE
  5
1035E
330
17
100
AcDbEntity
  8
0
100
AcDbCircle
 10
3.47427857925749
 20
0.7375
 30
0.0
 40
0.0475
  0
CIRCLE
  5
1035F
330
17
100
AcDbEntity
  8
0
100
AcDbCircle
 10
3.47427857925749
 20
0.8875
 30
0.0
 40
0.0475
  0
CIRCLE
  5
10360
330
17
100
AcDbEntity
  8
0
100
AcDbCircle
 10
3.47427857925749
 20
1.0375
 30
0.0
 40
0.0475
  0
CIRCLE
  5
10361
330
17
100
AcDbEntity
  8
0
100
AcDbCircle
 10
3.47427857925749
 20
1.1875
 30
0.0
 40
0.0475
  0
CIRCLE
  5
10362
330
17
100
AcDbEntity
  8
0
100
AcDbCircle
 10
3.47427857925749
 20
1.3375
 30
0.0
 40
0.0475
  0
CIRCLE
  5
10363
330
17
100
AcDbEntity
  8
0
100
AcDbCircle
 10
3.47427857925749
 20
1.4875
 30
0.0
 40
0.0475
  0
CIRCLE
  5
10364
330
17
100
AcDbEntity
  8
0
100
AcDbCircle
 10
3.47427857925749
 20
1.6375
 30
0.0
 40
0.0475
  0
CIRCLE
  5
10365
330
17
100
AcDbEntity
  8
0
100
AcDbCircle
 10
3.47427857925749
 20
1.7875
 30
0.0
 40
0.0475
  0
CIRCLE
  5
10366
330
17
100
AcDbEntity
  8
0
100
AcDbCircle
 10
3.47427857925749
 20
1.9375
 30
0.0
 40
0.0475
  0
CIRCLE
  5
10367
330
17
100
AcDbEntity
  8
0
100
AcDbCircle
 10
3.47427857925749
 20
2.0875
 30
0.0
 40
0.0475
  0
CIRCLE
  5
10368
330
17
100
AcDbEntity
  8
0
100
AcDbCircle
 10
3.47427857925749
 20
2.2375
 30
0.0
 40
0.0475
  0
CIRCLE
  5
10369
330
17
100
AcDbEntity
  8
0
100
AcDbCircle
 10
3.47427857925749
 20
2.3875
 30
0.0
 40
0.0475
  0
CIRCLE
  5
1036A
330
17
100
AcDbEntity
  8
0
100
AcDbCircle
 10
3.47427857925749
 20
2.5375
 30
0.0
 40
0.0475
  0
CIRCLE
  5
1036B
330
17
100
AcDbEntity
  8
0
100
AcDbCircle
 10
3.47427857925749
 20
2.6875
 30
0.0
 40
0.0475
  0
CIRCLE
  5
1036C
330
17
100
AcDbEntity
  8
0
100
AcDbCircle
 10
3.47427857925749
 20
2.8375
 30
0.0
 40
0.0475
  0
CIRCLE
  5
1036D
330
17
100
AcDbEntity
  8
0
100
AcDbCircle
 10
3.47427857925749
 20
2.9875
 30
0.0
 40
0.0475
  0
CIRCLE
  5
1036E
330
17
100
AcDbEntity
  8
0
100
AcDbCircle
 10
3.47427857925749
 20
3.1375
 30
0.0
 40
0.0475
  0
CIRCLE
  5
1036F
330
17
100
AcDbEntity
  8
0
100
AcDbCircle
 10
3.47427857925749
 20
3.2875
 30
0.0
 40
0.0475
  0
CIRCLE
  5
10370
330
17
100
AcDbEntity
  8
0
100
AcDbCircle
 10
3.47427857925749
 20
3.4375
 30
0.0
 40
0.0475
  0
CIRCLE
  5
10371
330
17
100
AcDbEntity
  8
0
100
AcDbCircle
 10
3.47427857925749
 20
3.5875
 30
0.0
 40
0.0475
  0
CIRCLE
  5
10372
330
17
100
AcDbEntity
  8
0
100
AcDbCircle
 10
3.47427857925749
 20
3.7375
 30
0.0
 40
0.0475
  0
CIRCLE
  5
10373
330
17
100
AcDbEntity
  8
0
100
AcDbCircle
 10
3.47427857925749
 20
3.8875
 30
0.0
 40
0.0475
  0
CIRCLE
  5
10374
330
17
100
AcDbEntity
  8
0
100
AcDbCircle
 10
3.47427857925749
 20
4.0375
 30
0.0
 40
0.0475
  0
CIRCLE
  5
10375
330
17
100
AcDbEntity
  8
0
100
AcDbCircle
 10
3.47427857925749
 20
4.1875
 30
0.0
 40
0.0475
  0
CIRCLE
  5
10376
330
17
100
AcDbEntity
  8
0
100
AcDbCircle
 10
3.47427857925749
 20
4.3375
 30
0.0
 40
0.0475
  0
CIRCLE
  5
10377
330
17
100
AcDbEntity
  8
0
100
AcDbCircle
 10
3.47427857925749
 20
4.4875
 30
0.0
 40
0.0475
  0
CIRCLE
  5
10378
330
17
100
AcDbEntity
  8
0
100
AcDbCircle
 10
3.47427857925749
 20
4.6375
 30
0.0
 40
0.0475
  0
CIRCLE
  5
10379
330
17
100
AcDbEntity
  8
0
100
AcDbCircle
 10
3.47427857925749
 20
4.7875
 30
0.0
 40
0.0475
  0
CIRCLE
  5
1037A
330
17
100
AcDbEntity
  8
0
100
AcDbCircle
 10
3.47427857925749
 20
4.9375
 30
0.0
 40
0.0475
  0
CIRCLE
  5
1037B
330
17
100
AcDbEntity
  8
0
100
AcDbCircle
 10
3.60418238982516
 20
0.0625000000000001
 30
0.0
 40
0.0475
  0
CIRCLE
  5
1037C
330
17
100
AcDbEntity
  8
0
100
AcDbCircle
 10
3.60418238982516
 20
0.2125
 30
0.0
 40
0.0475
  0
CIRCLE
  5
1037D
330
17
100
AcDbEntity
  8
0
100
AcDbCircle
 10
3.60418238982516
 20
0.3625
 30
0.0
 40
0.0475
  0
CIRCLE
  5
1037E
330
17
100
AcDbEntity
  8
0
100
AcDbCircle
 10
3.60418238982516
 20
0.5125
 30
0.0
 40
0.0475
  0
CIRCLE
  5
1037F
330
17
100
AcDbEntity
  8
0
100
AcDbCircle
 10
3.60418238982516
 20
0.6625
 30
0.0
 40
0.0475
  0
CIRCLE
  5
10380
330
17
100
AcDbEntity
  8
0
100
AcDbCircle
 10
3.60418238982516
 20
0.8125
 30
0.0
 40
0.0475
  0
CIRCLE
  5
10381
330
17
100
AcDbEntity
  8
0
100
AcDbCircle
 10
3.60418238982516
 20
0.9625
 30
0.0
 40
0.0475
  0
CIRCLE
  5
10382
330
17
100
AcDbEntity
  8
0
100
AcDbCircle
 10
3.60418238982516
 20
1.1125
 30
0.0
 40
0.0475
  0
CIRCLE
  5
10383
330
17
100
AcDbEntity
  8
0
100
AcDbCircle
 10
3.60418238982516
 20
1.2625
 30
0.0
 40
0.0475
  0
CIRCLE
  5
10384
330
17
100
AcDbEntity
  8
0
100
AcDbCircle
 10
3.60418238982516
 20
1.4125
 30
0.0
 40
0.0475
  0
CIRCLE
  5
10385
330
17
100
AcDbEntity
  8
0
100
AcDbCircle
 10
3.60418238982516
 20
1.5625
 30
0.0
 40
0.0475
  0
CIRCLE
  5
10386
330
17
100
AcDbEntity
  8
0
100
AcDbCircle
 10
3.60418238982516
 20
1.7125
 30
0.0
 40
0.0475
  0
CIRCLE
  5
10387
330
17
100
AcDbEntity
  8
0
100
AcDbCircle
 10
3.60418238982516
 20
1.8625
 30
0.0
 40
0.0475
  0
CIRCLE
  5
10388
330
17
100
AcDbEntity
  8
0
100
AcDbCircle
 10
3.60418238982516
 20
2.0125
 30
0.0
 40
0.0475
  0
CIRCLE
  5
10389
330
17
100
AcDbEntity
  8
0
100
AcDbCircle
 10
3.60418238982516
 20
2.1625
 30
0.0
 40
0.0475
  0
CIRCLE
  5
1038A
330
17
100
AcDbEntity
  8
0
100
AcDbCircle
 10
3.60418238982516
 20
2.3125
 30
0.0
 40
0.0475
  0
CIRCLE
  5
1038B
330
17
100
AcDbEntity
  8
0
100
AcDbCircle
 10
3.60418238982516
 20
2.4625
 30
0.0
 40
0.0475
  0
CIRCLE
  5
1038C
330
17
100
AcDbEntity
  8
0
100
AcDbCircle
 10
3.60418238982516
 20
2.6125
 30
0.0
 40
0.0475
  0
CIRCLE
  5
1038D
330
17
100
AcDbEntity
  8
0
100
AcDbCircle
 10
3.60418238982516
 20
2.7625
 30
0.0
 40
0.0475
  0
CIRCLE
  5
1038E
330
17
100
AcDbEntity
  8
0
100
AcDbCircle
 10
3.60418238982516
 20
2.9125
 30
0.0
 40
0.0475
  0
CIRCLE
  5
1038F
330
17
100
AcDbEntity
  8
0
100
AcDbCircle
 10
3.60418238982516
 20
3.0625
 30
0.0
 40
0.0475
  0
CIRCLE
  5
10390
330
17
100
AcDbEntity
  8
0
100
AcDbCircle
 10
3.60418238982516
 20
3.2125
 30
0.0
 40
0.0475
  0
CIRCLE
  5
10391
330
17
100
AcDbEntity
  8
0
100
AcDbCircle
 10
3.60418238982516
 20
3.3625
 30
0.0
 40
0.0475
  0
CIRCLE
  5
10392
330
17
100
AcDbEntity
  8
0
100
AcDbCircle
 10
3.60418238982516
 20
3.5125
 30
0.0
 40
0.0475
  0
CIRCLE
  5
10393
330
17
100
AcDbEntity
  8
0
100
AcDbCircle
 10
3.60418238982516
 20
3.6625
 30
0.0
 40
0.0475
  0
CIRCLE
  5
10394
330
17
100
AcDbEntity
  8
0
100
AcDbCircle
 10
3.60418238982516
 20
3.8125
 30
0.0
 40
0.0475
  0
CIRCLE
  5
10395
330
17
100
AcDbEntity
  8
0
100
AcDbCircle
 10
3.60418238982516
 20
3.9625
 30
0.0
 40
0.0475
  0
CIRCLE
  5
10396
330
17
100
AcDbEntity
  8
0
100
AcDbCircle
 10
3.60418238982516
 20
4.1125
 30
0.0
 40
0.0475
  0
CIRCLE
  5
10397
330
17
100
AcDbEntity
  8
0
100
AcDbCircle
 10
3.60418238982516
 20
4.2625
 30
0.0
 40
0.0475
  0
CIRCLE
  5
10398
330
17
100
AcDbEntity
  8
0
100
AcDbCircle
 10
3.60418238982516
 20
4.4125
 30
0.0
 40
0.0475
  0
CIRCLE
  5
10399
330
17
100
AcDbEntity
  8
0
100
AcDbCircle
 10
3.60418238982516
 20
4.5625
 30
0.0
 40
0.0475
  0
CIRCLE
  5
1039A
330
17
100
AcDbEntity
  8
0
100
AcDbCircle
 10
3.60418238982516
 20
4.7125
 30
0.0
 40
0.0475
  0
CIRCLE
  5
1039B
330
17
100
AcDbEntity
  8
0
100
AcDbCircle
 10
3.60418238982516
 20
4.8625
 30
0.0
 40
0.0475
  0
CIRCLE
  5
1039C
330
17
100
AcDbEntity
  8
0
100
AcDbCircle
 10
3.73408620039283
 20
0.1375
 30
0.0
 40
0.0475
  0
CIRCLE
  5
1039D
330
17
100
AcDbEntity
  8
0
100
AcDbCircle
 10
3.73408620039283
 20
0.2875
 30
0.0
 40
0.0475
  0
CIRCLE
  5
1039E
330
17
100
AcDbEntity
  8
0
100
AcDbCircle
 10
3.73408620039283
 20
0.4375
 30
0.0
 40
0.0475
  0
CIRCLE
  5
1039F
330
17
100
AcDbEntity
  8
0
100
AcDbCircle
 10
3.73408620039283
 20
0.5875
 30
0.0
 40
0.0475
  0
CIRCLE
  5
103A0
330
17
100
AcDbEntity
  8
0
100
AcDbCircle
 10
3.73408620039283
 20
0.7375
 30
0.0
 40
0.0475
  0
CIRCLE
  5
103A1
330
17
100
AcDbEntity
  8
0
100
AcDbCircle
 10
3.73408620039283
 20
0.8875
 30
0.0
 40
0.0475
  0
CIRCLE
  5
103A2
330
17
100
AcDbEntity
  8
0
100
AcDbCircle
 10
3.73408620039283
 20
1.0375
 30
0.0
 40
0.0475
  0
CIRCLE
  5
103A3
330
17
100
AcDbEntity
  8
0
100
AcDbCircle
 10
3.73408620039283
 20
1.1875
 30
0.0
 40
0.0475
  0
CIRCLE
  5
103A4
330
17
100
AcDbEntity
  8
0
100
AcDbCircle
 10
3.73408620039283
 20
1.3375
 30
0.0
 40
0.0475
  0
CIRCLE
  5
103A5
330
17
100
AcDbEntity
  8
0
100
AcDbCircle
 10
3.73408620039283
 20
1.4875
 30
0.0
 40
0.0475
  0
CIRCLE
  5
103A6
330
17
100
AcDbEntity
  8
0
100
AcDbCircle
 10
3.73408620039283
 20
1.6375
 30
0.0
 40
0.0475
  0
CIRCLE
  5
103A7
330
17
100
AcDbEntity
  8
0
100
AcDbCircle
 10
3.73408620039283
 20
1.7875
 30
0.0
 40
0.0475
  0
CIRCLE
  5
103A8
330
17
100
AcDbEntity
  8
0
100
AcDbCircle
 10
3.73408620039283
 20
1.9375
 30
0.0
 40
0.0475
  0
CIRCLE
  5
103A9
330
17
100
AcDbEntity
  8
0
100
AcDbCircle
 10
3.73408620039283
 20
2.0875
 30
0.0
 40
0.0475
  0
CIRCLE
  5
103AA
330
17
100
AcDbEntity
  8
0
100
AcDbCircle
 10
3.73408620039283
 20
2.2375
 30
0.0
 40
0.0475
  0
CIRCLE
  5
103AB
330
17
100
AcDbEntity
  8
0
100
AcDbCircle
 10
3.73408620039283
 20
2.3875
 30
0.0
 40
0.0475
  0
CIRCLE
  5
103AC
330
17
100
AcDbEntity
  8
0
100
AcDbCircle
 10
3.73408620039283
 20
2.5375
 30
0.0
 40
0.0475
  0
CIRCLE
  5
103AD
330
17
100
AcDbEntity
  8
0
100
AcDbCircle
 10
3.73408620039283
 20
2.6875
 30
0.0
 40
0.0475
  0
CIRCLE
  5
103AE
330
17
100
AcDbEntity
  8
0
100
AcDbCircle
 10
3.73408620039283
 20
2.8375
 30
0.0
 40
0.0475
  0
CIRCLE
  5
103AF
330
17
100
AcDbEntity
  8
0
100
AcDbCircle
 10
3.73408620039283
 20
2.9875
 30
0.0
 40
0.0475
  0
CIRCLE
  5
103B0
330
17
100
AcDbEntity
  8
0
100
AcDbCircle
 10
3.73408620039283
 20
3.1375
 30
0.0
 40
0.0475
  0
CIRCLE
  5
103B1
330
17
100
AcDbEntity
  8
0
100
AcDbCircle
 10
3.73408620039283
 20
3.2875
 30
0.0
 40
0.0475
  0
CIRCLE
  5
103B2
330
17
100
AcDbEntity
  8
0
100
AcDbCircle
 10
3.73408620039283
 20
3.4375
 30
0.0
 40
0.0475
  0
CIRCLE
  5
103B3
330
17
100
AcDbEntity
  8
0
100
AcDbCircle
 10
3.73408620039283
 20
3.5875
 30
0.0
 40
0.0475
  0
CIRCLE
  5
103B4
330
17
100
AcDbEntity
  8
0
100
AcDbCircle
 10
3.73408620039283
 20
3.7375
 30
0.0
 40
0.0475
  0
CIRCLE
  5
103B5
330
17
100
AcDbEntity
  8
0
100
AcDbCircle
 10
3.73408620039283
 20
3.8875
 30
0.0
 40
0.0475
  0
CIRCLE
  5
103B6
330
17
100
AcDbEntity
  8
0
100
AcDbCircle
 10
3.73408620039283
 20
4.0375
 30
0.0
 40
0.0475
  0
CIRCLE
  5
103B7
330
17
100
AcDbEntity
  8
0
100
AcDbCircle
 10
3.73408620039283
 20
4.1875
 30
0.0
 40
0.0475
  0
CIRCLE
  5
103B8
330
17
100
AcDbEntity
  8
0
100
AcDbCircle
 10
3.73408620039283
 20
4.3375
 30
0.0
 40
0.0475
  0
CIRCLE
  5
103B9
330
17
100
AcDbEntity
  8
0
100
AcDbCircle
 10
3.73408620039283
 20
4.4875
 30
0.0
 40
0.0475
  0
CIRCLE
  5
103BA
330
17
100
AcDbEntity
  8
0
100
AcDbCircle
 10
3.73408620039283
 20
4.6375
 30
0.0
 40
0.0475
  0
CIRCLE
  5
103BB
330
17
100
AcDbEntity
  8
0
100
AcDbCircle
 10
3.73408620039283
 20
4.7875
 30
0.0
 40
0.0475
  0
CIRCLE
  5
103BC
330
17
100
AcDbEntity
  8
0
100
AcDbCircle
 10
3.73408620039283
 20
4.9375
 30
0.0
 40
0.0475
  0
CIRCLE
  5
103BD
330
17
100
AcDbEntity
  8
0
100
AcDbCircle
 10
3.86399001096049
 20
0.0625000000000001
 30
0.0
 40
0.0475
  0
CIRCLE
  5
103BE
330
17
100
AcDbEntity
  8
0
100
AcDbCircle
 10
3.86399001096049
 20
0.2125
 30
0.0
 40
0.0475
  0
CIRCLE
  5
103BF
330
17
100
AcDbEntity
  8
0
100
AcDbCircle
 10
3.86399001096049
 20
0.3625
 30
0.0
 40
0.0475
  0
CIRCLE
  5
103C0
330
17
100
AcDbEntity
  8
0
100
AcDbCircle
 10
3.86399001096049
 20
0.5125
 30
0.0
 40
0.0475
  0
CIRCLE
  5
103C1
330
17
100
AcDbEntity
  8
0
100
AcDbCircle
 10
3.86399001096049
 20
0.6625
 30
0.0
 40
0.0475
  0
CIRCLE
  5
103C2
330
17
100
AcDbEntity
  8
0
100
AcDbCircle
 10
3.86399001096049
 20
0.8125
 30
0.0
 40
0.0475
  0
CIRCLE
  5
103C3
330
17
100
AcDbEntity
  8
0
100
AcDbCircle
 10
3.86399001096049
 20
0.9625
 30
0.0
 40
0.0475
  0
CIRCLE
  5
103C4
330
17
100
AcDbEntity
  8
0
100
AcDbCircle
 10
3.86399001096049
 20
1.1125
 30
0.0
 40
0.0475
  0
CIRCLE
  5
103C5
330
17
100
AcDbEntity
  8
0
100
AcDbCircle
 10
3.86399001096049
 20
1.2625
 30
0.0
 40
0.0475
  0
CIRCLE
  5
103C6
330
17
100
AcDbEntity
  8
0
100
AcDbCircle
 10
3.86399001096049
 20
1.4125
 30
0.0
 40
0.0475
  0
CIRCLE
  5
103C7
330
17
100
AcDbEntity
  8
0
100
AcDbCircle
 10
3.86399001096049
 20
1.5625
 30
0.0
 40
0.0475
  0
CIRCLE
  5
103C8
330
17
100
AcDbEntity
  8
0
100
AcDbCircle
 10
3.86399001096049
 20
1.7125
 30
0.0
 40
0.0475
  0
CIRCLE
  5
103C9
330
17
100
AcDbEntity
  8
0
100
AcDbCircle
 10
3.86399001096049
 20
1.8625
 30
0.0
 40
0.0475
  0
CIRCLE
  5
103CA
330
17
100
AcDbEntity
  8
0
100
AcDbCircle
 10
3.86399001096049
 20
2.0125
 30
0.0
 40
0.0475
  0
CIRCLE
  5
103CB
330
17
100
AcDbEntity
  8
0
100
AcDbCircle
 10
3.86399001096049
 20
2.1625
 30
0.0
 40
0.0475
  0
CIRCLE
  5
103CC
330
17
100
AcDbEntity
  8
0
100
AcDbCircle
 10
3.86399001096049
 20
2.3125
 30
0.0
 40
0.0475
  0
CIRCLE
  5
103CD
330
17
100
AcDbEntity
  8
0
100
AcDbCircle
 10
3.86399001096049
 20
2.4625
 30
0.0
 40
0.0475
  0
CIRCLE
  5
103CE
330
17
100
AcDbEntity
  8
0
100
AcDbCircle
 10
3.86399001096049
 20
2.6125
 30
0.0
 40
0.0475
  0
CIRCLE
  5
103CF
330
17
100
AcDbEntity
  8
0
100
AcDbCircle
 10
3.86399001096049
 20
2.7625
 30
0.0
 40
0.0475
  0
CIRCLE
  5
103D0
330
17
100
AcDbEntity
  8
0
100
AcDbCircle
 10
3.86399001096049
 20
2.9125
 30
0.0
 40
0.0475
  0
CIRCLE
  5
103D1
330
17
100
AcDbEntity
  8
0
100
AcDbCircle
 10
3.86399001096049
 20
3.0625
 30
0.0
 40
0.0475
  0
CIRCLE
  5
103D2
330
17
100
AcDbEntity
  8
0
100
AcDbCircle
 10
3.86399001096049
 20
3.2125
 30
0.0
 40
0.0475
  0
CIRCLE
  5
103D3
330
17
100
AcDbEntity
  8
0
100
AcDbCircle
 10
3.86399001096049
 20
3.3625
 30
0.0
 40
0.0475
  0
CIRCLE
  5
103D4
330
17
100
AcDbEntity
  8
0
100
AcDbCircle
 10
3.86399001096049
 20
3.5125
 30
0.0
 40
0.0475
  0
CIRCLE
  5
103D5
330
17
100
AcDbEntity
  8
0
100
AcDbCircle
 10
3.86399001096049
 20
3.6625
 30
0.0
 40
0.0475
  0
CIRCLE
  5
103D6
330
17
100
AcDbEntity
  8
0
100
AcDbCircle
 10
3.86399001096049
 20
3.8125
 30
0.0
 40
0.0475
  0
CIRCLE
  5
103D7
330
17
100
AcDbEntity
  8
0
100
AcDbCircle
 10
3.86399001096049
 20
3.9625
 30
0.0
 40
0.0475
  0
CIRCLE
  5
103D8
330
17
100
AcDbEntity
  8
0
100
AcDbCircle
 10
3.86399001096049
 20
4.1125
 30
0.0
 40
0.0475
  0
CIRCLE
  5
103D9
330
17
100
AcDbEntity
  8
0
100
AcDbCircle
 10
3.86399001096049
 20
4.2625
 30
0.0
 40
0.0475
  0
CIRCLE
  5
103DA
330
17
100
AcDbEntity
  8
0
100
AcDbCircle
 10
3.86399001096049
 20
4.4125
 30
0.0
 40
0.0475
  0
CIRCLE
  5
103DB
330
17
100
AcDbEntity
  8
0
100
AcDbCircle
 10
3.86399001096049
 20
4.5625
 30
0.0
 40
0.0475
  0
CIRCLE
  5
103DC
330
17
100
AcDbEntity
  8
0
100
AcDbCircle
 10
3.86399001096049
 20
4.7125
 30
0.0
 40
0.0475
  0
CIRCLE
  5
103DD
330
17
100
AcDbEntity
  8
0
100
AcDbCircle
 10
3.86399001096049
 20
4.8625
 30
0.0
 40
0.0475
  0
CIRCLE
  5
103DE
330
17
100
AcDbEntity
  8
0
100
AcDbCircle
 10
3.99389382152816
 20
0.1375
 30
0.0
 40
0.0475
  0
CIRCLE
  5
103DF
330
17
100
AcDbEntity
  8
0
100
AcDbCircle
 10
3.99389382152816
 20
0.2875
 30
0.0
 40
0.0475
  0
CIRCLE
  5
103E0
330
17
100
AcDbEntity
  8
0
100
AcDbCircle
 10
3.99389382152816
 20
0.4375
 30
0.0
 40
0.0475
  0
CIRCLE
  5
103E1
330
17
100
AcDbEntity
  8
0
100
AcDbCircle
 10
3.99389382152816
 20
0.5875
 30
0.0
 40
0.0475
  0
CIRCLE
  5
103E2
330
17
100
AcDbEntity
  8
0
100
AcDbCircle
 10
3.99389382152816
 20
0.7375
 30
0.0
 40
0.0475
  0
CIRCLE
  5
103E3
330
17
100
AcDbEntity
  8
0
100
AcDbCircle
 10
3.99389382152816
 20
0.8875
 30
0.0
 40
0.0475
  0
CIRCLE
  5
103E4
330
17
100
AcDbEntity
  8
0
100
AcDbCircle
 10
3.99389382152816
 20
1.0375
 30
0.0
 40
0.0475
  0
CIRCLE
  5
103E5
330
17
100
AcDbEntity
  8
0
100
AcDbCircle
 10
3.99389382152816
 20
1.1875
 30
0.0
 40
0.0475
  0
CIRCLE
  5
103E6
330
17
100
AcDbEntity
  8
0
100
AcDbCircle
 10
3.99389382152816
 20
1.3375
 30
0.0
 40
0.0475
  0
CIRCLE
  5
103E7
330
17
100
AcDbEntity
  8
0
100
AcDbCircle
 10
3.99389382152816
 20
1.4875
 30
0.0
 40
0.0475
  0
CIRCLE
  5
103E8
330
17
100
AcDbEntity
  8
0
100
AcDbCircle
 10
3.99389382152816
 20
1.6375
 30
0.0
 40
0.0475
  0
CIRCLE
  5
103E9
330
17
100
AcDbEntity
  8
0
100
AcDbCircle
 10
3.99389382152816
 20
1.7875
 30
0.0
 40
0.0475
  0
CIRCLE
  5
103EA
330
17
100
AcDbEntity
  8
0
100
AcDbCircle
 10
3.99389382152816
 20
1.9375
 30
0.0
 40
0.0475
  0
CIRCLE
  5
103EB
330
17
100
AcDbEntity
  8
0
100
AcDbCircle
 10
3.99389382152816
 20
2.0875
 30
0.0
 40
0.0475
  0
CIRCLE
  5
103EC
330
17
100
AcDbEntity
  8
0
100
AcDbCircle
 10
3.99389382152816
 20
2.2375
 30
0.0
 40
0.0475
  0
CIRCLE
  5
103ED
330
17
100
AcDbEntity
  8
0
100
AcDbCircle
 10
3.99389382152816
 20
2.3875
 30
0.0
 40
0.0475
  0
CIRCLE
  5
103EE
330
17
100
AcDbEntity
  8
0
100
AcDbCircle
 10
3.99389382152816
 20
2.5375
 30
0.0
 40
0.0475
  0
CIRCLE
  5
103EF
330
17
100
AcDbEntity
  8
0
100
AcDbCircle
 10
3.99389382152816
 20
2.6875
 30
0.0
 40
0.0475
  0
CIRCLE
  5
103F0
330
17
100
AcDbEntity
  8
0
100
AcDbCircle
 10
3.99389382152816
 20
2.8375
 30
0.0
 40
0.0475
  0
CIRCLE
  5
103F1
330
17
100
AcDbEntity
  8
0
100
AcDbCircle
 10
3.99389382152816
 20
2.9875
 30
0.0
 40
0.0475
  0
CIRCLE
  5
103F2
330
17
100
AcDbEntity
  8
0
100
AcDbCircle
 10
3.99389382152816
 20
3.1375
 30
0.0
 40
0.0475
  0
CIRCLE
  5
103F3
330
17
100
AcDbEntity
  8
0
100
AcDbCircle
 10
3.99389382152816
 20
3.2875
 30
0.0
 40
0.0475
  0
CIRCLE
  5
103F4
330
17
100
AcDbEntity
  8
0
100
AcDbCircle
 10
3.99389382152816
 20
3.4375
 30
0.0
 40
0.0475
  0
CIRCLE
  5
103F5
330
17
100
AcDbEntity
  8
0
100
AcDbCircle
 10
3.99389382152816
 20
3.5875
 30
0.0
 40
0.0475
  0
CIRCLE
  5
103F6
330
17
100
AcDbEntity
  8
0
100
AcDbCircle
 10
3.99389382152816
 20
3.7375
 30
0.0
 40
0.0475
  0
CIRCLE
  5
103F7
330
17
100
AcDbEntity
  8
0
100
AcDbCircle
 10
3.99389382152816
 20
3.8875
 30
0.0
 40
0.0475
  0
CIRCLE
  5
103F8
330
17
100
AcDbEntity
  8
0
100
AcDbCircle
 10
3.99389382152816
 20
4.0375
 30
0.0
 40
0.0475
  0
CIRCLE
  5
103F9
330
17
100
AcDbEntity
  8
0
100
AcDbCircle
 10
3.99389382152816
 20
4.1875
 30
0.0
 40
0.0475
  0
CIRCLE
  5
103FA
330
17
100
AcDbEntity
  8
0
100
AcDbCircle
 10
3.99389382152816
 20
4.3375
 30
0.0
 40
0.0475
  0
CIRCLE
  5
103FB
330
17
100
AcDbEntity
  8
0
100
AcDbCircle
 10
3.99389382152816
 20
4.4875
 30
0.0
 40
0.0475
  0
CIRCLE
  5
103FC
330
17
100
AcDbEntity
  8
0
100
AcDbCircle
 10
3.99389382152816
 20
4.6375
 30
0.0
 40
0.0475
  0
CIRCLE
  5
103FD
330
17
100
AcDbEntity
  8
0
100
AcDbCircle
 10
3.99389382152816
 20
4.7875
 30
0.0
 40
0.0475
  0
CIRCLE
  5
103FE
330
17
100
AcDbEntity
  8
0
100
AcDbCircle
 10
3.99389382152816
 20
4.9375
 30
0.0
 40
0.0475
  0
CIRCLE
  5
103FF
330
17
100
AcDbEntity
  8
0
100
AcDbCircle
 10
4.12379763209582
 20
0.0625000000000001
 30
0.0
 40
0.0475
  0
CIRCLE
  5
10400
330
17
100
AcDbEntity
  8
0
100
AcDbCircle
 10
4.12379763209582
 20
0.2125
 30
0.0
 40
0.0475
  0
CIRCLE
  5
10401
330
17
100
AcDbEntity
  8
0
100
AcDbCircle
 10
4.12379763209582
 20
0.3625
 30
0.0
 40
0.0475
  0
CIRCLE
  5
10402
330
17
100
AcDbEntity
  8
0
100
AcDbCircle
 10
4.12379763209582
 20
0.5125
 30
0.0
 40
0.0475
  0
CIRCLE
  5
10403
330
17
100
AcDbEntity
  8
0
100
AcDbCircle
 10
4.12379763209582
 20
0.6625
 30
0.0
 40
0.0475
  0
CIRCLE
  5
10404
330
17
100
AcDbEntity
  8
0
100
AcDbCircle
 10
4.12379763209582
 20
0.8125
 30
0.0
 40
0.0475
  0
CIRCLE
  5
10405
330
17
100
AcDbEntity
  8
0
100
AcDbCircle
 10
4.12379763209582
 20
0.9625
 30
0.0
 40
0.0475
  0
CIRCLE
  5
10406
330
17
100
AcDbEntity
  8
0
100
AcDbCircle
 10
4.12379763209582
 20
1.1125
 30
0.0
 40
0.0475
  0
CIRCLE
  5
10407
330
17
100
AcDbEntity
  8
0
100
AcDbCircle
 10
4.12379763209582
 20
1.2625
 30
0.0
 40
0.0475
  0
CIRCLE
  5
10408
330
17
100
AcDbEntity
  8
0
100
AcDbCircle
 10
4.12379763209582
 20
1.4125
 30
0.0
 40
0.0475
  0
CIRCLE
  5
10409
330
17
100
AcDbEntity
  8
0
100
AcDbCircle
 10
4.12379763209582
 20
1.5625
 30
0.0
 40
0.0475
  0
CIRCLE
  5
1040A
330
17
100
AcDbEntity
  8
0
100
AcDbCircle
 10
4.12379763209582
 20
1.7125
 30
0.0
 40
0.0475
  0
CIRCLE
  5
1040B
330
17
100
AcDbEntity
  8
0
100
AcDbCircle
 10
4.12379763209582
 20
1.8625
 30
0.0
 40
0.0475
  0
CIRCLE
  5
1040C
330
17
100
AcDbEntity
  8
0
100
AcDbCircle
 10
4.12379763209582
 20
2.0125
 30
0.0
 40
0.0475
  0
CIRCLE
  5
1040D
330
17
100
AcDbEntity
  8
0
100
AcDbCircle
 10
4.12379763209582
 20
2.1625
 30
0.0
 40
0.0475
  0
CIRCLE
  5
1040E
330
17
100
AcDbEntity
  8
0
100
AcDbCircle
 10
4.12379763209582
 20
2.3125
 30
0.0
 40
0.0475
  0
CIRCLE
  5
1040F
330
17
100
AcDbEntity
  8
0
100
AcDbCircle
 10
4.12379763209582
 20
2.4625
 30
0.0
 40
0.0475
  0
CIRCLE
  5
10410
330
17
100
AcDbEntity
  8
0
100
AcDbCircle
 10
4.12379763209582
 20
2.6125
 30
0.0
 40
0.0475
  0
CIRCLE
  5
10411
330
17
100
AcDbEntity
  8
0
100
AcDbCircle
 10
4.12379763209582
 20
2.7625
 30
0.0
 40
0.0475
  0
CIRCLE
  5
10412
330
17
100
AcDbEntity
  8
0
100
AcDbCircle
 10
4.12379763209582
 20
2.9125
 30
0.0
 40
0.0475
  0
CIRCLE
  5
10413
330
17
100
AcDbEntity
  8
0
100
AcDbCircle
 10
4.12379763209582
 20
3.0625
 30
0.0
 40
0.0475
  0
CIRCLE
  5
10414
330
17
100
AcDbEntity
  8
0
100
AcDbCircle
 10
4.12379763209582
 20
3.2125
 30
0.0
 40
0.0475
  0
CIRCLE
  5
10415
330
17
100
AcDbEntity
  8
0
100
AcDbCircle
 10
4.12379763209582
 20
3.3625
 30
0.0
 40
0.0475
  0
CIRCLE
  5
10416
330
17
100
AcDbEntity
  8
0
100
AcDbCircle
 10
4.12379763209582
 20
3.5125
 30
0.0
 40
0.0475
  0
CIRCLE
  5
10417
330
17
100
AcDbEntity
  8
0
100
AcDbCircle
 10
4.12379763209582
 20
3.6625
 30
0.0
 40
0.0475
  0
CIRCLE
  5
10418
330
17
100
AcDbEntity
  8
0
100
AcDbCircle
 10
4.12379763209582
 20
3.8125
 30
0.0
 40
0.0475
  0
CIRCLE
  5
10419
330
17
100
AcDbEntity
  8
0
100
AcDbCircle
 10
4.12379763209582
 20
3.9625
 30
0.0
 40
0.0475
  0
CIRCLE
  5
1041A
330
17
100
AcDbEntity
  8
0
100
AcDbCircle
 10
4.12379763209582
 20
4.1125
 30
0.0
 40
0.0475
  0
CIRCLE
  5
1041B
330
17
100
AcDbEntity
  8
0
100
AcDbCircle
 10
4.12379763209582
 20
4.2625
 30
0.0
 40
0.0475
  0
CIRCLE
  5
1041C
330
17
100
AcDbEntity
  8
0
100
AcDbCircle
 10
4.12379763209582
 20
4.4125
 30
0.0
 40
0.0475
  0
CIRCLE
  5
1041D
330
17
100
AcDbEntity
  8
0
100
AcDbCircle
 10
4.12379763209582
 20
4.5625
 30
0.0
 40
0.0475
  0
CIRCLE
  5
1041E
330
17
100
AcDbEntity
  8
0
100
AcDbCircle
 10
4.12379763209582
 20
4.7125
 30
0.0
 40
0.0475
  0
CIRCLE
  5
1041F
330
17
100
AcDbEntity
  8
0
100
AcDbCircle
 10
4.12379763209582
 20
4.8625
 30
0.0
 40
0.0475
  0
CIRCLE
  5
10420
330
17
100
AcDbEntity
  8
0
100
AcDbCircle
 10
4.25370144266349
 20
0.1375
 30
0.0
 40
0.0475
  0
CIRCLE
  5
10421
330
17
100
AcDbEntity
  8
0
100
AcDbCircle
 10
4.25370144266349
 20
0.2875
 30
0.0
 40
0.0475
  0
CIRCLE
  5
10422
330
17
100
AcDbEntity
  8
0
100
AcDbCircle
 10
4.25370144266349
 20
0.4375
 30
0.0
 40
0.0475
  0
CIRCLE
  5
10423
330
17
100
AcDbEntity
  8
0
100
AcDbCircle
 10
4.25370144266349
 20
0.5875
 30
0.0
 40
0.0475
  0
CIRCLE
  5
10424
330
17
100
AcDbEntity
  8
0
100
AcDbCircle
 10
4.25370144266349
 20
0.7375
 30
0.0
 40
0.0475
  0
CIRCLE
  5
10425
330
17
100
AcDbEntity
  8
0
100
AcDbCircle
 10
4.25370144266349
 20
0.8875
 30
0.0
 40
0.0475
  0
CIRCLE
  5
10426
330
17
100
AcDbEntity
  8
0
100
AcDbCircle
 10
4.25370144266349
 20
1.0375
 30
0.0
 40
0.0475
  0
CIRCLE
  5
10427
330
17
100
AcDbEntity
  8
0
100
AcDbCircle
 10
4.25370144266349
 20
1.1875
 30
0.0
 40
0.0475
  0
CIRCLE
  5
10428
330
17
100
AcDbEntity
  8
0
100
AcDbCircle
 10
4.25370144266349
 20
1.3375
 30
0.0
 40
0.0475
  0
CIRCLE
  5
10429
330
17
100
AcDbEntity
  8
0
100
AcDbCircle
 10
4.25370144266349
 20
1.4875
 30
0.0
 40
0.0475
  0
CIRCLE
  5
1042A
330
17
100
AcDbEntity
  8
0
100
AcDbCircle
 10
4.25370144266349
 20
1.6375
 30
0.0
 40
0.0475
  0
CIRCLE
  5
1042B
330
17
100
AcDbEntity
  8
0
100
AcDbCircle
 10
4.25370144266349
 20
1.7875
 30
0.0
 40
0.0475
  0
CIRCLE
  5
1042C
330
17
100
AcDbEntity
  8
0
100
AcDbCircle
 10
4.25370144266349
 20
1.9375
 30
0.0
 40
0.0475
  0
CIRCLE
  5
1042D
330
17
100
AcDbEntity
  8
0
100
AcDbCircle
 10
4.25370144266349
 20
2.0875
 30
0.0
 40
0.0475
  0
CIRCLE
  5
1042E
330
17
100
AcDbEntity
  8
0
100
AcDbCircle
 10
4.25370144266349
 20
2.2375
 30
0.0
 40
0.0475
  0
CIRCLE
  5
1042F
330
17
100
AcDbEntity
  8
0
100
AcDbCircle
 10
4.25370144266349
 20
2.3875
 30
0.0
 40
0.0475
  0
CIRCLE
  5
10430
330
17
100
AcDbEntity
  8
0
100
AcDbCircle
 10
4.25370144266349
 20
2.5375
 30
0.0
 40
0.0475
  0
CIRCLE
  5
10431
330
17
100
AcDbEntity
  8
0
100
AcDbCircle
 10
4.25370144266349
 20
2.6875
 30
0.0
 40
0.0475
  0
CIRCLE
  5
10432
330
17
100
AcDbEntity
  8
0
100
AcDbCircle
 10
4.25370144266349
 20
2.8375
 30
0.0
 40
0.0475
  0
CIRCLE
  5
10433
330
17
100
AcDbEntity
  8
0
100
AcDbCircle
 10
4.25370144266349
 20
2.9875
 30
0.0
 40
0.0475
  0
CIRCLE
  5
10434
330
17
100
AcDbEntity
  8
0
100
AcDbCircle
 10
4.25370144266349
 20
3.1375
 30
0.0
 40
0.0475
  0
CIRCLE
  5
10435
330
17
100
AcDbEntity
  8
0
100
AcDbCircle
 10
4.25370144266349
 20
3.2875
 30
0.0
 40
0.0475
  0
CIRCLE
  5
10436
330
17
100
AcDbEntity
  8
0
100
AcDbCircle
 10
4.25370144266349
 20
3.4375
 30
0.0
 40
0.0475
  0
CIRCLE
  5
10437
330
17
100
AcDbEntity
  8
0
100
AcDbCircle
 10
4.25370144266349
 20
3.5875
 30
0.0
 40
0.0475
  0
CIRCLE
  5
10438
330
17
100
AcDbEntity
  8
0
100
AcDbCircle
 10
4.25370144266349
 20
3.7375
 30
0.0
 40
0.0475
  0
CIRCLE
  5
10439
330
17
100
AcDbEntity
  8
0
100
AcDbCircle
 10
4.25370144266349
 20
3.8875
 30
0.0
 40
0.0475
  0
CIRCLE
  5
1043A
330
17
100
AcDbEntity
  8
0
100
AcDbCircle
 10
4.25370144266349
 20
4.0375
 30
0.0
 40
0.0475
  0
CIRCLE
  5
1043B
330
17
100
AcDbEntity
  8
0
100
AcDbCircle
 10
4.25370144266349
 20
4.1875
 30
0.0
 40
0.0475
  0
CIRCLE
  5
1043C
330
17
100
AcDbEntity
  8
0
100
AcDbCircle
 10
4.25370144266349
 20
4.3375
 30
0.0
 40
0.0475
  0
CIRCLE
  5
1043D
330
17
100
AcDbEntity
  8
0
100
AcDbCircle
 10
4.25370144266349
 20
4.4875
 30
0.0
 40
0.0475
  0
CIRCLE
  5
1043E
330
17
100
AcDbEntity
  8
0
100
AcDbCircle
 10
4.25370144266349
 20
4.6375
 30
0.0
 40
0.0475
  0
CIRCLE
  5
1043F
330
17
100
AcDbEntity
  8
0
100
AcDbCircle
 10
4.25370144266349
 20
4.7875
 30
0.0
 40
0.0475
  0
CIRCLE
  5
10440
330
17
100
AcDbEntity
  8
0
100
AcDbCircle
 10
4.25370144266349
 20
4.9375
 30
0.0
 40
0.0475
  0
CIRCLE
  5
10441
330
17
100
AcDbEntity
  8
0
100
AcDbCircle
 10
4.38360525323115
 20
0.0625000000000001
 30
0.0
 40
0.0475
  0
CIRCLE
  5
10442
330
17
100
AcDbEntity
  8
0
100
AcDbCircle
 10
4.38360525323115
 20
0.2125
 30
0.0
 40
0.0475
  0
CIRCLE
  5
10443
330
17
100
AcDbEntity
  8
0
100
AcDbCircle
 10
4.38360525323115
 20
0.3625
 30
0.0
 40
0.0475
  0
CIRCLE
  5
10444
330
17
100
AcDbEntity
  8
0
100
AcDbCircle
 10
4.38360525323115
 20
0.5125
 30
0.0
 40
0.0475
  0
CIRCLE
  5
10445
330
17
100
AcDbEntity
  8
0
100
AcDbCircle
 10
4.38360525323115
 20
0.6625
 30
0.0
 40
0.0475
  0
CIRCLE
  5
10446
330
17
100
AcDbEntity
  8
0
100
AcDbCircle
 10
4.38360525323115
 20
0.8125
 30
0.0
 40
0.0475
  0
CIRCLE
  5
10447
330
17
100
AcDbEntity
  8
0
100
AcDbCircle
 10
4.38360525323115
 20
0.9625
 30
0.0
 40
0.0475
  0
CIRCLE
  5
10448
330
17
100
AcDbEntity
  8
0
100
AcDbCircle
 10
4.38360525323115
 20
1.1125
 30
0.0
 40
0.0475
  0
CIRCLE
  5
10449
330
17
100
AcDbEntity
  8
0
100
AcDbCircle
 10
4.38360525323115
 20
1.2625
 30
0.0
 40
0.0475
  0
CIRCLE
  5
1044A
330
17
100
AcDbEntity
  8
0
100
AcDbCircle
 10
4.38360525323115
 20
1.4125
 30
0.0
 40
0.0475
  0
CIRCLE
  5
1044B
330
17
100
AcDbEntity
  8
0
100
AcDbCircle
 10
4.38360525323115
 20
1.5625
 30
0.0
 40
0.0475
  0
CIRCLE
  5
1044C
330
17
100
AcDbEntity
  8
0
100
AcDbCircle
 10
4.38360525323115
 20
1.7125
 30
0.0
 40
0.0475
  0
CIRCLE
  5
1044D
330
17
100
AcDbEntity
  8
0
100
AcDbCircle
 10
4.38360525323115
 20
1.8625
 30
0.0
 40
0.0475
  0
CIRCLE
  5
1044E
330
17
100
AcDbEntity
  8
0
100
AcDbCircle
 10
4.38360525323115
 20
2.0125
 30
0.0
 40
0.0475
  0
CIRCLE
  5
1044F
330
17
100
AcDbEntity
  8
0
100
AcDbCircle
 10
4.38360525323115
 20
2.1625
 30
0.0
 40
0.0475
  0
CIRCLE
  5
10450
330
17
100
AcDbEntity
  8
0
100
AcDbCircle
 10
4.38360525323115
 20
2.3125
 30
0.0
 40
0.0475
  0
CIRCLE
  5
10451
330
17
100
AcDbEntity
  8
0
100
AcDbCircle
 10
4.38360525323115
 20
2.4625
 30
0.0
 40
0.0475
  0
CIRCLE
  5
10452
330
17
100
AcDbEntity
  8
0
100
AcDbCircle
 10
4.38360525323115
 20
2.6125
 30
0.0
 40
0.0475
  0
CIRCLE
  5
10453
330
17
100
AcDbEntity
  8
0
100
AcDbCircle
 10
4.38360525323115
 20
2.7625
 30
0.0
 40
0.0475
  0
CIRCLE
  5
10454
330
17
100
AcDbEntity
  8
0
100
AcDbCircle
 10
4.38360525323115
 20
2.9125
 30
0.0
 40
0.0475
  0
CIRCLE
  5
10455
330
17
100
AcDbEntity
  8
0
100
AcDbCircle
 10
4.38360525323115
 20
3.0625
 30
0.0
 40
0.0475
  0
CIRCLE
  5
10456
330
17
100
AcDbEntity
  8
0
100
AcDbCircle
 10
4.38360525323115
 20
3.2125
 30
0.0
 40
0.0475
  0
CIRCLE
  5
10457
330
17
100
AcDbEntity
  8
0
100
AcDbCircle
 10
4.38360525323115
 20
3.3625
 30
0.0
 40
0.0475
  0
CIRCLE
  5
10458
330
17
100
AcDbEntity
  8
0
100
AcDbCircle
 10
4.38360525323115
 20
3.5125
 30
0.0
 40
0.0475
  0
CIRCLE
  5
10459
330
17
100
AcDbEntity
  8
0
100
AcDbCircle
 10
4.38360525323115
 20
3.6625
 30
0.0
 40
0.0475
  0
CIRCLE
  5
1045A
330
17
100
AcDbEntity
  8
0
100
AcDbCircle
 10
4.38360525323115
 20
3.8125
 30
0.0
 40
0.0475
  0
CIRCLE
  5
1045B
330
17
100
AcDbEntity
  8
0
100
AcDbCircle
 10
4.38360525323115
 20
3.9625
 30
0.0
 40
0.0475
  0
CIRCLE
  5
1045C
330
17
100
AcDbEntity
  8
0
100
AcDbCircle
 10
4.38360525323115
 20
4.1125
 30
0.0
 40
0.0475
  0
CIRCLE
  5
1045D
330
17
100
AcDbEntity
  8
0
100
AcDbCircle
 10
4.38360525323115
 20
4.2625
 30
0.0
 40
0.0475
  0
CIRCLE
  5
1045E
330
17
100
AcDbEntity
  8
0
100
AcDbCircle
 10
4.38360525323115
 20
4.4125
 30
0.0
 40
0.0475
  0
CIRCLE
  5
1045F
330
17
100
AcDbEntity
  8
0
100
AcDbCircle
 10
4.38360525323115
 20
4.5625
 30
0.0
 40
0.0475
  0
CIRCLE
  5
10460
330
17
100
AcDbEntity
  8
0
100
AcDbCircle
 10
4.38360525323115
 20
4.7125
 30
0.0
 40
0.0475
  0
CIRCLE
  5
10461
330
17
100
AcDbEntity
  8
0
100
AcDbCircle
 10
4.38360525323115
 20
4.8625
 30
0.0
 40
0.0475
  0
CIRCLE
  5
10462
330
17
100
AcDbEntity
  8
0
100
AcDbCircle
 10
4.51350906379882
 20
0.1375
 30
0.0
 40
0.0475
  0
CIRCLE
  5
10463
330
17
100
AcDbEntity
  8
0
100
AcDbCircle
 10
4.51350906379882
 20
0.2875
 30
0.0
 40
0.0475
  0
CIRCLE
  5
10464
330
17
100
AcDbEntity
  8
0
100
AcDbCircle
 10
4.51350906379882
 20
0.4375
 30
0.0
 40
0.0475
  0
CIRCLE
  5
10465
330
17
100
AcDbEntity
  8
0
100
AcDbCircle
 10
4.51350906379882
 20
0.5875
 30
0.0
 40
0.0475
  0
CIRCLE
  5
10466
330
17
100
AcDbEntity
  8
0
100
AcDbCircle
 10
4.51350906379882
 20
0.7375
 30
0.0
 40
0.0475
  0
CIRCLE
  5
10467
330
17
100
AcDbEntity
  8
0
100
AcDbCircle
 10
4.51350906379882
 20
0.8875
 30
0.0
 40
0.0475
  0
CIRCLE
  5
10468
330
17
100
AcDbEntity
  8
0
100
AcDbCircle
 10
4.51350906379882
 20
1.0375
 30
0.0
 40
0.0475
  0
CIRCLE
  5
10469
330
17
100
AcDbEntity
  8
0
100
AcDbCircle
 10
4.51350906379882
 20
1.1875
 30
0.0
 40
0.0475
  0
CIRCLE
  5
1046A
330
17
100
AcDbEntity
  8
0
100
AcDbCircle
 10
4.51350906379882
 20
1.3375
 30
0.0
 40
0.0475
  0
CIRCLE
  5
1046B
330
17
100
AcDbEntity
  8
0
100
AcDbCircle
 10
4.51350906379882
 20
1.4875
 30
0.0
 40
0.0475
  0
CIRCLE
  5
1046C
330
17
100
AcDbEntity
  8
0
100
AcDbCircle
 10
4.51350906379882
 20
1.6375
 30
0.0
 40
0.0475
  0
CIRCLE
  5
1046D
330
17
100
AcDbEntity
  8
0
100
AcDbCircle
 10
4.51350906379882
 20
1.7875
 30
0.0
 40
0.0475
  0
CIRCLE
  5
1046E
330
17
100
AcDbEntity
  8
0
100
AcDbCircle
 10
4.51350906379882
 20
1.9375
 30
0.0
 40
0.0475
  0
CIRCLE
  5
1046F
330
17
100
AcDbEntity
  8
0
100
AcDbCircle
 10
4.51350906379882
 20
2.0875
 30
0.0
 40
0.0475
  0
CIRCLE
  5
10470
330
17
100
AcDbEntity
  8
0
100
AcDbCircle
 10
4.51350906379882
 20
2.2375
 30
0.0
 40
0.0475
  0
CIRCLE
  5
10471
330
17
100
AcDbEntity
  8
0
100
AcDbCircle
 10
4.51350906379882
 20
2.3875
 30
0.0
 40
0.0475
  0
CIRCLE
  5
10472
330
17
100
AcDbEntity
  8
0
100
AcDbCircle
 10
4.51350906379882
 20
2.5375
 30
0.0
 40
0.0475
  0
CIRCLE
  5
10473
330
17
100
AcDbEntity
  8
0
100
AcDbCircle
 10
4.51350906379882
 20
2.6875
 30
0.0
 40
0.0475
  0
CIRCLE
  5
10474
330
17
100
AcDbEntity
  8
0
100
AcDbCircle
 10
4.51350906379882
 20
2.8375
 30
0.0
 40
0.0475
  0
CIRCLE
  5
10475
330
17
100
AcDbEntity
  8
0
100
AcDbCircle
 10
4.51350906379882
 20
2.9875
 30
0.0
 40
0.0475
  0
CIRCLE
  5
10476
330
17
100
AcDbEntity
  8
0
100
AcDbCircle
 10
4.51350906379882
 20
3.1375
 30
0.0
 40
0.0475
  0
CIRCLE
  5
10477
330
17
100
AcDbEntity
  8
0
100
AcDbCircle
 10
4.51350906379882
 20
3.2875
 30
0.0
 40
0.0475
  0
CIRCLE
  5
10478
330
17
100
AcDbEntity
  8
0
100
AcDbCircle
 10
4.51350906379882
 20
3.4375
 30
0.0
 40
0.0475
  0
CIRCLE
  5
10479
330
17
100
AcDbEntity
  8
0
100
AcDbCircle
 10
4.51350906379882
 20
3.5875
 30
0.0
 40
0.0475
  0
CIRCLE
  5
1047A
330
17
100
AcDbEntity
  8
0
100
AcDbCircle
 10
4.51350906379882
 20
3.7375
 30
0.0
 40
0.0475
  0
CIRCLE
  5
1047B
330
17
100
AcDbEntity
  8
0
100
AcDbCircle
 10
4.51350906379882
 20
3.8875
 30
0.0
 40
0.0475
  0
CIRCLE
  5
1047C
330
17
100
AcDbEntity
  8
0
100
AcDbCircle
 10
4.51350906379882
 20
4.0375
 30
0.0
 40
0.0475
  0
CIRCLE
  5
1047D
330
17
100
AcDbEntity
  8
0
100
AcDbCircle
 10
4.51350906379882
 20
4.1875
 30
0.0
 40
0.0475
  0
CIRCLE
  5
1047E
330
17
100
AcDbEntity
  8
0
100
AcDbCircle
 10
4.51350906379882
 20
4.3375
 30
0.0
 40
0.0475
  0
CIRCLE
  5
1047F
330
17
100
AcDbEntity
  8
0
100
AcDbCircle
 10
4.51350906379882
 20
4.4875
 30
0.0
 40
0.0475
  0
CIRCLE
  5
10480
330
17
100
AcDbEntity
  8
0
100
AcDbCircle
 10
4.51350906379882
 20
4.6375
 30
0.0
 40
0.0475
  0
CIRCLE
  5
10481
330
17
100
AcDbEntity
  8
0
100
AcDbCircle
 10
4.51350906379882
 20
4.7875
 30
0.0
 40
0.0475
  0
CIRCLE
  5
10482
330
17
100
AcDbEntity
  8
0
100
AcDbCircle
 10
4.51350906379882
 20
4.9375
 30
0.0
 40
0.0475
  0
CIRCLE
  5
10483
330
17
100
AcDbEntity
  8
0
100
AcDbCircle
 10
4.64341287436649
 20
0.0625000000000001
 30
0.0
 40
0.0475
  0
CIRCLE
  5
10484
330
17
100
AcDbEntity
  8
0
100
AcDbCircle
 10
4.64341287436649
 20
0.2125
 30
0.0
 40
0.0475
  0
CIRCLE
  5
10485
330
17
100
AcDbEntity
  8
0
100
AcDbCircle
 10
4.64341287436649
 20
0.3625
 30
0.0
 40
0.0475
  0
CIRCLE
  5
10486
330
17
100
AcDbEntity
  8
0
100
AcDbCircle
 10
4.64341287436649
 20
0.5125
 30
0.0
 40
0.0475
  0
CIRCLE
  5
10487
330
17
100
AcDbEntity
  8
0
100
AcDbCircle
 10
4.64341287436649
 20
0.6625
 30
0.0
 40
0.0475
  0
CIRCLE
  5
10488
330
17
100
AcDbEntity
  8
0
100
AcDbCircle
 10
4.64341287436649
 20
0.8125
 30
0.0
 40
0.0475
  0
CIRCLE
  5
10489
330
17
100
AcDbEntity
  8
0
100
AcDbCircle
 10
4.64341287436649
 20
0.9625
 30
0.0
 40
0.0475
  0
CIRCLE
  5
1048A
330
17
100
AcDbEntity
  8
0
100
AcDbCircle
 10
4.64341287436649
 20
1.1125
 30
0.0
 40
0.0475
  0
CIRCLE
  5
1048B
330
17
100
AcDbEntity
  8
0
100
AcDbCircle
 10
4.64341287436649
 20
1.2625
 30
0.0
 40
0.0475
  0
CIRCLE
  5
1048C
330
17
100
AcDbEntity
  8
0
100
AcDbCircle
 10
4.64341287436649
 20
1.4125
 30
0.0
 40
0.0475
  0
CIRCLE
  5
1048D
330
17
100
AcDbEntity
  8
0
100
AcDbCircle
 10
4.64341287436649
 20
1.5625
 30
0.0
 40
0.0475
  0
CIRCLE
  5
1048E
330
17
100
AcDbEntity
  8
0
100
AcDbCircle
 10
4.64341287436649
 20
1.7125
 30
0.0
 40
0.0475
  0
CIRCLE
  5
1048F
330
17
100
AcDbEntity
  8
0
100
AcDbCircle
 10
4.64341287436649
 20
1.8625
 30
0.0
 40
0.0475
  0
CIRCLE
  5
10490
330
17
100
AcDbEntity
  8
0
100
AcDbCircle
 10
4.64341287436649
 20
2.0125
 30
0.0
 40
0.0475
  0
CIRCLE
  5
10491
330
17
100
AcDbEntity
  8
0
100
AcDbCircle
 10
4.64341287436649
 20
2.1625
 30
0.0
 40
0.0475
  0
CIRCLE
  5
10492
330
17
100
AcDbEntity
  8
0
100
AcDbCircle
 10
4.64341287436649
 20
2.3125
 30
0.0
 40
0.0475
  0
CIRCLE
  5
10493
330
17
100
AcDbEntity
  8
0
100
AcDbCircle
 10
4.64341287436649
 20
2.4625
 30
0.0
 40
0.0475
  0
CIRCLE
  5
10494
330
17
100
AcDbEntity
  8
0
100
AcDbCircle
 10
4.64341287436649
 20
2.6125
 30
0.0
 40
0.0475
  0
CIRCLE
  5
10495
330
17
100
AcDbEntity
  8
0
100
AcDbCircle
 10
4.64341287436649
 20
2.7625
 30
0.0
 40
0.0475
  0
CIRCLE
  5
10496
330
17
100
AcDbEntity
  8
0
100
AcDbCircle
 10
4.64341287436649
 20
2.9125
 30
0.0
 40
0.0475
  0
CIRCLE
  5
10497
330
17
100
AcDbEntity
  8
0
100
AcDbCircle
 10
4.64341287436649
 20
3.0625
 30
0.0
 40
0.0475
  0
CIRCLE
  5
10498
330
17
100
AcDbEntity
  8
0
100
AcDbCircle
 10
4.64341287436649
 20
3.2125
 30
0.0
 40
0.0475
  0
CIRCLE
  5
10499
330
17
100
AcDbEntity
  8
0
100
AcDbCircle
 10
4.64341287436649
 20
3.3625
 30
0.0
 40
0.0475
  0
CIRCLE
  5
1049A
330
17
100
AcDbEntity
  8
0
100
AcDbCircle
 10
4.64341287436649
 20
3.5125
 30
0.0
 40
0.0475
  0
CIRCLE
  5
1049B
330
17
100
AcDbEntity
  8
0
100
AcDbCircle
 10
4.64341287436649
 20
3.6625
 30
0.0
 40
0.0475
  0
CIRCLE
  5
1049C
330
17
100
AcDbEntity
  8
0
100
AcDbCircle
 10
4.64341287436649
 20
3.8125
 30
0.0
 40
0.0475
  0
CIRCLE
  5
1049D
330
17
100
AcDbEntity
  8
0
100
AcDbCircle
 10
4.64341287436649
 20
3.9625
 30
0.0
 40
0.0475
  0
CIRCLE
  5
1049E
330
17
100
AcDbEntity
  8
0
100
AcDbCircle
 10
4.64341287436649
 20
4.1125
 30
0.0
 40
0.0475
  0
CIRCLE
  5
1049F
330
17
100
AcDbEntity
  8
0
100
AcDbCircle
 10
4.64341287436649
 20
4.2625
 30
0.0
 40
0.0475
  0
CIRCLE
  5
104A0
330
17
100
AcDbEntity
  8
0
100
AcDbCircle
 10
4.64341287436649
 20
4.4125
 30
0.0
 40
0.0475
  0
CIRCLE
  5
104A1
330
17
100
AcDbEntity
  8
0
100
AcDbCircle
 10
4.64341287436649
 20
4.5625
 30
0.0
 40
0.0475
  0
CIRCLE
  5
104A2
330
17
100
AcDbEntity
  8
0
100
AcDbCircle
 10
4.64341287436649
 20
4.7125
 30
0.0
 40
0.0475
  0
CIRCLE
  5
104A3
330
17
100
AcDbEntity
  8
0
100
AcDbCircle
 10
4.64341287436649
 20
4.8625
 30
0.0
 40
0.0475
  0
CIRCLE
  5
104A4
330
17
100
AcDbEntity
  8
0
100
AcDbCircle
 10
4.77331668493415
 20
0.1375
 30
0.0
 40
0.0475
  0
CIRCLE
  5
104A5
330
17
100
AcDbEntity
  8
0
100
AcDbCircle
 10
4.77331668493415
 20
0.2875
 30
0.0
 40
0.0475
  0
CIRCLE
  5
104A6
330
17
100
AcDbEntity
  8
0
100
AcDbCircle
 10
4.77331668493415
 20
0.4375
 30
0.0
 40
0.0475
  0
CIRCLE
  5
104A7
330
17
100
AcDbEntity
  8
0
100
AcDbCircle
 10
4.77331668493415
 20
0.5875
 30
0.0
 40
0.0475
  0
CIRCLE
  5
104A8
330
17
100
AcDbEntity
  8
0
100
AcDbCircle
 10
4.77331668493415
 20
0.7375
 30
0.0
 40
0.0475
  0
CIRCLE
  5
104A9
330
17
100
AcDbEntity
  8
0
100
AcDbCircle
 10
4.77331668493415
 20
0.8875
 30
0.0
 40
0.0475
  0
CIRCLE
  5
104AA
330
17
100
AcDbEntity
  8
0
100
AcDbCircle
 10
4.77331668493415
 20
1.0375
 30
0.0
 40
0.0475
  0
CIRCLE
  5
104AB
330
17
100
AcDbEntity
  8
0
100
AcDbCircle
 10
4.77331668493415
 20
1.1875
 30
0.0
 40
0.0475
  0
CIRCLE
  5
104AC
330
17
100
AcDbEntity
  8
0
100
AcDbCircle
 10
4.77331668493415
 20
1.3375
 30
0.0
 40
0.0475
  0
CIRCLE
  5
104AD
330
17
100
AcDbEntity
  8
0
100
AcDbCircle
 10
4.77331668493415
 20
1.4875
 30
0.0
 40
0.0475
  0
CIRCLE
  5
104AE
330
17
100
AcDbEntity
  8
0
100
AcDbCircle
 10
4.77331668493415
 20
1.6375
 30
0.0
 40
0.0475
  0
CIRCLE
  5
104AF
330
17
100
AcDbEntity
  8
0
100
AcDbCircle
 10
4.77331668493415
 20
1.7875
 30
0.0
 40
0.0475
  0
CIRCLE
  5
104B0
330
17
100
AcDbEntity
  8
0
100
AcDbCircle
 10
4.77331668493415
 20
1.9375
 30
0.0
 40
0.0475
  0
CIRCLE
  5
104B1
330
17
100
AcDbEntity
  8
0
100
AcDbCircle
 10
4.77331668493415
 20
2.0875
 30
0.0
 40
0.0475
  0
CIRCLE
  5
104B2
330
17
100
AcDbEntity
  8
0
100
AcDbCircle
 10
4.77331668493415
 20
2.2375
 30
0.0
 40
0.0475
  0
CIRCLE
  5
104B3
330
17
100
AcDbEntity
  8
0
100
AcDbCircle
 10
4.77331668493415
 20
2.3875
 30
0.0
 40
0.0475
  0
CIRCLE
  5
104B4
330
17
100
AcDbEntity
  8
0
100
AcDbCircle
 10
4.77331668493415
 20
2.5375
 30
0.0
 40
0.0475
  0
CIRCLE
  5
104B5
330
17
100
AcDbEntity
  8
0
100
AcDbCircle
 10
4.77331668493415
 20
2.6875
 30
0.0
 40
0.0475
  0
CIRCLE
  5
104B6
330
17
100
AcDbEntity
  8
0
100
AcDbCircle
 10
4.77331668493415
 20
2.8375
 30
0.0
 40
0.0475
  0
CIRCLE
  5
104B7
330
17
100
AcDbEntity
  8
0
100
AcDbCircle
 10
4.77331668493415
 20
2.9875
 30
0.0
 40
0.0475
  0
CIRCLE
  5
104B8
330
17
100
AcDbEntity
  8
0
100
AcDbCircle
 10
4.77331668493415
 20
3.1375
 30
0.0
 40
0.0475
  0
CIRCLE
  5
104B9
330
17
100
AcDbEntity
  8
0
100
AcDbCircle
 10
4.77331668493415
 20
3.2875
 30
0.0
 40
0.0475
  0
CIRCLE
  5
104BA
330
17
100
AcDbEntity
  8
0
100
AcDbCircle
 10
4.77331668493415
 20
3.4375
 30
0.0
 40
0.0475
  0
CIRCLE
  5
104BB
330
17
100
AcDbEntity
  8
0
100
AcDbCircle
 10
4.77331668493415
 20
3.5875
 30
0.0
 40
0.0475
  0
CIRCLE
  5
104BC
330
17
100
AcDbEntity
  8
0
100
AcDbCircle
 10
4.77331668493415
 20
3.7375
 30
0.0
 40
0.0475
  0
CIRCLE
  5
104BD
330
17
100
AcDbEntity
  8
0
100
AcDbCircle
 10
4.77331668493415
 20
3.8875
 30
0.0
 40
0.0475
  0
CIRCLE
  5
104BE
330
17
100
AcDbEntity
  8
0
100
AcDbCircle
 10
4.77331668493415
 20
4.0375
 30
0.0
 40
0.0475
  0
CIRCLE
  5
104BF
330
17
100
AcDbEntity
  8
0
100
AcDbCircle
 10
4.77331668493415
 20
4.1875
 30
0.0
 40
0.0475
  0
CIRCLE
  5
104C0
330
17
100
AcDbEntity
  8
0
100
AcDbCircle
 10
4.77331668493415
 20
4.3375
 30
0.0
 40
0.0475
  0
CIRCLE
  5
104C1
330
17
100
AcDbEntity
  8
0
100
AcDbCircle
 10
4.77331668493415
 20
4.4875
 30
0.0
 40
0.0475
  0
CIRCLE
  5
104C2
330
17
100
AcDbEntity
  8
0
100
AcDbCircle
 10
4.77331668493415
 20
4.6375
 30
0.0
 40
0.0475
  0
CIRCLE
  5
104C3
330
17
100
AcDbEntity
  8
0
100
AcDbCircle
 10
4.77331668493415
 20
4.7875
 30
0.0
 40
0.0475
  0
CIRCLE
  5
104C4
330
17
100
AcDbEntity
  8
0
100
AcDbCircle
 10
4.77331668493415
 20
4.9375
 30
0.0
 40
0.0475
  0
CIRCLE
  5
104C5
330
17
100
AcDbEntity
  8
0
100
AcDbCircle
 10
4.90322049550182
 20
0.0625000000000001
 30
0.0
 40
0.0475
  0
CIRCLE
  5
104C6
330
17
100
AcDbEntity
  8
0
100
AcDbCircle
 10
4.90322049550182
 20
0.2125
 30
0.0
 40
0.0475
  0
CIRCLE
  5
104C7
330
17
100
AcDbEntity
  8
0
100
AcDbCircle
 10
4.90322049550182
 20
0.3625
 30
0.0
 40
0.0475
  0
CIRCLE
  5
104C8
330
17
100
AcDbEntity
  8
0
100
AcDbCircle
 10
4.90322049550182
 20
0.5125
 30
0.0
 40
0.0475
  0
CIRCLE
  5
104C9
330
17
100
AcDbEntity
  8
0
100
AcDbCircle
 10
4.90322049550182
 20
0.6625
 30
0.0
 40
0.0475
  0
CIRCLE
  5
104CA
330
17
100
AcDbEntity
  8
0
100
AcDbCircle
 10
4.90322049550182
 20
0.8125
 30
0.0
 40
0.0475
  0
CIRCLE
  5
104CB
330
17
100
AcDbEntity
  8
0
100
AcDbCircle
 10
4.90322049550182
 20
0.9625
 30
0.0
 40
0.0475
  0
CIRCLE
  5
104CC
330
17
100
AcDbEntity
  8
0
100
AcDbCircle
 10
4.90322049550182
 20
1.1125
 30
0.0
 40
0.0475
  0
CIRCLE
  5
104CD
330
17
100
AcDbEntity
  8
0
100
AcDbCircle
 10
4.90322049550182
 20
1.2625
 30
0.0
 40
0.0475
  0
CIRCLE
  5
104CE
330
17
100
AcDbEntity
  8
0
100
AcDbCircle
 10
4.90322049550182
 20
1.4125
 30
0.0
 40
0.0475
  0
CIRCLE
  5
104CF
330
17
100
AcDbEntity
  8
0
100
AcDbCircle
 10
4.90322049550182
 20
1.5625
 30
0.0
 40
0.0475
  0
CIRCLE
  5
104D0
330
17
100
AcDbEntity
  8
0
100
AcDbCircle
 10
4.90322049550182
 20
1.7125
 30
0.0
 40
0.0475
  0
CIRCLE
  5
104D1
330
17
100
AcDbEntity
  8
0
100
AcDbCircle
 10
4.90322049550182
 20
1.8625
 30
0.0
 40
0.0475
  0
CIRCLE
  5
104D2
330
17
100
AcDbEntity
  8
0
100
AcDbCircle
 10
4.90322049550182
 20
2.0125
 30
0.0
 40
0.0475
  0
CIRCLE
  5
104D3
330
17
100
AcDbEntity
  8
0
100
AcDbCircle
 10
4.90322049550182
 20
2.1625
 30
0.0
 40
0.0475
  0
CIRCLE
  5
104D4
330
17
100
AcDbEntity
  8
0
100
AcDbCircle
 10
4.90322049550182
 20
2.3125
 30
0.0
 40
0.0475
  0
CIRCLE
  5
104D5
330
17
100
AcDbEntity
  8
0
100
AcDbCircle
 10
4.90322049550182
 20
2.4625
 30
0.0
 40
0.0475
  0
CIRCLE
  5
104D6
330
17
100
AcDbEntity
  8
0
100
AcDbCircle
 10
4.90322049550182
 20
2.6125
 30
0.0
 40
0.0475
  0
CIRCLE
  5
104D7
330
17
100
AcDbEntity
  8
0
100
AcDbCircle
 10
4.90322049550182
 20
2.7625
 30
0.0
 40
0.0475
  0
CIRCLE
  5
104D8
330
17
100
AcDbEntity
  8
0
100
AcDbCircle
 10
4.90322049550182
 20
2.9125
 30
0.0
 40
0.0475
  0
CIRCLE
  5
104D9
330
17
100
AcDbEntity
  8
0
100
AcDbCircle
 10
4.90322049550182
 20
3.0625
 30
0.0
 40
0.0475
  0
CIRCLE
  5
104DA
330
17
100
AcDbEntity
  8
0
100
AcDbCircle
 10
4.90322049550182
 20
3.2125
 30
0.0
 40
0.0475
  0
CIRCLE
  5
104DB
330
17
100
AcDbEntity
  8
0
100
AcDbCircle
 10
4.90322049550182
 20
3.3625
 30
0.0
 40
0.0475
  0
CIRCLE
  5
104DC
330
17
100
AcDbEntity
  8
0
100
AcDbCircle
 10
4.90322049550182
 20
3.5125
 30
0.0
 40
0.0475
  0
CIRCLE
  5
104DD
330
17
100
AcDbEntity
  8
0
100
AcDbCircle
 10
4.90322049550182
 20
3.6625
 30
0.0
 40
0.0475
  0
CIRCLE
  5
104DE
330
17
100
AcDbEntity
  8
0
100
AcDbCircle
 10
4.90322049550182
 20
3.8125
 30
0.0
 40
0.0475
  0
CIRCLE
  5
104DF
330
17
100
AcDbEntity
  8
0
100
AcDbCircle
 10
4.90322049550182
 20
3.9625
 30
0.0
 40
0.0475
  0
CIRCLE
  5
104E0
330
17
100
AcDbEntity
  8
0
100
AcDbCircle
 10
4.90322049550182
 20
4.1125
 30
0.0
 40
0.0475
  0
CIRCLE
  5
104E1
330
17
100
AcDbEntity
  8
0
100
AcDbCircle
 10
4.90322049550182
 20
4.2625
 30
0.0
 40
0.0475
  0
CIRCLE
  5
104E2
330
17
100
AcDbEntity
  8
0
100
AcDbCircle
 10
4.90322049550182
 20
4.4125
 30
0.0
 40
0.0475
  0
CIRCLE
  5
104E3
330
17
100
AcDbEntity
  8
0
100
AcDbCircle
 10
4.90322049550182
 20
4.5625
 30
0.0
 40
0.0475
  0
CIRCLE
  5
104E4
330
17
100
AcDbEntity
  8
0
100
AcDbCircle
 10
4.90322049550182
 20
4.7125
 30
0.0
 40
0.0475
  0
CIRCLE
  5
104E5
330
17
100
AcDbEntity
  8
0
100
AcDbCircle
 10
4.90322049550182
 20
4.8625
 30
0.0
 40
0.0475
  0
LINE
  5
104E8
330
17
100
AcDbEntity
  8
0
100
AcDbLine
 10
0.000000
 20
0.000000
 30
0.000000
 11
5.000000
 21
0.000000
 31
0.000000
  0
LINE
  5
104E9
330
17
100
AcDbEntity
  8
0
100
AcDbLine
 10
5.000000
 20
0.000000
 30
0.000000
 11
5.000000
 21
5.000000
 31
0.000000
  0
LINE
  5
104EA
330
17
100
AcDbEntity
  8
0
100
AcDbLine
 10
5.000000
 20
5.000000
 30
0.000000
 11
0.000000
 21
5.000000
 31
0.000000
  0
LINE
  5
104EB
330
17
100
AcDbEntity
  8
0
100
AcDbLine
 10
0.000000
 20
5.000000
 30
0.000000
 11
0.000000
 21
0.000000
 31
0.000000
  0
ENDSEC
  0
SECTION
  2
OBJECTS
  0
DICTIONARY
  5
A
330
0
100
AcDbDictionary
281
1
  3
ACAD_COLOR
350
B
  3
ACAD_GROUP
350
C
  3
ACAD_LAYOUT
350
D
  3
ACAD_MATERIAL
350
E
  3
ACAD_MLEADERSTYLE
350
F
  3
ACAD_MLINESTYLE
350
10
  3
ACAD_PLOTSETTINGS
350
11
  3
ACAD_PLOTSTYLENAME
350
12
  3
ACAD_SCALELIST
350
14
  3
ACAD_TABLESTYLE
350
15
  3
ACAD_VISUALSTYLE
350
16
  3
EZDXF_META
350
2D
  0
DICTIONARY
  5
B
330
A
100
AcDbDictionary
281
1
  0
DICTIONARY
  5
C
330
A
100
AcDbDictionary
281
1
  0
DICTIONARY
  5
D
330
A
100
AcDbDictionary
281
1
  3
Model
350
1A
  3
Layout1
350
1E
  0
DICTIONARY
  5
E
330
A
100
AcDbDictionary
281
1
  3
ByBlock
350
1F
  3
ByLayer
350
20
  3
Global
350
21
  0
DICTIONARY
  5
F
330
A
100
AcDbDictionary
281
1
  3
Standard
350
2C
  0
DICTIONARY
  5
10
330
A
100
AcDbDictionary
281
1
  3
Standard
350
22
  0
DICTIONARY
  5
11
330
A
100
AcDbDictionary
281
1
  0
ACDBDICTIONARYWDFLT
  5
12
330
A
100
AcDbDictionary
281
1
  3
Normal
350
13
100
AcDbDictionaryWithDefault
340
13
  0
ACDBPLACEHOLDER
  5
13
330
12
  0
DICTIONARY
  5
14
330
A
100
AcDbDictionary
281
1
  0
DICTIONARY
  5
15
330
A
100
AcDbDictionary
281
1
  0
DICTIONARY
  5
16
330
A
100
AcDbDictionary
281
1
  0
LAYOUT
  5
1A
330
D
100
AcDbPlotSettings
  1

  4
A3
  6

 40
7.5
 41
20.0
 42
7.5
 43
20.0
 44
420.0
 45
297.0
 46
0.0
 47
0.0
 48
0.0
 49
0.0
140
0.0
141
0.0
142
1.0
143
1.0
 70
1024
 72
1
 73
0
 74
5
  7

 75
16
 76
0
 77
2
 78
300
147
1.0
148
0.0
149
0.0
100
AcDbLayout
  1
Model
 70
1
 71
0
 10
0.0
 20
0.0
 11
420.0
 21
297.0
 12
0.0
 22
0.0
 32
0.0
 14
1e+20
 24
1e+20
 34
1e+20
 15
-1e+20
 25
-1e+20
 35
-1e+20
146
0.0
 13
0.0
 23
0.0
 33
0.0
 16
1.0
 26
0.0
 36
0.0
 17
0.0
 27
1.0
 37
0.0
 76
1
330
17
  0
LAYOUT
  5
1E
330
D
100
AcDbPlotSettings
  1

  4
A3
  6

 40
7.5
 41
20.0
 42
7.5
 43
20.0
 44
420.0
 45
297.0
 46
0.0
 47
0.0
 48
0.0
 49
0.0
140
0.0
141
0.0
142
1.0
143
1.0
 70
0
 72
1
 73
0
 74
5
  7

 75
16
 76
0
 77
2
 78
300
147
1.0
148
0.0
149
0.0
100
AcDbLayout
  1
Layout1
 70
1
 71
1
 10
0.0
 20
0.0
 11
420.0
 21
297.0
 12
0.0
 22
0.0
 32
0.0
 14
1e+20
 24
1e+20
 34
1e+20
 15
-1e+20
 25
-1e+20
 35
-1e+20
146
0.0
 13
0.0
 23
0.0
 33
0.0
 16
1.0
 26
0.0
 36
0.0
 17
0.0
 27
1.0
 37
0.0
 76
1
330
1B
  0
MATERIAL
  5
1F
102
{ACAD_REACTORS
330
E
102
}
330
E
100
AcDbMaterial
  1
ByBlock
  2

 70
0
 40
1.0
 71
1
 41
1.0
 91
-1023410177
 42
1.0
 72
1
  3

 73
1
 74
1
 75
1
 44
0.5
 73
0
 45
1.0
 46
1.0
 77
1
  4

 78
1
 79
1
170
1
 48
1.0
171
1
  6

172
1
173
1
174
1
140
1.0
141
1.0
175
1
  7

176
1
177
1
178
1
143
1.0
179
1
  8

270
1
271
1
272
1
145
1.0
146
1.0
273
1
  9

274
1
275
1
276
1
 42
1.0
 72
1
  3

 73
1
 74
1
 75
1
 94
63
  0
MATERIAL
  5
20
102
{ACAD_REACTORS
330
E
102
}
330
E
100
AcDbMaterial
  1
ByLayer
  2

 70
0
 40
1.0
 71
1
 41
1.0
 91
-1023410177
 42
1.0
 72
1
  3

 73
1
 74
1
 75
1
 44
0.5
 73
0
 45
1.0
 46
1.0
 77
1
  4

 78
1
 79
1
170
1
 48
1.0
171
1
  6

172
1
173
1
174
1
140
1.0
141
1.0
175
1
  7

176
1
177
1
178
1
143
1.0
179
1
  8

270
1
271
1
272
1
145
1.0
146
1.0
273
1
  9

274
1
275
1
276
1
 42
1.0
 72
1
  3

 73
1
 74
1
 75
1
 94
63
  0
MATERIAL
  5
21
102
{ACAD_REACTORS
330
E
102
}
330
E
100
AcDbMaterial
  1
Global
  2

 70
0
 40
1.0
 71
1
 41
1.0
 91
-1023410177
 42
1.0
 72
1
  3

 73
1
 74
1
 75
1
 44
0.5
 73
0
 45
1.0
 46
1.0
 77
1
  4

 78
1
 79
1
170
1
 48
1.0
171
1
  6

172
1
173
1
174
1
140
1.0
141
1.0
175
1
  7

176
1
177
1
178
1
143
1.0
179
1
  8

270
1
271
1
272
1
145
1.0
146
1.0
273
1
  9

274
1
275
1
276
1
 42
1.0
 72
1
  3

 73
1
 74
1
 75
1
 94
63
  0
MLINESTYLE
  5
22
102
{ACAD_REACTORS
330
10
102
}
330
10
100
AcDbMlineStyle
  2
Standard
 70
0
  3

 62
256
 51
90.0
 52
90.0
 71
2
 49
0.5
 62
256
  6
BYLAYER
 49
-0.5
 62
256
  6
BYLAYER
  0
MLEADERSTYLE
  5
2C
102
{ACAD_REACTORS
330
F
102
}
330
F
100
AcDbMLeaderStyle
179
2
170
2
171
1
172
0
 90
2
 40
0.0
 41
0.0
173
1
 91
-1056964608
 92
-2
290
1
 42
2.0
291
1
 43
8.0
  3
Standard
 44
4.0
300

342
29
174
1
175
1
176
0
178
1
 93
-1056964608
 45
4.0
292
0
297
0
 46
4.0
 94
-1056964608
 47
1.0
 49
1.0
140
1.0
294
1
141
0.0
177
0
142
1.0
295
0
296
0
143
3.75
271
0
272
9
273
9
  0
DICTIONARY
  5
2D
330
A
100
AcDbDictionary
280
1
281
1
  3
CREATED_BY_EZDXF
350
2E
  3
WRITTEN_BY_EZDXF
350
473
  0
DICTIONARYVAR
  5
2E
330
2D
100
DictionaryVariables
280
0
  1
1.4.4 @ 2026-07-24T00:18:17.316833+00:00
  0
DICTIONARYVAR
  5
473
330
2D
100
DictionaryVariables
280
0
  1
1.4.4 @ 2026-07-24T00:18:17.333329+00:00
  0
ENDSEC
  0
EOF
