  0
SECTION
  2
HEADER
  9
$ACADVER
  1
AC1024
  9
$ACADMAINTVER
 70
6
  9
$DWGCODEPAGE
  3
ANSI_1252
  9
$LASTSAVEDBY
  1
ezdxf
  9
$INSBASE
 10
0.0
 20
0.0
 30
0.0
  9
$EXTMIN
 10
1e+20
 20
1e+20
 30
1e+20
  9
$EXTMAX
 10
-1e+20
 20
-1e+20
 30
-1e+20
  9
$LIMMIN
 10
0.0
 20
0.0
  9
$LIMMAX
 10
420.0
 20
297.0
  9
$ORTHOMODE
 70
0
  9
$REGENMODE
 70
1
  9
$FILLMODE
 70
1
  9
$QTEXTMODE
 70
0
  9
$MIRRTEXT
 70
1
  9
$LTSCALE
 40
1.0
  9
$ATTMODE
 70
1
  9
$TEXTSIZE
 40
2.5
  9
$TRACEWID
 40
1.0
  9
$TEXTSTYLE
  7
Standard
  9
$CLAYER
  8
0
  9
$CELTYPE
  6
ByLayer
  9
$CECOLOR
 62
256
  9
$CELTSCALE
 40
1.0
  9
$DISPSILH
 70
0
  9
$DIMSCALE
 40
1.0
  9
$DIMASZ
 40
2.5
  9
$DIMEXO
 40
0.625
  9
$DIMDLI
 40
3.75
  9
$DIMRND
 40
0.0
  9
$DIMDLE
 40
0.0
  9
$DIMEXE
 40
1.25
  9
$DIMTP
 40
0.0
  9
$DIMTM
 40
0.0
  9
$DIMTXT
 40
2.5
  9
$DIMCEN
 40
2.5
  9
$DIMTSZ
 40
0.0
  9
$DIMTOL
 70
0
  9
$DIMLIM
 70
0
  9
$DIMTIH
 70
0
  9
$DIMTOH
 70
0
  9
$DIMSE1
 70
0
  9
$DIMSE2
 70
0
  9
$DIMTAD
 70
1
  9
$DIMZIN
 70
8
  9
$DIMBLK
  1

  9
$DIMASO
 70
1
  9
$DIMSHO
 70
1
  9
$DIMPOST
  1

  9
$DIMAPOST
  1

  9
$DIMALT
 70
0
  9
$DIMALTD
 70
3
  9
$DIMALTF
 40
0.03937007874
  9
$DIMLFAC
 40
1.0
  9
$DIMTOFL
 70
1
  9
$DIMTVP
 40
0.0
  9
$DIMTIX
 70
0
  9
$DIMSOXD
 70
0
  9
$DIMSAH
 70
0
  9
$DIMBLK1
  1

  9
$DIMBLK2
  1

  9
$DIMSTYLE
  2
ISO-25
  9
$DIMCLRD
 70
0
  9
$DIMCLRE
 70
0
  9
$DIMCLRT
 70
0
  9
$DIMTFAC
 40
1.0
  9
$DIMGAP
 40
0.625
  9
$DIMJUST
 70
0
  9
$DIMSD1
 70
0
  9
$DIMSD2
 70
0
  9
$DIMTOLJ
 70
0
  9
$DIMTZIN
 70
8
  9
$DIMALTZ
 70
0
  9
$DIMALTTZ
 70
0
  9
$DIMUPT
 70
0
  9
$DIMDEC
 70
2
  9
$DIMTDEC
 70
2
  9
$DIMALTU
 70
2
  9
$DIMALTTD
 70
3
  9
$DIMTXSTY
  7
Standard
  9
$DIMAUNIT
 70
0
  9
$DIMADEC
 70
0
  9
$DIMALTRND
 40
0.0
  9
$DIMAZIN
 70
0
  9
$DIMDSEP
 70
44
  9
$DIMATFIT
 70
3
  9
$DIMFRAC
 70
0
  9
$DIMLDRBLK
  1

  9
$DIMLUNIT
 70
2
  9
$DIMLWD
 70
-2
  9
$DIMLWE
 70
-2
  9
$DIMTMOVE
 70
0
  9
$DIMFXL
 40
1.0
  9
$DIMFXLON
 70
0
  9
$DIMJOGANG
 40
0.785398163397
  9
$DIMTFILL
 70
0
  9
$DIMTFILLCLR
 70
0
  9
$DIMARCSYM
 70
0
  9
$DIMLTYPE
  6

  9
$DIMLTEX1
  6

  9
$DIMLTEX2
  6

  9
$DIMTXTDIRECTION
 70
0
  9
$LUNITS
 70
2
  9
$LUPREC
 70
6
  9
$SKETCHINC
 40
1.0
  9
$FILLETRAD
 40
10.0
  9
$AUNITS
 70
0
  9
$AUPREC
 70
2
  9
$MENU
  1
.
  9
$ELEVATION
 40
0.0
  9
$PELEVATION
 40
0.0
  9
$THICKNESS
 40
0.0
  9
$LIMCHECK
 70
0
  9
$CHAMFERA
 40
0.0
  9
$CHAMFERB
 40
0.0
  9
$CHAMFERC
 40
0.0
  9
$CHAMFERD
 40
0.0
  9
$SKPOLY
 70
0
  9
$TDCREATE
 40
2461246.346030093
  9
$TDUCREATE
 40
2458532.153996898
  9
$TDUPDATE
 40
2461246.346030093
  9
$TDUUPDATE
 40
2458532.1544311
  9
$TDINDWG
 40
0.0
  9
$TDUSRTIMER
 40
0.0
  9
$USRTIMER
 70
1
  9
$ANGBASE
 50
0.0
  9
$ANGDIR
 70
0
  9
$PDMODE
 70
0
  9
$PDSIZE
 40
0.0
  9
$PLINEWID
 40
0.0
  9
$SPLFRAME
 70
0
  9
$SPLINETYPE
 70
6
  9
$SPLINESEGS
 70
8
  9
$HANDSEED
  5
100D6
  9
$SURFTAB1
 70
6
  9
$SURFTAB2
 70
6
  9
$SURFTYPE
 70
6
  9
$SURFU
 70
6
  9
$SURFV
 70
6
  9
$UCSBASE
  2

  9
$UCSNAME
  2

  9
$UCSORG
 10
0.0
 20
0.0
 30
0.0
  9
$UCSXDIR
 10
1.0
 20
0.0
 30
0.0
  9
$UCSYDIR
 10
0.0
 20
1.0
 30
0.0
  9
$UCSORTHOREF
  2

  9
$UCSORTHOVIEW
 70
0
  9
$UCSORGTOP
 10
0.0
 20
0.0
 30
0.0
  9
$UCSORGBOTTOM
 10
0.0
 20
0.0
 30
0.0
  9
$UCSORGLEFT
 10
0.0
 20
0.0
 30
0.0
  9
$UCSORGRIGHT
 10
0.0
 20
0.0
 30
0.0
  9
$UCSORGFRONT
 10
0.0
 20
0.0
 30
0.0
  9
$UCSORGBACK
 10
0.0
 20
0.0
 30
0.0
  9
$PUCSBASE
  2

  9
$PUCSNAME
  2

  9
$PUCSORG
 10
0.0
 20
0.0
 30
0.0
  9
$PUCSXDIR
 10
1.0
 20
0.0
 30
0.0
  9
$PUCSYDIR
 10
0.0
 20
1.0
 30
0.0
  9
$PUCSORTHOREF
  2

  9
$PUCSORTHOVIEW
 70
0
  9
$PUCSORGTOP
 10
0.0
 20
0.0
 30
0.0
  9
$PUCSORGBOTTOM
 10
0.0
 20
0.0
 30
0.0
  9
$PUCSORGLEFT
 10
0.0
 20
0.0
 30
0.0
  9
$PUCSORGRIGHT
 10
0.0
 20
0.0
 30
0.0
  9
$PUCSORGFRONT
 10
0.0
 20
0.0
 30
0.0
  9
$PUCSORGBACK
 10
0.0
 20
0.0
 30
0.0
  9
$USERI1
 70
0
  9
$USERI2
 70
0
  9
$USERI3
 70
0
  9
$USERI4
 70
0
  9
$USERI5
 70
0
  9
$USERR1
 40
0.0
  9
$USERR2
 40
0.0
  9
$USERR3
 40
0.0
  9
$USERR4
 40
0.0
  9
$USERR5
 40
0.0
  9
$WORLDVIEW
 70
1
  9
$SHADEDGE
 70
3
  9
$SHADEDIF
 70
70
  9
$TILEMODE
 70
1
  9
$MAXACTVP
 70
64
  9
$PINSBASE
 10
0.0
 20
0.0
 30
0.0
  9
$PLIMCHECK
 70
0
  9
$PEXTMIN
 10
1e+20
 20
1e+20
 30
1e+20
  9
$PEXTMAX
 10
-1e+20
 20
-1e+20
 30
-1e+20
  9
$PLIMMIN
 10
0.0
 20
0.0
  9
$PLIMMAX
 10
420.0
 20
297.0
  9
$UNITMODE
 70
0
  9
$VISRETAIN
 70
1
  9
$PLINEGEN
 70
0
  9
$PSLTSCALE
 70
1
  9
$TREEDEPTH
 70
3020
  9
$CMLSTYLE
  2
Standard
  9
$CMLJUST
 70
0
  9
$CMLSCALE
 40
20.0
  9
$PROXYGRAPHICS
 70
1
  9
$MEASUREMENT
 70
1
  9
$CELWEIGHT
370
-1
  9
$ENDCAPS
280
0
  9
$JOINSTYLE
280
0
  9
$LWDISPLAY
290
0
  9
$INSUNITS
 70
4
  9
$HYPERLINKBASE
  1

  9
$STYLESHEET
  1

  9
$XEDIT
290
1
  9
$CEPSNTYPE
380
0
  9
$PSTYLEMODE
290
1
  9
$FINGERPRINTGUID
  2
{F3C65179-D259-4537-B032-7B1663E4ABEA}
  9
$VERSIONGUID
  2
{98391BC5-0D32-4B69-AE8B-BC07E833EDA7}
  9
$EXTNAMES
290
1
  9
$PSVPSCALE
 40
0.0
  9
$OLESTARTUP
290
0
  9
$SORTENTS
280
127
  9
$INDEXCTL
280
0
  9
$HIDETEXT
280
1
  9
$XCLIPFRAME
280
1
  9
$HALOGAP
280
0
  9
$OBSCOLOR
 70
257
  9
$OBSLTYPE
280
0
  9
$INTERSECTIONDISPLAY
280
0
  9
$INTERSECTIONCOLOR
 70
257
  9
$DIMASSOC
280
2
  9
$PROJECTNAME
  1

  9
$CAMERADISPLAY
290
0
  9
$LENSLENGTH
 40
50.0
  9
$CAMERAHEIGHT
 40
0.0
  9
$STEPSPERSEC
 40
24.0
  9
$STEPSIZE
 40
100.0
  9
$3DDWFPREC
 40
2.0
  9
$PSOLWIDTH
 40
0.005
  9
$PSOLHEIGHT
 40
0.08
  9
$LOFTANG1
 40
1.570796326795
  9
$LOFTANG2
 40
1.570796326795
  9
$LOFTMAG1
 40
0.0
  9
$LOFTMAG2
 40
0.0
  9
$LOFTPARAM
 70
7
  9
$LOFTNORMALS
280
1
  9
$LATITUDE
 40
37.795
  9
$LONGITUDE
 40
-122.394
  9
$NORTHDIRECTION
 40
0.0
  9
$TIMEZONE
 70
-8000
  9
$LIGHTGLYPHDISPLAY
280
1
  9
$TILEMODELIGHTSYNCH
280
1
  9
$CMATERIAL
347
20
  9
$SOLIDHIST
280
0
  9
$SHOWHIST
280
1
  9
$DWFFRAME
280
2
  9
$DGNFRAME
280
2
  9
$REALWORLDSCALE
290
1
  9
$INTERFERECOLOR
 62
256
  9
$CSHADOW
280
0
  9
$SHADOWPLANELOCATION
 40
0.0
  0
ENDSEC
  0
SECTION
  2
CLASSES
  0
CLASS
  1
ACDBDICTIONARYWDFLT
  2
AcDbDictionaryWithDefault
  3
ObjectDBX Classes
 90
0
 91
0
280
0
281
0
  0
CLASS
  1
SUN
  2
AcDbSun
  3
SCENEOE
 90
1153
 91
0
280
0
281
0
  0
CLASS
  1
VISUALSTYLE
  2
AcDbVisualStyle
  3
ObjectDBX Classes
 90
4095
 91
0
280
0
281
0
  0
CLASS
  1
MATERIAL
  2
AcDbMaterial
  3
ObjectDBX Classes
 90
1153
 91
0
280
0
281
0
  0
CLASS
  1
SCALE
  2
AcDbScale
  3
ObjectDBX Classes
 90
1153
 91
0
280
0
281
0
  0
CLASS
  1
TABLESTYLE
  2
AcDbTableStyle
  3
ObjectDBX Classes
 90
4095
 91
0
280
0
281
0
  0
CLASS
  1
MLEADERSTYLE
  2
AcDbMLeaderStyle
  3
ACDB_MLEADERSTYLE_CLASS
 90
4095
 91
0
280
0
281
0
  0
CLASS
  1
DICTIONARYVAR
  2
AcDbDictionaryVar
  3
ObjectDBX Classes
 90
0
 91
0
280
0
281
0
  0
CLASS
  1
CELLSTYLEMAP
  2
AcDbCellStyleMap
  3
ObjectDBX Classes
 90
1152
 91
0
280
0
281
0
  0
CLASS
  1
MENTALRAYRENDERSETTINGS
  2
AcDbMentalRayRenderSettings
  3
SCENEOE
 90
1024
 91
0
280
0
281
0
  0
CLASS
  1
ACDBDETAILVIEWSTYLE
  2
AcDbDetailViewStyle
  3
ObjectDBX Classes
 90
1025
 91
0
280
0
281
0
  0
CLASS
  1
ACDBSECTIONVIEWSTYLE
  2
AcDbSectionViewStyle
  3
ObjectDBX Classes
 90
1025
 91
0
280
0
281
0
  0
CLASS
  1
RASTERVARIABLES
  2
AcDbRasterVariables
  3
ISM
 90
0
 91
0
280
0
281
0
  0
CLASS
  1
LAYOUT
  2
AcDbLayout
  3
ObjectDBX Classes
 90
0
 91
0
280
0
281
0
  0
CLASS
  1
ACDBPLACEHOLDER
  2
AcDbPlaceHolder
  3
ObjectDBX Classes
 90
0
 91
0
280
0
281
0
  0
ENDSEC
  0
SECTION
  2
TABLES
  0
TABLE
  2
VPORT
  5
8
330
0
100
AcDbSymbolTable
 70
1
  0
VPORT
  5
23
330
8
100
AcDbSymbolTableRecord
100
AcDbViewportTableRecord
  2
*Active
 70
0
 10
0.0
 20
0.0
 11
1.0
 21
1.0
 12
0.0
 22
0.0
 13
0.0
 23
0.0
 14
0.5
 24
0.5
 15
0.5
 25
0.5
 16
0.0
 26
0.0
 36
1.0
 17
0.0
 27
0.0
 37
0.0
 40
1000.0
 41
1.34
 42
50.0
 43
0.0
 44
0.0
 50
0.0
 51
0.0
 71
0
 72
1000
 73
1
 74
3
 75
0
 76
0
 77
0
 78
0
281
0
 65
0
146
0.0
  0
ENDTAB
  0
TABLE
  2
LTYPE
  5
2
330
0
100
AcDbSymbolTable
 70
3
  0
LTYPE
  5
24
330
2
100
AcDbSymbolTableRecord
100
AcDbLinetypeTableRecord
  2
ByBlock
 70
0
  3

 72
65
 73
0
 40
0.0
  0
LTYPE
  5
25
330
2
100
AcDbSymbolTableRecord
100
AcDbLinetypeTableRecord
  2
ByLayer
 70
0
  3

 72
65
 73
0
 40
0.0
  0
LTYPE
  5
26
330
2
100
AcDbSymbolTableRecord
100
AcDbLinetypeTableRecord
  2
Continuous
 70
0
  3

 72
65
 73
0
 40
0.0
  0
ENDTAB
  0
TABLE
  2
LAYER
  5
1
330
0
100
AcDbSymbolTable
 70
2
  0
LAYER
  5
27
330
1
100
AcDbSymbolTableRecord
100
AcDbLayerTableRecord
  2
0
 70
0
 62
7
  6
Continuous
370
-3
390
13
347
21
  0
LAYER
  5
28
330
1
100
AcDbSymbolTableRecord
100
AcDbLayerTableRecord
  2
Defpoints
 70
0
 62
7
  6
Continuous
290
0
370
-3
390
13
347
21
  0
ENDTAB
  0
TABLE
  2
STYLE
  5
5
330
0
100
AcDbSymbolTable
 70
1
  0
STYLE
  5
29
330
5
100
AcDbSymbolTableRecord
100
AcDbTextStyleTableRecord
  2
Standard
 70
0
 40
0.0
 41
1.0
 50
0.0
 71
0
 42
2.5
  3
txt
  4

  0
ENDTAB
  0
TABLE
  2
VIEW
  5
7
330
0
100
AcDbSymbolTable
 70
0
  0
ENDTAB
  0
TABLE
  2
UCS
  5
6
330
0
100
AcDbSymbolTable
 70
0
  0
ENDTAB
  0
TABLE
  2
APPID
  5
3
330
0
100
AcDbSymbolTable
 70
3
  0
APPID
  5
2A
330
3
100
AcDbSymbolTableRecord
100
AcDbRegAppTableRecord
  2
ACAD
 70
0
  0
APPID
  5
E6
330
3
100
AcDbSymbolTableRecord
100
AcDbRegAppTableRecord
  2
HATCHBACKGROUNDCOLOR
 70
0
  0
APPID
  5
E7
330
3
100
AcDbSymbolTableRecord
100
AcDbRegAppTableRecord
  2
EZDXF
 70
0
  0
ENDTAB
  0
TABLE
  2
DIMSTYLE
  5
4
330
0
100
AcDbSymbolTable
 70
1
100
AcDbDimStyleTable
  0
DIMSTYLE
105
2B
330
4
100
AcDbSymbolTableRecord
100
AcDbDimStyleTableRecord
  2
Standard
 70
0
 40
1.0
 41
2.5
 42
0.625
 43
3.75
 44
1.25
 45
0.0
 46
0.0
 47
0.0
 48
0.0
 49
2.5
140
2.5
141
2.5
142
0.0
143
0.03937007874
144
1.0
145
0.0
146
1.0
147
0.625
148
0.0
 69
0
 70
0
 71
0
 72
0
 73
0
 74
0
 75
0
 76
0
 77
1
 78
8
 79
3
170
0
171
3
172
1
173
0
174
0
175
0
176
0
177
0
178
0
179
2
271
2
272
2
273
2
274
3
275
0
276
0
277
2
278
44
279
0
280
0
281
0
282
0
283
0
284
8
285
0
286
0
288
0
289
3
290
0
371
-2
372
-2
  0
ENDTAB
  0
TABLE
  2
BLOCK_RECORD
  5
9
330
0
100
AcDbSymbolTable
 70
2
  0
BLOCK_RECORD
  5
17
330
9
100
AcDbSymbolTableRecord
100
AcDbBlockTableRecord
  2
*Model_Space
340
1A
 70
0
280
1
281
0
  0
BLOCK_RECORD
  5
1B
330
9
100
AcDbSymbolTableRecord
100
AcDbBlockTableRecord
  2
*Paper_Space
340
1E
 70
0
280
1
281
0
  0
ENDTAB
  0
ENDSEC
  0
SECTION
  2
BLOCKS
  0
BLOCK
  5
18
330
17
100
AcDbEntity
  8
0
100
AcDbBlockBegin
  2
*Model_Space
 70
0
 10
0.0
 20
0.0
 30
0.0
  3
*Model_Space
  1

  0
ENDBLK
  5
19
330
17
100
AcDbEntity
  8
0
100
AcDbBlockEnd
  0
BLOCK
  5
1C
330
1B
100
AcDbEntity
  8
0
100
AcDbBlockBegin
  2
*Paper_Space
 70
0
 10
0.0
 20
0.0
 30
0.0
  3
*Paper_Space
  1

  0
ENDBLK
  5
1D
330
1B
100
AcDbEntity
  8
0
100
AcDbBlockEnd
  0
ENDSEC
  0
SECTION
  2
ENTITIES
  0
CIRCLE
  5
10000
330
17
100
AcDbEntity
  8
0
100
AcDbCircle
 10
0.226683315065849
 20
0.487500000000001
 30
0.0
 40
0.15
  0
CIRCLE
  5
10001
330
17
100
AcDbEntity
  8
0
100
AcDbCircle
 10
0.226683315065849
 20
0.837500000000001
 30
0.0
 40
0.15
  0
CIRCLE
  5
10002
330
17
100
AcDbEntity
  8
0
100
AcDbCircle
 10
0.226683315065849
 20
1.1875
 30
0.0
 40
0.15
  0
CIRCLE
  5
10003
330
17
100
AcDbEntity
  8
0
100
AcDbCircle
 10
0.226683315065849
 20
1.5375
 30
0.0
 40
0.15
  0
CIRCLE
  5
10004
330
17
100
AcDbEntity
  8
0
100
AcDbCircle
 10
0.226683315065849
 20
1.8875
 30
0.0
 40
0.15
  0
CIRCLE
  5
10005
330
17
100
AcDbEntity
  8
0
100
AcDbCircle
 10
0.226683315065849
 20
2.2375
 30
0.0
 40
0.15
  0
CIRCLE
  5
10006
330
17
100
AcDbEntity
  8
0
100
AcDbCircle
 10
0.226683315065849
 20
2.5875
 30
0.0
 40
0.15
  0
CIRCLE
  5
10007
330
17
100
AcDbEntity
  8
0
100
AcDbCircle
 10
0.226683315065849
 20
2.9375
 30
0.0
 40
0.15
  0
CIRCLE
  5
10008
330
17
100
AcDbEntity
  8
0
100
AcDbCircle
 10
0.226683315065849
 20
3.2875
 30
0.0
 40
0.15
  0
CIRCLE
  5
10009
330
17
100
AcDbEntity
  8
0
100
AcDbCircle
 10
0.226683315065849
 20
3.6375
 30
0.0
 40
0.15
  0
CIRCLE
  5
1000A
330
17
100
AcDbEntity
  8
0
100
AcDbCircle
 10
0.226683315065849
 20
3.9875
 30
0.0
 40
0.15
  0
CIRCLE
  5
1000B
330
17
100
AcDbEntity
  8
0
100
AcDbCircle
 10
0.226683315065849
 20
4.3375
 30
0.0
 40
0.15
  0
CIRCLE
  5
1000C
330
17
100
AcDbEntity
  8
0
100
AcDbCircle
 10
0.226683315065849
 20
4.6875
 30
0.0
 40
0.15
  0
CIRCLE
  5
1000D
330
17
100
AcDbEntity
  8
0
100
AcDbCircle
 10
0.529792206390402
 20
0.312500000000001
 30
0.0
 40
0.15
  0
CIRCLE
  5
1000E
330
17
100
AcDbEntity
  8
0
100
AcDbCircle
 10
0.529792206390402
 20
0.662500000000001
 30
0.0
 40
0.15
  0
CIRCLE
  5
1000F
330
17
100
AcDbEntity
  8
0
100
AcDbCircle
 10
0.529792206390402
 20
1.0125
 30
0.0
 40
0.15
  0
CIRCLE
  5
10010
330
17
100
AcDbEntity
  8
0
100
AcDbCircle
 10
0.529792206390402
 20
1.3625
 30
0.0
 40
0.15
  0
CIRCLE
  5
10011
330
17
100
AcDbEntity
  8
0
100
AcDbCircle
 10
0.529792206390402
 20
1.7125
 30
0.0
 40
0.15
  0
CIRCLE
  5
10012
330
17
100
AcDbEntity
  8
0
100
AcDbCircle
 10
0.529792206390402
 20
2.0625
 30
0.0
 40
0.15
  0
CIRCLE
  5
10013
330
17
100
AcDbEntity
  8
0
100
AcDbCircle
 10
0.529792206390402
 20
2.4125
 30
0.0
 40
0.15
  0
CIRCLE
  5
10014
330
17
100
AcDbEntity
  8
0
100
AcDbCircle
 10
0.529792206390402
 20
2.7625
 30
0.0
 40
0.15
  0
CIRCLE
  5
10015
330
17
100
AcDbEntity
  8
0
100
AcDbCircle
 10
0.529792206390402
 20
3.1125
 30
0.0
 40
0.15
  0
CIRCLE
  5
10016
330
17
100
AcDbEntity
  8
0
100
AcDbCircle
 10
0.529792206390402
 20
3.4625
 30
0.0
 40
0.15
  0
CIRCLE
  5
10017
330
17
100
AcDbEntity
  8
0
100
AcDbCircle
 10
0.529792206390402
 20
3.8125
 30
0.0
 40
0.15
  0
CIRCLE
  5
10018
330
17
100
AcDbEntity
  8
0
100
AcDbCircle
 10
0.529792206390402
 20
4.1625
 30
0.0
 40
0.15
  0
CIRCLE
  5
10019
330
17
100
AcDbEntity
  8
0
100
AcDbCircle
 10
0.529792206390402
 20
4.5125
 30
0.0
 40
0.15
  0
CIRCLE
  5
1001A
330
17
100
AcDbEntity
  8
0
100
AcDbCircle
 10
0.832901097714956
 20
0.487500000000001
 30
0.0
 40
0.15
  0
CIRCLE
  5
1001B
330
17
100
AcDbEntity
  8
0
100
AcDbCircle
 10
0.832901097714956
 20
0.837500000000001
 30
0.0
 40
0.15
  0
CIRCLE
  5
1001C
330
17
100
AcDbEntity
  8
0
100
AcDbCircle
 10
0.832901097714956
 20
1.1875
 30
0.0
 40
0.15
  0
CIRCLE
  5
1001D
330
17
100
AcDbEntity
  8
0
100
AcDbCircle
 10
0.832901097714956
 20
1.5375
 30
0.0
 40
0.15
  0
CIRCLE
  5
1001E
330
17
100
AcDbEntity
  8
0
100
AcDbCircle
 10
0.832901097714956
 20
1.8875
 30
0.0
 40
0.15
  0
CIRCLE
  5
1001F
330
17
100
AcDbEntity
  8
0
100
AcDbCircle
 10
0.832901097714956
 20
2.2375
 30
0.0
 40
0.15
  0
CIRCLE
  5
10020
330
17
100
AcDbEntity
  8
0
100
AcDbCircle
 10
0.832901097714956
 20
2.5875
 30
0.0
 40
0.15
  0
CIRCLE
  5
10021
330
17
100
AcDbEntity
  8
0
100
AcDbCircle
 10
0.832901097714956
 20
2.9375
 30
0.0
 40
0.15
  0
CIRCLE
  5
10022
330
17
100
AcDbEntity
  8
0
100
AcDbCircle
 10
0.832901097714956
 20
3.2875
 30
0.0
 40
0.15
  0
CIRCLE
  5
10023
330
17
100
AcDbEntity
  8
0
100
AcDbCircle
 10
0.832901097714956
 20
3.6375
 30
0.0
 40
0.15
  0
CIRCLE
  5
10024
330
17
100
AcDbEntity
  8
0
100
AcDbCircle
 10
0.832901097714956
 20
3.9875
 30
0.0
 40
0.15
  0
CIRCLE
  5
10025
330
17
100
AcDbEntity
  8
0
100
AcDbCircle
 10
0.832901097714956
 20
4.3375
 30
0.0
 40
0.15
  0
CIRCLE
  5
10026
330
17
100
AcDbEntity
  8
0
100
AcDbCircle
 10
0.832901097714956
 20
4.6875
 30
0.0
 40
0.15
  0
CIRCLE
  5
10027
330
17
100
AcDbEntity
  8
0
100
AcDbCircle
 10
1.13600998903951
 20
0.312500000000001
 30
0.0
 40
0.15
  0
CIRCLE
  5
10028
330
17
100
AcDbEntity
  8
0
100
AcDbCircle
 10
1.13600998903951
 20
0.662500000000001
 30
0.0
 40
0.15
  0
CIRCLE
  5
10029
330
17
100
AcDbEntity
  8
0
100
AcDbCircle
 10
1.13600998903951
 20
1.0125
 30
0.0
 40
0.15
  0
CIRCLE
  5
1002A
330
17
100
AcDbEntity
  8
0
100
AcDbCircle
 10
1.13600998903951
 20
1.3625
 30
0.0
 40
0.15
  0
CIRCLE
  5
1002B
330
17
100
AcDbEntity
  8
0
100
AcDbCircle
 10
1.13600998903951
 20
1.7125
 30
0.0
 40
0.15
  0
CIRCLE
  5
1002C
330
17
100
AcDbEntity
  8
0
100
AcDbCircle
 10
1.13600998903951
 20
2.0625
 30
0.0
 40
0.15
  0
CIRCLE
  5
1002D
330
17
100
AcDbEntity
  8
0
100
AcDbCircle
 10
1.13600998903951
 20
2.4125
 30
0.0
 40
0.15
  0
CIRCLE
  5
1002E
330
17
100
AcDbEntity
  8
0
100
AcDbCircle
 10
1.13600998903951
 20
2.7625
 30
0.0
 40
0.15
  0
CIRCLE
  5
1002F
330
17
100
AcDbEntity
  8
0
100
AcDbCircle
 10
1.13600998903951
 20
3.1125
 30
0.0
 40
0.15
  0
CIRCLE
  5
10030
330
17
100
AcDbEntity
  8
0
100
AcDbCircle
 10
1.13600998903951
 20
3.4625
 30
0.0
 40
0.15
  0
CIRCLE
  5
10031
330
17
100
AcDbEntity
  8
0
100
AcDbCircle
 10
1.13600998903951
 20
3.8125
 30
0.0
 40
0.15
  0
CIRCLE
  5
10032
330
17
100
AcDbEntity
  8
0
100
AcDbCircle
 10
1.13600998903951
 20
4.1625
 30
0.0
 40
0.15
  0
CIRCLE
  5
10033
330
17
100
AcDbEntity
  8
0
100
AcDbCircle
 10
1.13600998903951
 20
4.5125
 30
0.0
 40
0.15
  0
CIRCLE
  5
10034
330
17
100
AcDbEntity
  8
0
100
AcDbCircle
 10
1.43911888036406
 20
0.487500000000001
 30
0.0
 40
0.15
  0
CIRCLE
  5
10035
330
17
100
AcDbEntity
  8
0
100
AcDbCircle
 10
1.43911888036406
 20
0.837500000000001
 30
0.0
 40
0.15
  0
CIRCLE
  5
10036
330
17
100
AcDbEntity
  8
0
100
AcDbCircle
 10
1.43911888036406
 20
1.1875
 30
0.0
 40
0.15
  0
CIRCLE
  5
10037
330
17
100
AcDbEntity
  8
0
100
AcDbCircle
 10
1.43911888036406
 20
1.5375
 30
0.0
 40
0.15
  0
CIRCLE
  5
10038
330
17
100
AcDbEntity
  8
0
100
AcDbCircle
 10
1.43911888036406
 20
1.8875
 30
0.0
 40
0.15
  0
CIRCLE
  5
10039
330
17
100
AcDbEntity
  8
0
100
AcDbCircle
 10
1.43911888036406
 20
2.2375
 30
0.0
 40
0.15
  0
CIRCLE
  5
1003A
330
17
100
AcDbEntity
  8
0
100
AcDbCircle
 10
1.43911888036406
 20
2.5875
 30
0.0
 40
0.15
  0
CIRCLE
  5
1003B
330
17
100
AcDbEntity
  8
0
100
AcDbCircle
 10
1.43911888036406
 20
2.9375
 30
0.0
 40
0.15
  0
CIRCLE
  5
1003C
330
17
100
AcDbEntity
  8
0
100
AcDbCircle
 10
1.43911888036406
 20
3.2875
 30
0.0
 40
0.15
  0
CIRCLE
  5
1003D
330
17
100
AcDbEntity
  8
0
100
AcDbCircle
 10
1.43911888036406
 20
3.6375
 30
0.0
 40
0.15
  0
CIRCLE
  5
1003E
330
17
100
AcDbEntity
  8
0
100
AcDbCircle
 10
1.43911888036406
 20
3.9875
 30
0.0
 40
0.15
  0
CIRCLE
  5
1003F
330
17
100
AcDbEntity
  8
0
100
AcDbCircle
 10
1.43911888036406
 20
4.3375
 30
0.0
 40
0.15
  0
CIRCLE
  5
10040
330
17
100
AcDbEntity
  8
0
100
AcDbCircle
 10
1.43911888036406
 20
4.6875
 30
0.0
 40
0.15
  0
CIRCLE
  5
10041
330
17
100
AcDbEntity
  8
0
100
AcDbCircle
 10
1.74222777168862
 20
0.312500000000001
 30
0.0
 40
0.15
  0
CIRCLE
  5
10042
330
17
100
AcDbEntity
  8
0
100
AcDbCircle
 10
1.74222777168862
 20
0.662500000000001
 30
0.0
 40
0.15
  0
CIRCLE
  5
10043
330
17
100
AcDbEntity
  8
0
100
AcDbCircle
 10
1.74222777168862
 20
1.0125
 30
0.0
 40
0.15
  0
CIRCLE
  5
10044
330
17
100
AcDbEntity
  8
0
100
AcDbCircle
 10
1.74222777168862
 20
1.3625
 30
0.0
 40
0.15
  0
CIRCLE
  5
10045
330
17
100
AcDbEntity
  8
0
100
AcDbCircle
 10
1.74222777168862
 20
1.7125
 30
0.0
 40
0.15
  0
CIRCLE
  5
10046
330
17
100
AcDbEntity
  8
0
100
AcDbCircle
 10
1.74222777168862
 20
2.0625
 30
0.0
 40
0.15
  0
CIRCLE
  5
10047
330
17
100
AcDbEntity
  8
0
100
AcDbCircle
 10
1.74222777168862
 20
2.4125
 30
0.0
 40
0.15
  0
CIRCLE
  5
10048
330
17
100
AcDbEntity
  8
0
100
AcDbCircle
 10
1.74222777168862
 20
2.7625
 30
0.0
 40
0.15
  0
CIRCLE
  5
10049
330
17
100
AcDbEntity
  8
0
100
AcDbCircle
 10
1.74222777168862
 20
3.1125
 30
0.0
 40
0.15
  0
CIRCLE
  5
1004A
330
17
100
AcDbEntity
  8
0
100
AcDbCircle
 10
1.74222777168862
 20
3.4625
 30
0.0
 40
0.15
  0
CIRCLE
  5
1004B
330
17
100
AcDbEntity
  8
0
100
AcDbCircle
 10
1.74222777168862
 20
3.8125
 30
0.0
 40
0.15
  0
CIRCLE
  5
1004C
330
17
100
AcDbEntity
  8
0
100
AcDbCircle
 10
1.74222777168862
 20
4.1625
 30
0.0
 40
0.15
  0
CIRCLE
  5
1004D
330
17
100
AcDbEntity
  8
0
100
AcDbCircle
 10
1.74222777168862
 20
4.5125
 30
0.0
 40
0.15
  0
CIRCLE
  5
1004E
330
17
100
AcDbEntity
  8
0
100
AcDbCircle
 10
2.04533666301317
 20
0.487500000000001
 30
0.0
 40
0.15
  0
CIRCLE
  5
1004F
330
17
100
AcDbEntity
  8
0
100
AcDbCircle
 10
2.04533666301317
 20
0.837500000000001
 30
0.0
 40
0.15
  0
CIRCLE
  5
10050
330
17
100
AcDbEntity
  8
0
100
AcDbCircle
 10
2.04533666301317
 20
1.1875
 30
0.0
 40
0.15
  0
CIRCLE
  5
10051
330
17
100
AcDbEntity
  8
0
100
AcDbCircle
 10
2.04533666301317
 20
1.5375
 30
0.0
 40
0.15
  0
CIRCLE
  5
10052
330
17
100
AcDbEntity
  8
0
100
AcDbCircle
 10
2.04533666301317
 20
1.8875
 30
0.0
 40
0.15
  0
CIRCLE
  5
10053
330
17
100
AcDbEntity
  8
0
100
AcDbCircle
 10
2.04533666301317
 20
2.2375
 30
0.0
 40
0.15
  0
CIRCLE
  5
10054
330
17
100
AcDbEntity
  8
0
100
AcDbCircle
 10
2.04533666301317
 20
2.5875
 30
0.0
 40
0.15
  0
CIRCLE
  5
10055
330
17
100
AcDbEntity
  8
0
100
AcDbCircle
 10
2.04533666301317
 20
2.9375
 30
0.0
 40
0.15
  0
CIRCLE
  5
10056
330
17
100
AcDbEntity
  8
0
100
AcDbCircle
 10
2.04533666301317
 20
3.2875
 30
0.0
 40
0.15
  0
CIRCLE
  5
10057
330
17
100
AcDbEntity
  8
0
100
AcDbCircle
 10
2.04533666301317
 20
3.6375
 30
0.0
 40
0.15
  0
CIRCLE
  5
10058
330
17
100
AcDbEntity
  8
0
100
AcDbCircle
 10
2.04533666301317
 20
3.9875
 30
0.0
 40
0.15
  0
CIRCLE
  5
10059
330
17
100
AcDbEntity
  8
0
100
AcDbCircle
 10
2.04533666301317
 20
4.3375
 30
0.0
 40
0.15
  0
CIRCLE
  5
1005A
330
17
100
AcDbEntity
  8
0
100
AcDbCircle
 10
2.04533666301317
 20
4.6875
 30
0.0
 40
0.15
  0
CIRCLE
  5
1005B
330
17
100
AcDbEntity
  8
0
100
AcDbCircle
 10
2.34844555433772
 20
0.312500000000001
 30
0.0
 40
0.15
  0
CIRCLE
  5
1005C
330
17
100
AcDbEntity
  8
0
100
AcDbCircle
 10
2.34844555433772
 20
0.662500000000001
 30
0.0
 40
0.15
  0
CIRCLE
  5
1005D
330
17
100
AcDbEntity
  8
0
100
AcDbCircle
 10
2.34844555433772
 20
1.0125
 30
0.0
 40
0.15
  0
CIRCLE
  5
1005E
330
17
100
AcDbEntity
  8
0
100
AcDbCircle
 10
2.34844555433772
 20
1.3625
 30
0.0
 40
0.15
  0
CIRCLE
  5
1005F
330
17
100
AcDbEntity
  8
0
100
AcDbCircle
 10
2.34844555433772
 20
1.7125
 30
0.0
 40
0.15
  0
CIRCLE
  5
10060
330
17
100
AcDbEntity
  8
0
100
AcDbCircle
 10
2.34844555433772
 20
2.0625
 30
0.0
 40
0.15
  0
CIRCLE
  5
10061
330
17
100
AcDbEntity
  8
0
100
AcDbCircle
 10
2.34844555433772
 20
2.4125
 30
0.0
 40
0.15
  0
CIRCLE
  5
10062
330
17
100
AcDbEntity
  8
0
100
AcDbCircle
 10
2.34844555433772
 20
2.7625
 30
0.0
 40
0.15
  0
CIRCLE
  5
10063
330
17
100
AcDbEntity
  8
0
100
AcDbCircle
 10
2.34844555433772
 20
3.1125
 30
0.0
 40
0.15
  0
CIRCLE
  5
10064
330
17
100
AcDbEntity
  8
0
100
AcDbCircle
 10
2.34844555433772
 20
3.4625
 30
0.0
 40
0.15
  0
CIRCLE
  5
10065
330
17
100
AcDbEntity
  8
0
100
AcDbCircle
 10
2.34844555433772
 20
3.8125
 30
0.0
 40
0.15
  0
CIRCLE
  5
10066
330
17
100
AcDbEntity
  8
0
100
AcDbCircle
 10
2.34844555433772
 20
4.1625
 30
0.0
 40
0.15
  0
CIRCLE
  5
10067
330
17
100
AcDbEntity
  8
0
100
AcDbCircle
 10
2.34844555433772
 20
4.5125
 30
0.0
 40
0.15
  0
CIRCLE
  5
10068
330
17
100
AcDbEntity
  8
0
100
AcDbCircle
 10
2.65155444566228
 20
0.487500000000001
 30
0.0
 40
0.15
  0
CIRCLE
  5
10069
330
17
100
AcDbEntity
  8
0
100
AcDbCircle
 10
2.65155444566228
 20
0.837500000000001
 30
0.0
 40
0.15
  0
CIRCLE
  5
1006A
330
17
100
AcDbEntity
  8
0
100
AcDbCircle
 10
2.65155444566228
 20
1.1875
 30
0.0
 40
0.15
  0
CIRCLE
  5
1006B
330
17
100
AcDbEntity
  8
0
100
AcDbCircle
 10
2.65155444566228
 20
1.5375
 30
0.0
 40
0.15
  0
CIRCLE
  5
1006C
330
17
100
AcDbEntity
  8
0
100
AcDbCircle
 10
2.65155444566228
 20
1.8875
 30
0.0
 40
0.15
  0
CIRCLE
  5
1006D
330
17
100
AcDbEntity
  8
0
100
AcDbCircle
 10
2.65155444566228
 20
2.2375
 30
0.0
 40
0.15
  0
CIRCLE
  5
1006E
330
17
100
AcDbEntity
  8
0
100
AcDbCircle
 10
2.65155444566228
 20
2.5875
 30
0.0
 40
0.15
  0
CIRCLE
  5
1006F
330
17
100
AcDbEntity
  8
0
100
AcDbCircle
 10
2.65155444566228
 20
2.9375
 30
0.0
 40
0.15
  0
CIRCLE
  5
10070
330
17
100
AcDbEntity
  8
0
100
AcDbCircle
 10
2.65155444566228
 20
3.2875
 30
0.0
 40
0.15
  0
CIRCLE
  5
10071
330
17
100
AcDbEntity
  8
0
100
AcDbCircle
 10
2.65155444566228
 20
3.6375
 30
0.0
 40
0.15
  0
CIRCLE
  5
10072
330
17
100
AcDbEntity
  8
0
100
AcDbCircle
 10
2.65155444566228
 20
3.9875
 30
0.0
 40
0.15
  0
CIRCLE
  5
10073
330
17
100
AcDbEntity
  8
0
100
AcDbCircle
 10
2.65155444566228
 20
4.3375
 30
0.0
 40
0.15
  0
CIRCLE
  5
10074
330
17
100
AcDbEntity
  8
0
100
AcDbCircle
 10
2.65155444566228
 20
4.6875
 30
0.0
 40
0.15
  0
CIRCLE
  5
10075
330
17
100
AcDbEntity
  8
0
100
AcDbCircle
 10
2.95466333698683
 20
0.312500000000001
 30
0.0
 40
0.15
  0
CIRCLE
  5
10076
330
17
100
AcDbEntity
  8
0
100
AcDbCircle
 10
2.95466333698683
 20
0.662500000000001
 30
0.0
 40
0.15
  0
CIRCLE
  5
10077
330
17
100
AcDbEntity
  8
0
100
AcDbCircle
 10
2.95466333698683
 20
1.0125
 30
0.0
 40
0.15
  0
CIRCLE
  5
10078
330
17
100
AcDbEntity
  8
0
100
AcDbCircle
 10
2.95466333698683
 20
1.3625
 30
0.0
 40
0.15
  0
CIRCLE
  5
10079
330
17
100
AcDbEntity
  8
0
100
AcDbCircle
 10
2.95466333698683
 20
1.7125
 30
0.0
 40
0.15
  0
CIRCLE
  5
1007A
330
17
100
AcDbEntity
  8
0
100
AcDbCircle
 10
2.95466333698683
 20
2.0625
 30
0.0
 40
0.15
  0
CIRCLE
  5
1007B
330
17
100
AcDbEntity
  8
0
100
AcDbCircle
 10
2.95466333698683
 20
2.4125
 30
0.0
 40
0.15
  0
CIRCLE
  5
1007C
330
17
100
AcDbEntity
  8
0
100
AcDbCircle
 10
2.95466333698683
 20
2.7625
 30
0.0
 40
0.15
  0
CIRCLE
  5
1007D
330
17
100
AcDbEntity
  8
0
100
AcDbCircle
 10
2.95466333698683
 20
3.1125
 30
0.0
 40
0.15
  0
CIRCLE
  5
1007E
330
17
100
AcDbEntity
  8
0
100
AcDbCircle
 10
2.95466333698683
 20
3.4625
 30
0.0
 40
0.15
  0
CIRCLE
  5
1007F
330
17
100
AcDbEntity
  8
0
100
AcDbCircle
 10
2.95466333698683
 20
3.8125
 30
0.0
 40
0.15
  0
CIRCLE
  5
10080
330
17
100
AcDbEntity
  8
0
100
AcDbCircle
 10
2.95466333698683
 20
4.1625
 30
0.0
 40
0.15
  0
CIRCLE
  5
10081
330
17
100
AcDbEntity
  8
0
100
AcDbCircle
 10
2.95466333698683
 20
4.5125
 30
0.0
 40
0.15
  0
CIRCLE
  5
10082
330
17
100
AcDbEntity
  8
0
100
AcDbCircle
 10
3.25777222831138
 20
0.487500000000001
 30
0.0
 40
0.15
  0
CIRCLE
  5
10083
330
17
100
AcDbEntity
  8
0
100
AcDbCircle
 10
3.25777222831138
 20
0.837500000000001
 30
0.0
 40
0.15
  0
CIRCLE
  5
10084
330
17
100
AcDbEntity
  8
0
100
AcDbCircle
 10
3.25777222831138
 20
1.1875
 30
0.0
 40
0.15
  0
CIRCLE
  5
10085
330
17
100
AcDbEntity
  8
0
100
AcDbCircle
 10
3.25777222831138
 20
1.5375
 30
0.0
 40
0.15
  0
CIRCLE
  5
10086
330
17
100
AcDbEntity
  8
0
100
AcDbCircle
 10
3.25777222831138
 20
1.8875
 30
0.0
 40
0.15
  0
CIRCLE
  5
10087
330
17
100
AcDbEntity
  8
0
100
AcDbCircle
 10
3.25777222831138
 20
2.2375
 30
0.0
 40
0.15
  0
CIRCLE
  5
10088
330
17
100
AcDbEntity
  8
0
100
AcDbCircle
 10
3.25777222831138
 20
2.5875
 30
0.0
 40
0.15
  0
CIRCLE
  5
10089
330
17
100
AcDbEntity
  8
0
100
AcDbCircle
 10
3.25777222831138
 20
2.9375
 30
0.0
 40
0.15
  0
CIRCLE
  5
1008A
330
17
100
AcDbEntity
  8
0
100
AcDbCircle
 10
3.25777222831138
 20
3.2875
 30
0.0
 40
0.15
  0
CIRCLE
  5
1008B
330
17
100
AcDbEntity
  8
0
100
AcDbCircle
 10
3.25777222831138
 20
3.6375
 30
0.0
 40
0.15
  0
CIRCLE
  5
1008C
330
17
100
AcDbEntity
  8
0
100
AcDbCircle
 10
3.25777222831138
 20
3.9875
 30
0.0
 40
0.15
  0
CIRCLE
  5
1008D
330
17
100
AcDbEntity
  8
0
100
AcDbCircle
 10
3.25777222831138
 20
4.3375
 30
0.0
 40
0.15
  0
CIRCLE
  5
1008E
330
17
100
AcDbEntity
  8
0
100
AcDbCircle
 10
3.25777222831138
 20
4.6875
 30
0.0
 40
0.15
  0
CIRCLE
  5
1008F
330
17
100
AcDbEntity
  8
0
100
AcDbCircle
 10
3.56088111963594
 20
0.312500000000001
 30
0.0
 40
0.15
  0
CIRCLE
  5
10090
330
17
100
AcDbEntity
  8
0
100
AcDbCircle
 10
3.56088111963594
 20
0.662500000000001
 30
0.0
 40
0.15
  0
CIRCLE
  5
10091
330
17
100
AcDbEntity
  8
0
100
AcDbCircle
 10
3.56088111963594
 20
1.0125
 30
0.0
 40
0.15
  0
CIRCLE
  5
10092
330
17
100
AcDbEntity
  8
0
100
AcDbCircle
 10
3.56088111963594
 20
1.3625
 30
0.0
 40
0.15
  0
CIRCLE
  5
10093
330
17
100
AcDbEntity
  8
0
100
AcDbCircle
 10
3.56088111963594
 20
1.7125
 30
0.0
 40
0.15
  0
CIRCLE
  5
10094
330
17
100
AcDbEntity
  8
0
100
AcDbCircle
 10
3.56088111963594
 20
2.0625
 30
0.0
 40
0.15
  0
CIRCLE
  5
10095
330
17
100
AcDbEntity
  8
0
100
AcDbCircle
 10
3.56088111963594
 20
2.4125
 30
0.0
 40
0.15
  0
CIRCLE
  5
10096
330
17
100
AcDbEntity
  8
0
100
AcDbCircle
 10
3.56088111963594
 20
2.7625
 30
0.0
 40
0.15
  0
CIRCLE
  5
10097
330
17
100
AcDbEntity
  8
0
100
AcDbCircle
 10
3.56088111963594
 20
3.1125
 30
0.0
 40
0.15
  0
CIRCLE
  5
10098
330
17
100
AcDbEntity
  8
0
100
AcDbCircle
 10
3.56088111963594
 20
3.4625
 30
0.0
 40
0.15
  0
CIRCLE
  5
10099
330
17
100
AcDbEntity
  8
0
100
AcDbCircle
 10
3.56088111963594
 20
3.8125
 30
0.0
 40
0.15
  0
CIRCLE
  5
1009A
330
17
100
AcDbEntity
  8
0
100
AcDbCircle
 10
3.56088111963594
 20
4.1625
 30
0.0
 40
0.15
  0
CIRCLE
  5
1009B
330
17
100
AcDbEntity
  8
0
100
AcDbCircle
 10
3.56088111963594
 20
4.5125
 30
0.0
 40
0.15
  0
CIRCLE
  5
1009C
330
17
100
AcDbEntity
  8
0
100
AcDbCircle
 10
3.86399001096049
 20
0.487500000000001
 30
0.0
 40
0.15
  0
CIRCLE
  5
1009D
330
17
100
AcDbEntity
  8
0
100
AcDbCircle
 10
3.86399001096049
 20
0.837500000000001
 30
0.0
 40
0.15
  0
CIRCLE
  5
1009E
330
17
100
AcDbEntity
  8
0
100
AcDbCircle
 10
3.86399001096049
 20
1.1875
 30
0.0
 40
0.15
  0
CIRCLE
  5
1009F
330
17
100
AcDbEntity
  8
0
100
AcDbCircle
 10
3.86399001096049
 20
1.5375
 30
0.0
 40
0.15
  0
CIRCLE
  5
100A0
330
17
100
AcDbEntity
  8
0
100
AcDbCircle
 10
3.86399001096049
 20
1.8875
 30
0.0
 40
0.15
  0
CIRCLE
  5
100A1
330
17
100
AcDbEntity
  8
0
100
AcDbCircle
 10
3.86399001096049
 20
2.2375
 30
0.0
 40
0.15
  0
CIRCLE
  5
100A2
330
17
100
AcDbEntity
  8
0
100
AcDbCircle
 10
3.86399001096049
 20
2.5875
 30
0.0
 40
0.15
  0
CIRCLE
  5
100A3
330
17
100
AcDbEntity
  8
0
100
AcDbCircle
 10
3.86399001096049
 20
2.9375
 30
0.0
 40
0.15
  0
CIRCLE
  5
100A4
330
17
100
AcDbEntity
  8
0
100
AcDbCircle
 10
3.86399001096049
 20
3.2875
 30
0.0
 40
0.15
  0
CIRCLE
  5
100A5
330
17
100
AcDbEntity
  8
0
100
AcDbCircle
 10
3.86399001096049
 20
3.6375
 30
0.0
 40
0.15
  0
CIRCLE
  5
100A6
330
17
100
AcDbEntity
  8
0
100
AcDbCircle
 10
3.86399001096049
 20
3.9875
 30
0.0
 40
0.15
  0
CIRCLE
  5
100A7
330
17
100
AcDbEntity
  8
0
100
AcDbCircle
 10
3.86399001096049
 20
4.3375
 30
0.0
 40
0.15
  0
CIRCLE
  5
100A8
330
17
100
AcDbEntity
  8
0
100
AcDbCircle
 10
3.86399001096049
 20
4.6875
 30
0.0
 40
0.15
  0
CIRCLE
  5
100A9
330
17
100
AcDbEntity
  8
0
100
AcDbCircle
 10
4.16709890228504
 20
0.312500000000001
 30
0.0
 40
0.15
  0
CIRCLE
  5
100AA
330
17
100
AcDbEntity
  8
0
100
AcDbCircle
 10
4.16709890228504
 20
0.662500000000001
 30
0.0
 40
0.15
  0
CIRCLE
  5
100AB
330
17
100
AcDbEntity
  8
0
100
AcDbCircle
 10
4.16709890228504
 20
1.0125
 30
0.0
 40
0.15
  0
CIRCLE
  5
100AC
330
17
100
AcDbEntity
  8
0
100
AcDbCircle
 10
4.16709890228504
 20
1.3625
 30
0.0
 40
0.15
  0
CIRCLE
  5
100AD
330
17
100
AcDbEntity
  8
0
100
AcDbCircle
 10
4.16709890228504
 20
1.7125
 30
0.0
 40
0.15
  0
CIRCLE
  5
100AE
330
17
100
AcDbEntity
  8
0
100
AcDbCircle
 10
4.16709890228504
 20
2.0625
 30
0.0
 40
0.15
  0
CIRCLE
  5
100AF
330
17
100
AcDbEntity
  8
0
100
AcDbCircle
 10
4.16709890228504
 20
2.4125
 30
0.0
 40
0.15
  0
CIRCLE
  5
100B0
330
17
100
AcDbEntity
  8
0
100
AcDbCircle
 10
4.16709890228504
 20
2.7625
 30
0.0
 40
0.15
  0
CIRCLE
  5
100B1
330
17
100
AcDbEntity
  8
0
100
AcDbCircle
 10
4.16709890228504
 20
3.1125
 30
0.0
 40
0.15
  0
CIRCLE
  5
100B2
330
17
100
AcDbEntity
  8
0
100
AcDbCircle
 10
4.16709890228504
 20
3.4625
 30
0.0
 40
0.15
  0
CIRCLE
  5
100B3
330
17
100
AcDbEntity
  8
0
100
AcDbCircle
 10
4.16709890228504
 20
3.8125
 30
0.0
 40
0.15
  0
CIRCLE
  5
100B4
330
17
100
AcDbEntity
  8
0
100
AcDbCircle
 10
4.16709890228504
 20
4.1625
 30
0.0
 40
0.15
  0
CIRCLE
  5
100B5
330
17
100
AcDbEntity
  8
0
100
AcDbCircle
 10
4.16709890228504
 20
4.5125
 30
0.0
 40
0.15
  0
CIRCLE
  5
100B6
330
17
100
AcDbEntity
  8
0
100
AcDbCircle
 10
4.4702077936096
 20
0.487500000000001
 30
0.0
 40
0.15
  0
CIRCLE
  5
100B7
330
17
100
AcDbEntity
  8
0
100
AcDbCircle
 10
4.4702077936096
 20
0.837500000000001
 30
0.0
 40
0.15
  0
CIRCLE
  5
100B8
330
17
100
AcDbEntity
  8
0
100
AcDbCircle
 10
4.4702077936096
 20
1.1875
 30
0.0
 40
0.15
  0
CIRCLE
  5
100B9
330
17
100
AcDbEntity
  8
0
100
AcDbCircle
 10
4.4702077936096
 20
1.5375
 30
0.0
 40
0.15
  0
CIRCLE
  5
100BA
330
17
100
AcDbEntity
  8
0
100
AcDbCircle
 10
4.4702077936096
 20
1.8875
 30
0.0
 40
0.15
  0
CIRCLE
  5
100BB
330
17
100
AcDbEntity
  8
0
100
AcDbCircle
 10
4.4702077936096
 20
2.2375
 30
0.0
 40
0.15
  0
CIRCLE
  5
100BC
330
17
100
AcDbEntity
  8
0
100
AcDbCircle
 10
4.4702077936096
 20
2.5875
 30
0.0
 40
0.15
  0
CIRCLE
  5
100BD
330
17
100
AcDbEntity
  8
0
100
AcDbCircle
 10
4.4702077936096
 20
2.9375
 30
0.0
 40
0.15
  0
CIRCLE
  5
100BE
330
17
100
AcDbEntity
  8
0
100
AcDbCircle
 10
4.4702077936096
 20
3.2875
 30
0.0
 40
0.15
  0
CIRCLE
  5
100BF
330
17
100
AcDbEntity
  8
0
100
AcDbCircle
 10
4.4702077936096
 20
3.6375
 30
0.0
 40
0.15
  0
CIRCLE
  5
100C0
330
17
100
AcDbEntity
  8
0
100
AcDbCircle
 10
4.4702077936096
 20
3.9875
 30
0.0
 40
0.15
  0
CIRCLE
  5
100C1
330
17
100
AcDbEntity
  8
0
100
AcDbCircle
 10
4.4702077936096
 20
4.3375
 30
0.0
 40
0.15
  0
CIRCLE
  5
100C2
330
17
100
AcDbEntity
  8
0
100
AcDbCircle
 10
4.4702077936096
 20
4.6875
 30
0.0
 40
0.15
  0
CIRCLE
  5
100C3
330
17
100
AcDbEntity
  8
0
100
AcDbCircle
 10
4.77331668493415
 20
0.312500000000001
 30
0.0
 40
0.15
  0
CIRCLE
  5
100C4
330
17
100
AcDbEntity
  8
0
100
AcDbCircle
 10
4.77331668493415
 20
0.662500000000001
 30
0.0
 40
0.15
  0
CIRCLE
  5
100C5
330
17
100
AcDbEntity
  8
0
100
AcDbCircle
 10
4.77331668493415
 20
1.0125
 30
0.0
 40
0.15
  0
CIRCLE
  5
100C6
330
17
100
AcDbEntity
  8
0
100
AcDbCircle
 10
4.77331668493415
 20
1.3625
 30
0.0
 40
0.15
  0
CIRCLE
  5
100C7
330
17
100
AcDbEntity
  8
0
100
AcDbCircle
 10
4.77331668493415
 20
1.7125
 30
0.0
 40
0.15
  0
CIRCLE
  5
100C8
330
17
100
AcDbEntity
  8
0
100
AcDbCircle
 10
4.77331668493415
 20
2.0625
 30
0.0
 40
0.15
  0
CIRCLE
  5
100C9
330
17
100
AcDbEntity
  8
0
100
AcDbCircle
 10
4.77331668493415
 20
2.4125
 30
0.0
 40
0.15
  0
CIRCLE
  5
100CA
330
17
100
AcDbEntity
  8
0
100
AcDbCircle
 10
4.77331668493415
 20
2.7625
 30
0.0
 40
0.15
  0
CIRCLE
  5
100CB
330
17
100
AcDbEntity
  8
0
100
AcDbCircle
 10
4.77331668493415
 20
3.1125
 30
0.0
 40
0.15
  0
CIRCLE
  5
100CC
330
17
100
AcDbEntity
  8
0
100
AcDbCircle
 10
4.77331668493415
 20
3.4625
 30
0.0
 40
0.15
  0
CIRCLE
  5
100CD
330
17
100
AcDbEntity
  8
0
100
AcDbCircle
 10
4.77331668493415
 20
3.8125
 30
0.0
 40
0.15
  0
CIRCLE
  5
100CE
330
17
100
AcDbEntity
  8
0
100
AcDbCircle
 10
4.77331668493415
 20
4.1625
 30
0.0
 40
0.15
  0
CIRCLE
  5
100CF
330
17
100
AcDbEntity
  8
0
100
AcDbCircle
 10
4.77331668493415
 20
4.5125
 30
0.0
 40
0.15
  0
LINE
  5
100D2
330
17
100
AcDbEntity
  8
0
100
AcDbLine
 10
0.000000
 20
0.000000
 30
0.000000
 11
5.000000
 21
0.000000
 31
0.000000
  0
LINE
  5
100D3
330
17
100
AcDbEntity
  8
0
100
AcDbLine
 10
5.000000
 20
0.000000
 30
0.000000
 11
5.000000
 21
5.000000
 31
0.000000
  0
LINE
  5
100D4
330
17
100
AcDbEntity
  8
0
100
AcDbLine
 10
5.000000
 20
5.000000
 30
0.000000
 11
0.000000
 21
5.000000
 31
0.000000
  0
LINE
  5
100D5
330
17
100
AcDbEntity
  8
0
100
AcDbLine
 10
0.000000
 20
5.000000
 30
0.000000
 11
0.000000
 21
0.000000
 31
0.000000
  0
ENDSEC
  0
SECTION
  2
OBJECTS
  0
DICTIONARY
  5
A
330
0
100
AcDbDictionary
281
1
  3
ACAD_COLOR
350
B
  3
ACAD_GROUP
350
C
  3
ACAD_LAYOUT
350
D
  3
ACAD_MATERIAL
350
E
  3
ACAD_MLEADERSTYLE
350
F
  3
ACAD_MLINESTYLE
350
10
  3
ACAD_PLOTSETTINGS
350
11
  3
ACAD_PLOTSTYLENAME
350
12
  3
ACAD_SCALELIST
350
14
  3
ACAD_TABLESTYLE
350
15
  3
ACAD_VISUALSTYLE
350
16
  3
EZDXF_META
350
2D
  0
DICTIONARY
  5
B
330
A
100
AcDbDictionary
281
1
  0
DICTIONARY
  5
C
330
A
100
AcDbDictionary
281
1
  0
DICTIONARY
  5
D
330
A
100
AcDbDictionary
281
1
  3
Model
350
1A
  3
Layout1
350
1E
  0
DICTIONARY
  5
E
330
A
100
AcDbDictionary
281
1
  3
ByBlock
350
1F
  3
ByLayer
350
20
  3
Global
350
21
  0
DICTIONARY
  5
F
330
A
100
AcDbDictionary
281
1
  3
Standard
350
2C
  0
DICTIONARY
  5
10
330
A
100
AcDbDictionary
281
1
  3
Standard
350
22
  0
DICTIONARY
  5
11
330
A
100
AcDbDictionary
281
1
  0
ACDBDICTIONARYWDFLT
  5
12
330
A
100
AcDbDictionary
281
1
  3
Normal
350
13
100
AcDbDictionaryWithDefault
340
13
  0
ACDBPLACEHOLDER
  5
13
330
12
  0
DICTIONARY
  5
14
330
A
100
AcDbDictionary
281
1
  0
DICTIONARY
  5
15
330
A
100
AcDbDictionary
281
1
  0
DICTIONARY
  5
16
330
A
100
AcDbDictionary
281
1
  0
LAYOUT
  5
1A
330
D
100
AcDbPlotSettings
  1

  4
A3
  6

 40
7.5
 41
20.0
 42
7.5
 43
20.0
 44
420.0
 45
297.0
 46
0.0
 47
0.0
 48
0.0
 49
0.0
140
0.0
141
0.0
142
1.0
143
1.0
 70
1024
 72
1
 73
0
 74
5
  7

 75
16
 76
0
 77
2
 78
300
147
1.0
148
0.0
149
0.0
100
AcDbLayout
  1
Model
 70
1
 71
0
 10
0.0
 20
0.0
 11
420.0
 21
297.0
 12
0.0
 22
0.0
 32
0.0
 14
1e+20
 24
1e+20
 34
1e+20
 15
-1e+20
 25
-1e+20
 35
-1e+20
146
0.0
 13
0.0
 23
0.0
 33
0.0
 16
1.0
 26
0.0
 36
0.0
 17
0.0
 27
1.0
 37
0.0
 76
1
330
17
  0
LAYOUT
  5
1E
330
D
100
AcDbPlotSettings
  1

  4
A3
  6

 40
7.5
 41
20.0
 42
7.5
 43
20.0
 44
420.0
 45
297.0
 46
0.0
 47
0.0
 48
0.0
 49
0.0
140
0.0
141
0.0
142
1.0
143
1.0
 70
0
 72
1
 73
0
 74
5
  7

 75
16
 76
0
 77
2
 78
300
147
1.0
148
0.0
149
0.0
100
AcDbLayout
  1
Layout1
 70
1
 71
1
 10
0.0
 20
0.0
 11
420.0
 21
297.0
 12
0.0
 22
0.0
 32
0.0
 14
1e+20
 24
1e+20
 34
1e+20
 15
-1e+20
 25
-1e+20
 35
-1e+20
146
0.0
 13
0.0
 23
0.0
 33
0.0
 16
1.0
 26
0.0
 36
0.0
 17
0.0
 27
1.0
 37
0.0
 76
1
330
1B
  0
MATERIAL
  5
1F
102
{ACAD_REACTORS
330
E
102
}
330
E
100
AcDbMaterial
  1
ByBlock
  2

 70
0
 40
1.0
 71
1
 41
1.0
 91
-1023410177
 42
1.0
 72
1
  3

 73
1
 74
1
 75
1
 44
0.5
 73
0
 45
1.0
 46
1.0
 77
1
  4

 78
1
 79
1
170
1
 48
1.0
171
1
  6

172
1
173
1
174
1
140
1.0
141
1.0
175
1
  7

176
1
177
1
178
1
143
1.0
179
1
  8

270
1
271
1
272
1
145
1.0
146
1.0
273
1
  9

274
1
275
1
276
1
 42
1.0
 72
1
  3

 73
1
 74
1
 75
1
 94
63
  0
MATERIAL
  5
20
102
{ACAD_REACTORS
330
E
102
}
330
E
100
AcDbMaterial
  1
ByLayer
  2

 70
0
 40
1.0
 71
1
 41
1.0
 91
-1023410177
 42
1.0
 72
1
  3

 73
1
 74
1
 75
1
 44
0.5
 73
0
 45
1.0
 46
1.0
 77
1
  4

 78
1
 79
1
170
1
 48
1.0
171
1
  6

172
1
173
1
174
1
140
1.0
141
1.0
175
1
  7

176
1
177
1
178
1
143
1.0
179
1
  8

270
1
271
1
272
1
145
1.0
146
1.0
273
1
  9

274
1
275
1
276
1
 42
1.0
 72
1
  3

 73
1
 74
1
 75
1
 94
63
  0
MATERIAL
  5
21
102
{ACAD_REACTORS
330
E
102
}
330
E
100
AcDbMaterial
  1
Global
  2

 70
0
 40
1.0
 71
1
 41
1.0
 91
-1023410177
 42
1.0
 72
1
  3

 73
1
 74
1
 75
1
 44
0.5
 73
0
 45
1.0
 46
1.0
 77
1
  4

 78
1
 79
1
170
1
 48
1.0
171
1
  6

172
1
173
1
174
1
140
1.0
141
1.0
175
1
  7

176
1
177
1
178
1
143
1.0
179
1
  8

270
1
271
1
272
1
145
1.0
146
1.0
273
1
  9

274
1
275
1
276
1
 42
1.0
 72
1
  3

 73
1
 74
1
 75
1
 94
63
  0
MLINESTYLE
  5
22
102
{ACAD_REACTORS
330
10
102
}
330
10
100
AcDbMlineStyle
  2
Standard
 70
0
  3

 62
256
 51
90.0
 52
90.0
 71
2
 49
0.5
 62
256
  6
BYLAYER
 49
-0.5
 62
256
  6
BYLAYER
  0
MLEADERSTYLE
  5
2C
102
{ACAD_REACTORS
330
F
102
}
330
F
100
AcDbMLeaderStyle
179
2
170
2
171
1
172
0
 90
2
 40
0.0
 41
0.0
173
1
 91
-1056964608
 92
-2
290
1
 42
2.0
291
1
 43
8.0
  3
Standard
 44
4.0
300

342
29
174
1
175
1
176
0
178
1
 93
-1056964608
 45
4.0
292
0
297
0
 46
4.0
 94
-1056964608
 47
1.0
 49
1.0
140
1.0
294
1
141
0.0
177
0
142
1.0
295
0
296
0
143
3.75
271
0
272
9
273
9
  0
DICTIONARY
  5
2D
330
A
100
AcDbDictionary
280
1
281
1
  3
CREATED_BY_EZDXF
350
2E
  3
WRITTEN_BY_EZDXF
350
E8
  0
DICTIONARYVAR
  5
2E
330
2D
100
DictionaryVariables
280
0
  1
1.4.4 @ 2026-07-24T00:18:17.117092+00:00
  0
DICTIONARYVAR
  5
E8
330
2D
100
DictionaryVariables
280
0
  1
1.4.4 @ 2026-07-24T00:18:17.121275+00:00
  0
ENDSEC
  0
EOF
